<svg width="175" height="153" viewBox="0 0 175 153" fill="none" xmlns="http://www.w3.org/2000/svg">
<g clip-path="url(#clip0_261_2478)">
<path d="M171.053 67.0287C172.216 72.8916 171.282 78.6578 169.764 84.2974C164.187 104.78 157.743 124.973 149.663 144.63C149.64 144.668 149.62 144.708 149.604 144.749C148.959 146.311 148.233 147.859 147.456 149.392C146.182 151.892 144.108 152.941 141.294 152.926C125.197 152.886 109.1 152.886 93.0034 152.926C73.6799 152.926 54.3564 152.829 35.033 153.022C31.3297 153.06 28.893 151.877 27.271 149.243C27.0252 148.821 26.8027 148.387 26.6044 147.941C26.4933 147.71 26.397 147.465 26.3007 147.197C22.8641 138.045 19.1165 128.991 16.0132 119.705C12.1174 108.091 8.60669 96.3431 5.26638 84.5504C4.06653 80.3467 3.84433 75.8602 3.36291 71.4854C3.34803 70.082 3.4771 68.6808 3.74805 67.304C3.74805 67.1701 3.78508 67.0511 3.8073 66.9171C0.933592 65.8085 -0.021842 63.517 0.000377371 60.712C0.000377371 56.6943 1.40761 53.0486 3.3481 49.6633C13.1246 32.6625 26.0934 19.0172 44.0837 10.7289C45.6983 9.98483 46.8981 9.56074 46.8981 7.00876C46.8981 1.94943 52.9048 -1.43586 57.5708 0.55067C58.1933 0.725169 58.7616 1.0554 59.2225 1.51046C61.1037 4.22613 63.4442 3.40026 65.992 2.76784C81.0209 -0.887877 96.7284 -0.644641 111.638 3.47467C113.008 3.83924 113.904 3.86156 114.986 2.73065C117.171 0.34235 121.696 -0.0371046 124.762 1.56254C126.196 2.2896 127.375 3.43803 128.142 4.85491C128.909 6.2718 129.229 7.8899 129.058 9.49378C133.813 12.2838 138.686 14.7689 143.13 17.8268C154.833 25.8101 163.868 36.3603 170.882 48.6068C172.603 51.7906 173.877 55.1983 174.667 58.7329C175.637 62.7655 174.349 65.1538 171.053 67.0287Z" fill="#D4883D"/>
<path d="M170.616 55.4889C170.343 54.6267 170.001 53.7882 169.594 52.9816C160.706 36.0551 148.115 22.7372 130.828 14.2926C115.423 6.74824 99.2989 2.20229 82.0122 3.71264C64.2367 5.27508 48.4387 10.3567 35.033 19.4114C24.5158 26.4796 15.4429 35.9807 7.94756 48.0934C6.24394 51.0618 4.83013 54.1889 3.72588 57.4308C3.31388 58.8655 3.2054 60.3709 3.40741 61.8503C3.47196 62.2091 3.62137 62.5471 3.84306 62.8358C4.06475 63.1245 4.35222 63.3556 4.68131 63.5094C5.11829 63.6433 5.87375 62.9142 6.42923 62.4976C7.98459 61.2922 9.33998 59.648 11.0879 58.904C19.5905 55.2583 28.2043 55.9279 36.5365 59.4024C38.6844 60.3027 40.4545 60.831 42.1432 60.1093C42.8851 59.7862 43.5475 59.3036 44.0837 58.6956C44.1387 58.6602 44.1955 58.6279 44.2541 58.5989L45.5872 57.9516C45.5964 57.9562 45.6066 57.9586 45.6169 57.9586C45.6271 57.9586 45.6373 57.9562 45.6465 57.9516C59.4744 51.4935 73.1467 50.9206 86.5524 59.8042C86.802 59.9398 87.0789 60.0169 87.3623 60.0298C87.6458 60.0427 87.9285 59.991 88.1892 59.8786C95.5512 54.4919 103.898 52.6988 112.779 53.3461C120.237 53.9041 127.236 56.0023 133.376 60.5333C133.679 60.6962 134.013 60.7906 134.356 60.8098C134.699 60.8291 135.042 60.7729 135.361 60.645C140.413 57.9535 146.055 56.5749 151.774 56.6347C156.41 56.7314 161.106 56.9397 164.972 59.3876C165.612 59.7754 166.21 60.2293 166.757 60.7417C167.587 61.4386 168.33 62.2329 168.972 63.1077C169.712 64.1195 170.631 63.6954 171.193 62.8175C171.565 61.9611 171.839 61.065 172.008 60.1465C171.497 58.7328 171.134 57.0885 170.616 55.4889Z" fill="#FF9CB5"/>
<g style="mix-blend-mode:multiply" opacity="0.3">
<path d="M172.541 56.8802C172.426 56.4795 172.186 56.1262 171.857 55.8719C171.528 55.6176 171.127 55.4756 170.712 55.4666C170.68 55.4568 170.647 55.4568 170.615 55.4666C164.475 56.1139 158.824 53.2345 152.744 53.6065C148.463 53.8744 144.871 56.1734 140.723 56.8356C136.116 57.5796 132.576 56.3445 128.413 54.7002C115.274 49.4921 104.713 51.1066 91.4773 54.2018C87.4334 55.1541 86.0188 55.5559 81.7082 54.239C78.6419 53.2866 75.9238 51.7762 72.7464 51.0471C67.3736 49.8226 61.8017 49.7718 56.4077 50.8983C51.0306 51.9697 43.6686 54.0306 37.6916 53.4949C34.255 53.1899 31.2702 52.0069 29.4038 49.2912C28.0113 47.3047 27.2337 44.5146 27.2707 40.6532C27.2707 35.2888 28.8927 30.6238 31.1146 26.1969C31.285 25.9811 31.4405 25.7728 31.6109 25.5645C31.8814 25.2171 32.046 24.7985 32.0849 24.3592C32.9959 22.6777 34.0032 21.0185 35.0475 19.3519C35.677 18.2805 36.3436 17.2315 36.988 16.1601C37.1583 15.8773 36.8176 15.4979 36.5288 15.6839C34.2982 17.3444 32.3477 19.354 30.7517 21.6361C30.4321 21.5053 30.0833 21.4632 29.7419 21.5143C29.4006 21.5653 29.0791 21.7076 28.8112 21.9262C18.694 29.0688 11.0357 38.2202 4.99945 49.0159C3.64406 51.4414 -0.348022 57.2001 0.555567 60.4069C0.641466 60.8814 0.826468 61.3323 1.09838 61.7299C1.3703 62.1274 1.72296 62.4626 2.13315 62.7133C2.30041 63.0302 2.5584 63.2893 2.87379 63.4573L4.24398 64.2609C4.41773 64.3521 4.60174 64.422 4.79207 64.4692C4.37811 65.3858 4.03636 66.3336 3.76997 67.3039C3.49902 68.6807 3.36996 70.0819 3.38483 71.4853C3.86625 75.8601 4.08845 80.3466 5.2883 84.5503C8.62121 96.343 12.1393 108.091 16.0351 119.705C19.1384 128.991 22.8861 138.045 26.3227 147.197C26.4189 147.45 26.5152 147.695 26.6263 147.941C26.8246 148.387 27.0471 148.821 27.2929 149.243C28.9149 151.877 31.3443 153.06 35.0549 153.022C54.3784 152.829 73.7018 152.926 93.0253 152.926C109.112 152.926 125.209 152.926 141.315 152.926C144.13 152.926 146.204 151.891 147.478 149.392C148.255 147.859 148.959 146.311 149.626 144.749C148.082 145.777 146.488 146.726 144.848 147.591C146.522 145.359 147.966 142.814 149.603 140.352C149.853 139.941 149.946 139.453 149.866 138.979C149.786 138.504 149.537 138.075 149.166 137.77C150.27 136.535 151.107 134.943 150.574 133.551C150.54 133.43 150.464 133.326 150.358 133.259C150.253 133.191 150.126 133.166 150.003 133.187C150.003 133.187 149.966 133.187 149.951 133.187C148.315 133.589 147.441 135.538 147.115 137.331C147.004 137.39 146.87 137.413 146.752 137.487C141.234 141.289 136.805 144.927 130.228 146.981C126.251 148.201 121.955 148.551 117.918 149.54C116.282 149.923 114.688 150.474 113.163 151.185C113.089 151.221 113.026 151.279 112.983 151.35C112.94 151.421 112.918 151.503 112.919 151.586C111.393 151.527 109.897 151.49 108.475 151.475C108.038 151.475 107.601 151.475 107.164 151.43C108.112 149.771 109.023 148.067 109.919 146.371C116.652 133.321 121.37 119.11 127.058 105.599C131.946 93.9621 137.079 81.6784 136.568 69.1417C137.967 65.4478 140.751 62.4512 144.322 60.7938C144.414 60.7606 144.494 60.7011 144.552 60.6226C144.609 60.565 144.653 60.4963 144.682 60.4208C144.712 60.3453 144.725 60.2646 144.722 60.1837C150.2 58.6563 155.926 58.2415 161.565 58.9635C162.779 59.0974 163.905 59.2313 165.009 59.328C165.461 59.3652 165.898 59.4024 166.335 59.4248C166.527 59.9158 166.66 60.3399 166.794 60.6822C167.438 62.3413 167.668 62.5348 169.645 64.3502C170.638 65.2504 172.608 64.9975 172.845 63.5094C173.489 59.9009 173.563 60.4143 172.541 56.8802ZM135.546 61.6196C135.498 61.4511 135.436 61.2869 135.361 61.1286C136.072 61.2401 136.789 61.3022 137.509 61.3146C136.885 61.7987 136.316 62.3501 135.812 62.9589C135.716 62.4976 135.642 62.0363 135.546 61.6196ZM59.7406 142.435C45.3467 136.376 33.2205 125.912 25.0858 112.533C21.5941 106.684 18.5177 100.596 15.8795 94.3118C12.4355 86.321 5.55493 74.4019 10.421 65.9349C10.6938 65.5091 10.8339 65.0111 10.8233 64.5048C10.8127 63.9985 10.652 63.5068 10.3617 63.0928C9.96772 62.4645 9.35958 62.0017 8.65083 61.7907C8.67041 61.5736 8.65288 61.3547 8.59899 61.1435C16.7461 56.7835 23.3156 57.9516 32.944 60.1465C34.8454 60.6099 36.8247 60.6505 38.7433 60.2655C38.3764 60.5745 38.097 60.9751 37.9331 61.427C37.7693 61.8789 37.7269 62.3662 37.8101 62.8398C37.8471 63.0481 37.8842 63.2788 37.9434 63.4946C40.9652 78.7395 45.8387 93.4859 50.3789 108.329C53.9932 120.159 57.6816 132.234 62.6884 143.603C61.7182 143.216 60.7109 142.852 59.7406 142.435ZM103.935 151.363C99.4319 151.185 94.9214 150.842 90.4553 150.307C90.5293 150.083 90.6034 149.83 90.6626 149.6C94.751 136.706 92.3957 120.293 92.5809 107.191C92.7142 98.5006 92.8426 89.8204 92.9661 81.1501C93.0771 74.4539 94.751 67.4081 90.9293 61.7163C90.87 61.6419 90.8182 61.5452 90.7589 61.4708C90.5663 61.1586 90.2975 60.9009 89.978 60.7222C89.6585 60.5436 89.2989 60.4498 88.9332 60.4498C88.5676 60.4498 88.2079 60.5436 87.8885 60.7222C87.569 60.9009 87.3002 61.1586 87.1075 61.4708C86.5054 62.2826 86.0077 63.1676 85.6262 64.1046C83.4413 69.2458 84.4634 75.5104 84.3894 81.1501C84.2807 89.2103 84.1721 97.273 84.0635 105.338C83.9548 113.403 83.8413 121.466 83.7228 129.526C83.6265 136.155 82.9821 143.067 84.7301 149.488C79.0278 148.582 73.4024 147.241 67.9026 145.478C65.6806 131.565 61.4886 117.905 57.3854 104.475C53.0822 90.3759 48.979 76.2024 43.3649 62.5794C43.1353 62.0065 42.8909 61.4113 42.6243 60.8384C42.5115 60.5624 42.3482 60.31 42.1429 60.0944C41.9141 59.8348 41.6199 59.642 41.2911 59.5364C42.6984 59.0453 44.0686 58.4278 45.5869 57.9367C45.5961 57.9413 45.6062 57.9437 45.6165 57.9437C45.6268 57.9437 45.6369 57.9413 45.6461 57.9367C47.1211 57.4307 48.6542 57.1156 50.2085 56.9993C50.348 56.9826 50.4785 56.9217 50.5811 56.8254C50.6837 56.729 50.753 56.6023 50.7788 56.4636C58.2742 55.1318 65.8806 53.1973 71.7613 54.7077C77.6421 56.2181 82.6785 61.1286 88.6851 59.9977C93.9511 58.9858 98.6542 56.1809 104.187 55.5336C109.991 54.8362 115.874 55.2784 121.511 56.8356C125.414 57.9219 128.569 59.3578 131.746 60.3102C131.411 60.5076 131.142 60.8001 130.972 61.1509C130.802 61.5017 130.739 61.8951 130.791 62.2818C130.791 62.3562 130.791 62.4157 130.791 62.4901C127.088 93.1139 110.793 119.899 104.335 149.54C104.187 150.158 104.054 150.723 103.935 151.341V151.363Z" fill="#93278F"/>
</g>
<g style="mix-blend-mode:multiply" opacity="0.3">
<path d="M97.7433 12.5739C95.7657 12.9683 94.714 15.0738 92.6032 15.2301C91.5532 15.2549 90.5332 14.8773 89.7504 14.1738C88.9677 13.4704 88.4808 12.494 88.3889 11.443C88.2482 9.99962 89.0185 9.36721 89.4036 8.13214C89.5147 7.77501 89.6184 7.17235 89.1518 7.00122C87.5223 6.42089 86.1892 9.44161 85.8633 10.6395C85.179 12.8878 85.3997 15.316 86.478 17.4026C88.9592 22.1271 96.4768 21.6138 99.5356 17.7969C100.98 16.0039 100.943 11.9266 97.7433 12.5739Z" fill="#93278F"/>
</g>
<g style="mix-blend-mode:multiply" opacity="0.3">
<path d="M135.953 26.0853C135.792 25.8167 135.534 25.6214 135.232 25.5408C134.931 25.4603 134.61 25.5008 134.338 25.6538C133.938 25.8918 133.471 25.9365 133.064 26.1671C132.657 26.3978 132.249 26.9111 131.768 27.1864C130.605 27.804 129.472 27.246 128.761 26.2192C128.402 25.6096 128.173 24.932 128.088 24.229C128.002 23.5261 128.062 22.813 128.265 22.1345C128.576 20.9888 129.294 20.1555 129.131 18.913C129.126 18.7667 129.065 18.628 128.962 18.5245C128.859 18.421 128.721 18.3605 128.576 18.3549C126.257 18.1466 124.776 21.2268 124.287 23.1241C123.988 24.4066 124.036 25.7462 124.427 27.0036C124.818 28.2611 125.537 29.3904 126.509 30.2741C127.443 31.1533 128.613 31.7377 129.875 31.9546C131.136 32.1715 132.433 32.0115 133.605 31.4943C135.982 30.4452 137.123 28.4959 135.953 26.0853Z" fill="#93278F"/>
</g>
<g style="mix-blend-mode:multiply" opacity="0.3">
<path d="M48.2462 24.4187C48.1971 24.3341 48.132 24.26 48.0544 24.2007C47.9769 24.1414 47.8884 24.0981 47.7942 24.0732C47.6999 24.0483 47.6017 24.0423 47.5051 24.0557C47.4086 24.069 47.3156 24.1013 47.2315 24.1508C46.9722 24.1576 46.7183 24.2265 46.4908 24.3517C46.0595 24.5289 45.6554 24.7669 45.291 25.0585C44.4588 25.7935 43.4273 26.2624 42.3284 26.4052C41.4692 26.4945 39.7139 26.5317 39.1584 25.6612C38.5066 24.6568 39.8991 22.8339 39.588 21.5989C39.5528 21.4737 39.4783 21.3632 39.3755 21.2841C39.2727 21.205 39.1472 21.1614 39.0177 21.1599C36.8698 21.4054 35.7663 24.0541 36.0551 26.0258C36.3662 28.2206 38.277 29.5375 40.3286 30.0211C42.5501 30.5242 44.8782 30.1878 46.8685 29.0762C47.368 28.853 47.8111 28.5198 48.1649 28.1012C48.5188 27.6826 48.7744 27.1894 48.9127 26.6582C48.9627 26.2588 48.9293 25.8534 48.8145 25.4678C48.6997 25.0822 48.5062 24.7249 48.2462 24.4187Z" fill="#93278F"/>
</g>
<g style="mix-blend-mode:multiply" opacity="0.3">
<path d="M54.5333 6.04887C54.2674 5.73305 53.9668 5.44851 53.6371 5.20069C53.6201 5.048 53.5696 4.90098 53.4894 4.77018C53.4091 4.63938 53.3011 4.52804 53.173 4.44413C53.0448 4.36022 52.8998 4.30582 52.7483 4.28484C52.5968 4.26385 52.4425 4.2768 52.2966 4.32276C52.1193 4.37921 51.9537 4.46743 51.8077 4.58316C51.721 4.48143 51.6558 4.36295 51.6164 4.235C51.5769 4.10705 51.5639 3.97233 51.5781 3.83914C51.5781 3.54897 51.2522 3.48201 51.0745 3.62338C50.8149 3.84323 50.6266 4.136 50.5338 4.46411C50.0192 4.54215 49.5282 4.73419 49.0965 5.02629C48.6649 5.31839 48.3032 5.70326 48.0378 6.15304C47.9518 6.30867 47.9015 6.48171 47.8908 6.65943C47.8801 6.83715 47.9093 7.01502 47.9761 7.17993C48.0429 7.34484 48.1456 7.4926 48.2768 7.61233C48.408 7.73205 48.5642 7.82069 48.734 7.87172C49.6043 8.23341 50.5819 8.23341 51.4522 7.87172C51.6364 8.04303 51.8374 8.1951 52.0521 8.32557C52.3204 8.5329 52.6241 8.68924 52.9483 8.78687C53.2942 8.87717 53.6599 8.8513 53.9898 8.7132C54.3196 8.5751 54.5954 8.33236 54.7751 8.02204C54.9547 7.71172 55.0283 7.35088 54.9847 6.9946C54.941 6.63831 54.7825 6.30617 54.5333 6.04887Z" fill="#93278F"/>
</g>
<g style="mix-blend-mode:multiply" opacity="0.3">
<path d="M121.756 6.30183C121.63 6.1307 121.482 5.93726 121.319 5.74381C120.968 5.33033 120.699 4.85296 120.527 4.33762C120.327 3.69032 120.408 3.00583 120.193 2.38086C120.15 2.23483 120.066 2.10455 119.95 2.00578C119.834 1.90701 119.693 1.84398 119.543 1.82431C119.392 1.80463 119.239 1.82915 119.102 1.89491C118.966 1.96067 118.851 2.06485 118.771 2.19485C118.563 2.55109 118.439 2.95077 118.409 3.36295C118.059 3.21581 117.684 3.14237 117.305 3.14719C117.104 3.14795 116.907 3.20796 116.739 3.31979C116.572 3.43163 116.44 3.59038 116.362 3.77642C116.283 3.96247 116.26 4.16764 116.296 4.36656C116.332 4.56547 116.425 4.74941 116.564 4.89563C117.081 5.3388 117.645 5.72308 118.246 6.04143C118.791 6.46987 119.277 6.97041 119.69 7.52946C120.601 8.71989 122.652 7.55178 121.756 6.30183Z" fill="#93278F"/>
</g>
<g style="mix-blend-mode:overlay" opacity="0.2">
<path d="M48.2464 119.021C44.5432 111.238 43.21 102.816 39.9734 94.8252C36.8626 87.1618 34.1445 79.6844 33.1002 71.4109C32.1892 64.2014 20.9165 63.8889 21.5831 71.4109C22.3616 80.5661 24.8385 89.4942 28.8859 97.7343C33.3298 106.752 40.9362 112.25 47.0762 119.928C47.6168 120.628 48.5575 119.735 48.2464 119.021Z" fill="white"/>
</g>
<g style="mix-blend-mode:overlay" opacity="0.2">
<path d="M75.2722 97.392C74.7785 87.2882 74.502 77.177 74.4427 67.0584C74.3909 58.3311 60.4593 58.4501 61.037 67.0584C61.6889 77.7061 62.9252 88.3097 64.7402 98.8205C66.266 107.414 67.7028 117.547 73.2281 124.526C73.6428 125.04 74.4205 124.69 74.5983 124.162C77.3461 115.933 75.65 105.941 75.2722 97.392Z" fill="white"/>
</g>
<g style="mix-blend-mode:overlay" opacity="0.2">
<path d="M113.704 62.3636C113.104 62.2334 112.495 62.1513 111.882 62.1181C108.112 61.9991 105.15 65.362 105.046 68.9854C104.505 88.0025 101.128 107.168 102.313 126.2C102.316 126.265 102.339 126.326 102.378 126.376C102.418 126.427 102.473 126.463 102.534 126.48C102.596 126.498 102.661 126.495 102.721 126.473C102.781 126.451 102.833 126.41 102.868 126.357C112.586 109.72 115.667 89.6319 118.481 70.8157C118.985 67.4379 117.674 63.1077 113.704 62.3636Z" fill="white"/>
</g>
<g style="mix-blend-mode:overlay" opacity="0.2">
<path d="M144.338 73.7695C143.997 83.345 141.153 93.2776 139.035 102.57C136.976 111.61 134.732 121.268 131.451 129.928C131.332 130.24 131.747 130.397 131.947 130.226C148.063 116.588 156.225 94.5797 158.721 73.7695C159.803 64.7371 144.671 64.2981 144.338 73.7695Z" fill="white"/>
</g>
<g style="mix-blend-mode:overlay" opacity="0.2">
<path d="M157.484 42.4611C156.639 40.9744 155.719 39.5317 154.729 38.1384C154.613 37.6627 154.392 37.2195 154.081 36.8419C153.771 36.4644 153.38 36.1623 152.936 35.9584C149.87 32.7071 146.167 31.3306 140.345 33.1609C130.598 36.2114 119.363 40.6606 118.793 23.2506V23.0646C119.24 21.4648 119.296 19.7802 118.955 18.154C117.985 13.623 113.215 8.39252 108.135 9.79128C105.565 10.5353 104.135 12.8194 103.483 15.2598C103.358 15.7485 103.269 16.2459 103.217 16.7479C101.318 19.6852 98.787 22.1567 95.8103 23.9797C95.3733 24.2401 94.9363 24.4782 94.4919 24.7237C93.5513 24.9618 92.6107 25.2073 91.6626 25.4231C86.9669 26.5168 83.0934 24.6791 78.9013 23.9797C78.1552 23.0674 77.5211 22.0682 77.0127 21.0036C76.3239 19.5826 76.1906 18.0276 75.8054 16.5395C76.7831 13.8164 78.768 10.5874 76.4942 8.52645C73.9464 6.29439 68.1916 7.44762 63.7255 10.1782C60.874 10.446 58.1928 12.254 56.7412 16.0336C56.6301 16.3312 56.9634 16.6139 57.2448 16.5395H57.3337C56.2449 21.2194 59.5556 24.0541 56.1486 29.0242C51.7048 35.6013 43.6465 35.4153 36.5511 35.9361C36.1095 35.9489 35.6763 36.0607 35.2832 36.2635C34.8902 36.4662 34.5473 36.7546 34.2795 37.1077C34.0118 37.4608 33.8262 37.8696 33.7361 38.3041C33.646 38.7386 33.6538 39.1879 33.7589 39.619C37.0103 50.4817 48.9051 46.3152 57.9336 40.9061C59.726 40.6532 61.5702 40.5118 63.3255 40.2291C63.4844 40.341 63.669 40.4107 63.862 40.4315C64.055 40.4523 64.2501 40.4236 64.4291 40.3481C71.7541 37.0298 78.8124 37.3721 85.5597 41.6576C86.0012 41.9134 86.5138 42.017 87.0194 41.9525C87.5249 41.888 87.9956 41.659 88.3594 41.3005C97.0694 32.3722 104.794 37.1414 113.297 42.2751C119.17 45.8241 127.243 44.8271 131.858 50.2138C132.187 50.547 132.618 50.7606 133.082 50.8212C133.546 50.8818 134.016 50.7859 134.42 50.5486C140.034 46.2705 148.626 43.5846 155.751 44.7378C156.043 44.801 156.347 44.7793 156.628 44.6754C156.908 44.5716 157.154 44.3897 157.335 44.1511C157.517 43.9125 157.627 43.627 157.654 43.3278C157.68 43.0286 157.621 42.728 157.484 42.4611Z" fill="white"/>
</g>
<g style="mix-blend-mode:overlay" opacity="0.2">
<path d="M132.731 22.6107C132.34 22.5047 131.93 22.4869 131.532 22.5586C131.332 22.6182 131.124 22.8265 130.924 22.7074C130.875 22.6779 130.82 22.6601 130.762 22.6557C130.705 22.6512 130.648 22.6602 130.595 22.6818C130.542 22.7035 130.494 22.7372 130.456 22.7804C130.418 22.8236 130.391 22.875 130.376 22.9307C130.244 23.4494 130.302 23.9987 130.539 24.4782C130.753 24.8574 131.093 25.1489 131.499 25.3013C131.905 25.4537 132.352 25.4573 132.761 25.3115C133.056 25.2314 133.317 25.0557 133.503 24.8116C133.69 24.5675 133.79 24.2686 133.79 23.9611C133.79 23.6537 133.69 23.3548 133.503 23.1107C133.317 22.8666 133.056 22.6909 132.761 22.6107H132.731Z" fill="white"/>
</g>
<g style="mix-blend-mode:overlay" opacity="0.2">
<path d="M42.92 22.8711L42.2831 22.8116C41.1869 22.7 41.1869 24.6344 42.2831 24.5303L42.92 24.4633C43.1302 24.4633 43.3318 24.3794 43.4804 24.2301C43.629 24.0808 43.7125 23.8784 43.7125 23.6672C43.7125 23.4561 43.629 23.2536 43.4804 23.1043C43.3318 22.955 43.1302 22.8711 42.92 22.8711Z" fill="white"/>
</g>
<path d="M174.69 58.718C173.9 55.1834 172.626 51.7757 170.905 48.5919C163.869 36.3453 154.856 25.7951 143.153 17.8118C138.71 14.7539 133.836 12.2689 129.081 9.47879C129.252 7.87492 128.932 6.25681 128.165 4.83993C127.398 3.42304 126.219 2.27461 124.785 1.54755C121.719 -0.0520888 117.194 0.327366 115.009 2.71567C113.928 3.88378 113.031 3.86145 111.661 3.45968C96.7515 -0.659625 81.044 -0.902849 66.0151 2.75287C63.4672 3.38529 61.1268 4.2409 59.2456 1.49548C58.7846 1.04041 58.2164 0.710185 57.5939 0.535686C52.9278 -1.45084 46.9212 1.93445 46.9212 6.99377C46.9212 9.516 45.7213 9.96985 44.1067 10.7139C26.0942 19.0022 13.1255 32.6475 3.37116 49.6484C1.43067 53.0337 0.0456569 56.6793 0.0234375 60.697C0.0234375 63.502 0.956652 65.7936 3.83036 66.9022C3.83036 67.0361 3.78592 67.1551 3.77111 67.289C3.50016 68.6659 3.37109 70.0671 3.38597 71.4704C3.86739 75.8453 4.08959 80.3317 5.28944 84.5354C8.62235 96.3281 12.1404 108.076 16.0362 119.69C19.1395 128.976 22.8872 138.03 26.3238 147.182C26.4201 147.435 26.5164 147.68 26.6275 147.926C26.8257 148.372 27.0483 148.806 27.2941 149.228C28.9161 151.862 31.3454 153.045 35.056 153.007C54.3795 152.814 73.703 152.911 93.0264 152.911C109.113 152.911 125.21 152.911 141.317 152.911C144.131 152.911 146.205 151.877 147.479 149.377C148.256 147.844 148.96 146.296 149.627 144.734C149.643 144.693 149.663 144.653 149.686 144.615C157.766 124.958 164.21 104.765 169.787 84.2824C171.305 78.6428 172.239 72.8766 171.076 67.0138C174.349 65.1537 175.638 62.7654 174.69 58.718ZM126.704 8.7943L121.986 6.97889C120.201 6.30927 118.416 5.61734 116.572 4.91052L116.438 4.85844C116.46 4.83464 116.485 4.81453 116.512 4.79892C117.587 3.87192 118.923 3.30492 120.334 3.17695C123.304 2.90911 126.015 5.00724 126.704 8.7943ZM58.5049 4.82124C57.231 5.31973 55.9571 5.79591 54.6832 6.30928C53.0611 6.94169 51.4465 7.55178 49.8097 8.1842C49.77 8.18639 49.7317 8.19924 49.6986 8.2214V8.16188C49.6585 7.35622 49.8079 6.5524 50.1347 5.81558C50.4616 5.07876 50.9567 4.42968 51.5799 3.92097C52.0381 3.54515 52.5599 3.25532 53.1204 3.06536C55.0239 2.29902 56.794 2.84215 58.5049 4.79892V4.82124ZM4.6821 63.4946C4.35301 63.3407 4.06554 63.1097 3.84386 62.8209C3.62217 62.5322 3.47276 62.1942 3.4082 61.8354C3.20619 60.356 3.31467 58.8506 3.72667 57.4159C4.83092 54.174 6.24473 51.047 7.94836 48.0785C15.4437 35.9659 24.5166 26.4647 35.0338 19.3966C48.4395 10.3419 64.2079 5.2602 82.013 3.69776C99.2997 2.20973 115.424 6.73336 130.829 14.2777C148.138 22.7595 160.67 36.0775 169.594 52.9667C170.002 53.7733 170.344 54.6119 170.617 55.474C171.135 57.0737 171.498 58.718 171.95 60.1539C171.78 61.0725 171.507 61.9686 171.135 62.8249C170.602 63.7029 169.654 64.127 168.913 63.1151C168.286 62.2134 167.552 61.3914 166.728 60.6673C166.182 60.1549 165.583 59.701 164.943 59.3132C161.077 56.8653 156.381 56.657 151.745 56.5603C146.027 56.5005 140.384 57.8791 135.332 60.5706C135.013 60.6984 134.67 60.7547 134.327 60.7355C133.985 60.7162 133.65 60.6218 133.347 60.459C127.207 55.9279 120.208 53.8298 112.75 53.2717C103.862 52.6244 95.5224 54.4175 88.1604 59.8042C87.8996 59.9166 87.617 59.9683 87.3335 59.9554C87.05 59.9426 86.7731 59.8654 86.5236 59.7298C73.1179 50.8462 59.4455 51.4191 45.6176 57.8772C45.6084 57.8818 45.5983 57.8842 45.588 57.8842C45.5777 57.8842 45.5676 57.8818 45.5584 57.8772L44.2252 58.5245C44.1667 58.5535 44.1098 58.5858 44.0549 58.6212C43.5187 59.2292 42.8563 59.7118 42.1144 60.0349C40.4257 60.7789 38.6556 60.2283 36.5077 59.328C28.1754 55.846 19.5617 55.1839 11.0591 58.8296C9.31114 59.5736 7.95576 61.2179 6.40041 62.4232C5.87455 62.877 5.11908 63.6062 4.6821 63.4722V63.4946ZM63.5413 149.6C53.861 149.6 44.166 149.488 34.4635 149.697C31.9749 149.697 30.7603 148.744 29.9011 146.72C28.3235 143 26.6867 139.347 25.2795 135.56C18.7769 118.465 13.182 101.036 8.51866 83.345C7.59105 79.4382 7.03064 75.4527 6.8448 71.4407C6.77582 69.8761 7.05593 68.3158 7.66463 66.874C8.27334 65.4322 9.19524 64.1454 10.3629 63.1077C11.6634 61.9071 13.2378 61.046 14.9475 60.6003C22.7317 58.651 30.2048 59.7447 37.3891 63.1597C37.5883 63.2521 37.775 63.3696 37.9445 63.5094C38.3069 63.78 38.5845 64.1492 38.7444 64.5734C42.6402 77.8764 46.1954 91.2836 50.4393 104.49C55.0831 118.857 60.3269 133.031 65.3114 147.301C65.541 147.956 65.7484 148.618 66.0521 149.592L63.5413 149.6ZM70.0071 149.525C69.6072 149.525 69.0591 148.781 68.8888 148.283C68.5481 147.345 68.2222 146.415 67.8815 145.478C59.1344 120.963 49.8097 96.6257 43.4401 71.3291C43.1513 70.1982 42.7588 69.097 42.4329 67.981C41.5219 64.8859 41.4626 63.9707 43.3439 62.5794C43.8195 62.2206 44.314 61.8878 44.8252 61.5824C49.0895 58.9699 53.8405 57.2609 58.7863 56.5603C67.4964 55.2434 75.7472 56.4859 83.3388 61.3146C83.8768 61.6058 84.3508 62.003 84.7326 62.4823C85.1143 62.9617 85.396 63.5135 85.5607 64.1046C85.6972 64.6088 85.762 65.1298 85.7533 65.6522C85.657 92.2658 85.694 118.879 85.7533 145.478C85.7533 146.832 85.8644 148.171 85.9236 149.585C80.6947 149.563 75.3546 149.6 70.0071 149.503V149.525ZM104.603 149.525H104.321C99.7737 149.6 95.2262 149.578 90.6638 149.578H88.9159C88.9899 148.246 89.1232 147.1 89.1232 145.947C89.1232 119.197 89.1232 92.4642 89.1232 65.7489C89.0483 64.9713 89.1778 64.1876 89.4989 63.4761C89.8199 62.7645 90.3212 62.15 90.9526 61.694C91.16 61.5452 91.3896 61.389 91.634 61.2327C102.307 54.7821 113.416 54.5366 124.748 59.0007C126.866 59.9583 128.891 61.109 130.799 62.438C131.273 62.7654 131.747 63.0481 132.221 63.3383C133.288 63.9633 133.362 64.8263 133.044 65.9721C129.792 77.0357 126.896 88.2257 123.267 99.1554C117.808 115.591 111.854 131.825 106.069 148.142C105.84 148.737 105.099 149.503 104.603 149.525ZM167.269 79.2305C165.558 86.6112 163.64 93.9844 161.225 101.149C157.633 111.886 153.819 122.525 149.982 133.187C148.612 137.063 147.227 140.925 145.879 144.801C144.642 148.38 142.702 149.883 138.628 149.711C131.725 149.406 124.822 149.488 117.89 149.54C115.764 149.54 113.609 149.578 111.483 149.578H108.802C109.143 148.566 109.35 147.896 109.58 147.234C109.676 146.944 109.787 146.654 109.884 146.371C115.853 129.258 122.038 112.25 127.659 95.0335C130.933 85.0785 133.31 74.8185 136.125 64.6924C136.289 64.108 136.671 63.6097 137.191 63.3011C139.532 62.1536 141.984 61.2511 144.509 60.6078C150.472 59.0393 156.769 59.3379 162.558 61.4634C163.42 61.8578 164.18 62.4458 164.78 63.1821C169.076 67.9587 168.565 73.6727 167.269 79.2305Z" fill="#261200"/>
<path d="M24.4259 48.9192C28.0773 49.1648 32.8619 49.2838 37.3502 51.2926C37.8761 51.5233 38.7871 51.1066 39.4388 50.8165C49.8212 45.9922 61.4388 44.5259 72.6865 46.6202C74.6417 47.0448 76.5338 47.7226 78.3154 48.6365C79.0042 48.9713 79.3523 50.0278 79.8559 50.757C79.0264 50.757 78.1006 51.1066 77.397 50.8314C65.7836 46.2705 54.3481 48.1008 43.1495 52.126C39.7203 53.3536 36.9799 54.1199 33.173 53.0113C25.6702 50.8314 17.886 50.437 10.4277 53.9637C9.93889 54.1869 9.17602 53.8074 8.53906 53.7182C8.93901 53.0113 9.16861 51.9474 9.76854 51.6572C14.0495 49.574 18.5748 48.6737 24.4259 48.9192Z" fill="#261200"/>
<path d="M93.0993 5.96703C91.6951 5.93646 90.3085 6.28596 89.085 6.97889C88.1549 7.47374 87.3766 8.21384 86.8337 9.11966C86.2909 10.0255 86.004 11.0628 86.0039 12.1201C86.0409 15.8774 89.2776 18.8981 93.2845 18.8981C94.8631 18.8944 96.3936 18.352 97.625 17.3597C98.8563 16.3674 99.7154 14.9842 100.061 13.437C100.176 12.9494 100.233 12.4499 100.232 11.9489C100.247 8.8315 96.8618 5.98191 93.0993 5.96703Z" fill="#D4883D"/>
<path d="M93.0993 5.96703C91.6951 5.93646 90.3085 6.28596 89.085 6.97889C88.1549 7.47374 87.3766 8.21384 86.8337 9.11966C86.2909 10.0255 86.004 11.0628 86.0039 12.1201C86.0409 15.8774 89.2776 18.8981 93.2845 18.8981C94.8631 18.8944 96.3936 18.352 97.625 17.3597C98.8563 16.3674 99.7154 14.9842 100.061 13.437C100.176 12.9494 100.233 12.4499 100.232 11.9489C100.247 8.8315 96.8618 5.98191 93.0993 5.96703ZM93.2474 16.2419C92.2089 16.2919 91.1863 15.9702 90.3618 15.334C89.5372 14.6977 88.964 13.7882 88.7443 12.7674C88.6954 12.5226 88.6756 12.2728 88.6851 12.0233C88.6886 11.46 88.8513 10.9092 89.1542 10.4351C89.457 9.96093 89.8876 9.58289 90.3959 9.34488C91.2526 8.92851 92.2011 8.73899 93.1512 8.7943C93.3621 8.79286 93.5728 8.81029 93.7807 8.84639C95.8323 9.17375 97.4839 10.699 97.4321 12.3656C97.4321 12.4623 97.4321 12.5739 97.4321 12.6706C97.3235 13.6908 96.8284 14.6299 96.0493 15.2933C95.2703 15.9568 94.2671 16.2938 93.2474 16.2345V16.2419Z" fill="#261200"/>
<path d="M48.0235 21.078C45.2831 20.0811 42.0539 19.471 39.4246 21.2864C38.9769 21.5826 38.5687 21.9352 38.2099 22.3354C36.8768 23.7714 35.8917 25.3115 36.6472 27.3799C36.7271 27.6004 36.8289 27.8122 36.9509 28.0123C36.9509 28.0123 36.9509 28.0123 37.0101 28.0867C37.8693 29.4259 39.6764 30.2667 42.0317 30.2667C42.202 30.2667 42.3576 30.2295 42.5279 30.1923C43.7834 30.0788 45.0012 29.7015 46.1023 29.085C47.2034 28.4685 48.1632 27.6265 48.9197 26.6135C49.0086 26.4871 49.1049 26.3531 49.2011 26.1969C50.4676 24.2476 50.0159 21.7997 48.0235 21.078Z" fill="#D4883D"/>
<path d="M48.0235 21.078C45.2831 20.0811 42.0539 19.471 39.4246 21.2864C38.9769 21.5826 38.5687 21.9352 38.2099 22.3354C36.8768 23.7714 35.8917 25.3115 36.6472 27.3799C36.7271 27.6004 36.8289 27.8122 36.9509 28.0123C36.9509 28.0123 36.9509 28.0123 37.0101 28.0867C37.8693 29.4259 39.6764 30.2667 42.0317 30.2667C42.202 30.2667 42.3576 30.2295 42.5279 30.1923C43.7834 30.0788 45.0012 29.7015 46.1023 29.085C47.2034 28.4685 48.1632 27.6265 48.9197 26.6135C49.0086 26.4871 49.1049 26.3531 49.2011 26.1969C50.4676 24.2476 50.0159 21.7997 48.0235 21.078ZM46.7644 25.1627C45.3424 26.2564 43.8018 27.1864 42.1798 28.2429C40.9652 27.4989 39.7875 27.1344 39.4616 26.3903C39.4015 26.2425 39.4015 26.0769 39.4616 25.929C39.7359 25.229 40.1579 24.597 40.6985 24.0764C40.9385 23.8141 41.2216 23.5952 41.5355 23.4291C42.0545 23.1263 42.6462 22.9719 43.2463 22.9827C44.337 23.0565 45.4156 23.2562 46.4608 23.5779C46.5793 23.5779 46.6904 23.9425 46.7644 24.322C46.8385 24.7014 46.8459 25.0511 46.7644 25.1627Z" fill="#261200"/>
<path d="M133.42 19.032C132.849 18.9204 132.257 18.9353 131.709 18.7865C130.857 18.519 129.949 18.4856 129.079 18.6898C127.272 19.0915 125.939 20.5796 125.635 22.8116C125.102 26.7326 128.109 29.8054 132.501 29.8426C133.217 29.8669 133.93 29.742 134.596 29.4756C135.261 29.2093 135.864 28.8073 136.367 28.295C137.224 27.4123 137.748 26.2574 137.849 25.0288C137.94 23.6636 137.544 22.3104 136.733 21.2115C135.921 20.1127 134.747 19.34 133.42 19.032Z" fill="#D4883D"/>
<path d="M133.42 19.032C132.849 18.9204 132.257 18.9353 131.709 18.7865C130.857 18.519 129.949 18.4856 129.079 18.6898C127.272 19.0915 125.939 20.5796 125.635 22.8116C125.102 26.7326 128.109 29.8054 132.501 29.8426C133.217 29.8669 133.93 29.742 134.596 29.4756C135.261 29.2093 135.864 28.8073 136.367 28.295C137.224 27.4123 137.748 26.2574 137.849 25.0288C137.94 23.6636 137.544 22.3104 136.733 21.2115C135.921 20.1127 134.747 19.34 133.42 19.032ZM132.583 27.4989C132.189 27.4995 131.797 27.4418 131.42 27.3278C129.576 26.8442 128.205 25.2966 128.28 23.6524C128.354 22.0081 129.213 21.1748 130.501 21.212C133.197 21.3236 135.368 22.9307 135.33 24.8056C135.336 25.0601 135.291 25.3132 135.197 25.5496C135.044 26.123 134.702 26.6275 134.228 26.9813C133.753 27.3352 133.173 27.5176 132.583 27.4989Z" fill="#261200"/>
</g>
<defs>
<clipPath id="clip0_261_2478">
<rect width="175" height="153" fill="white"/>
</clipPath>
</defs>
</svg>
