<svg xmlns="http://www.w3.org/2000/svg" viewBox="0 0 248 289"><defs><style>.cls-1,.cls-2{fill:#00bfff;}.cls-1{opacity:0.1;}</style></defs><g id="Layer_2" data-name="Layer 2"><g id="Layer_1-2" data-name="Layer 1"><rect class="cls-1" y="41" width="248" height="248"/><circle class="cls-2" cx="81.44" cy="173.98" r="4.02"/><circle class="cls-2" cx="107.15" cy="173.98" r="4.02"/><circle class="cls-2" cx="132.85" cy="173.98" r="4.02"/><circle class="cls-2" cx="158.57" cy="173.98" r="4.02"/><circle class="cls-2" cx="55.72" cy="149.71" r="4.02"/><circle class="cls-2" cx="81.44" cy="149.71" r="4.02"/><circle class="cls-2" cx="107.15" cy="149.71" r="4.02"/><circle class="cls-2" cx="132.85" cy="149.71" r="4.02"/><circle class="cls-2" cx="158.57" cy="149.71" r="4.02"/><circle class="cls-2" cx="184.28" cy="149.71" r="4.02"/><circle class="cls-2" cx="55.72" cy="125.41" r="4.02"/><circle class="cls-2" cx="81.44" cy="125.41" r="4.02"/><circle class="cls-2" cx="107.15" cy="125.41" r="4.02"/><circle class="cls-2" cx="132.85" cy="125.41" r="4.02"/><circle class="cls-2" cx="158.57" cy="125.41" r="4.02"/><circle class="cls-2" cx="184.28" cy="125.41" r="4.02"/><circle class="cls-2" cx="30.02" cy="101.14" r="4.02"/><circle class="cls-2" cx="55.72" cy="101.14" r="4.02"/><circle class="cls-2" cx="81.44" cy="101.14" r="4.02"/><circle class="cls-2" cx="107.15" cy="101.14" r="4.02"/><circle class="cls-2" cx="132.85" cy="101.14" r="4.02"/><circle class="cls-2" cx="158.57" cy="101.14" r="4.02"/><circle class="cls-2" cx="184.28" cy="101.14" r="4.02"/><circle class="cls-2" cx="209.98" cy="101.14" r="4.02" transform="translate(108.52 310.96) rotate(-89.91)"/><circle class="cls-2" cx="30.02" cy="76.86" r="4.02"/><circle class="cls-2" cx="55.72" cy="76.86" r="4.02"/><circle class="cls-2" cx="81.44" cy="76.86" r="4.02"/><circle class="cls-2" cx="107.15" cy="76.86" r="4.02"/><circle class="cls-2" cx="132.85" cy="76.86" r="4.02"/><circle class="cls-2" cx="158.57" cy="76.86" r="4.02"/><circle class="cls-2" cx="184.28" cy="76.86" r="4.02"/><circle class="cls-2" cx="209.98" cy="76.86" r="4.02"/><circle class="cls-2" cx="55.72" cy="52.59" r="4.02"/><circle class="cls-2" cx="81.44" cy="52.59" r="4.02"/><circle class="cls-2" cx="107.15" cy="52.59" r="4.02"/><circle class="cls-2" cx="132.85" cy="52.59" r="4.02"/><circle class="cls-2" cx="158.57" cy="52.59" r="4.02"/><circle class="cls-2" cx="184.28" cy="52.59" r="4.02"/><circle class="cls-2" cx="55.72" cy="28.29" r="4.02"/><circle class="cls-2" cx="81.44" cy="28.29" r="4.02"/><circle class="cls-2" cx="107.15" cy="28.29" r="4.02"/><circle class="cls-2" cx="132.85" cy="28.29" r="4.02"/><circle class="cls-2" cx="158.57" cy="28.29" r="4.02"/><circle class="cls-2" cx="184.28" cy="28.29" r="4.02"/><circle class="cls-2" cx="81.44" cy="4.02" r="4.02"/><circle class="cls-2" cx="107.15" cy="4.02" r="4.02"/><circle class="cls-2" cx="132.85" cy="4.02" r="4.02"/><circle class="cls-2" cx="158.57" cy="4.02" r="4.02"/></g></g></svg>