<svg width="152" height="152" viewBox="0 0 152 152" fill="none" xmlns="http://www.w3.org/2000/svg">
<circle cx="76" cy="76" r="75" fill="#FAFAFA" stroke="#E7E7E7" stroke-width="2" stroke-linecap="round" stroke-linejoin="round" stroke-dasharray="15 15"/>
<g clip-path="url(#clip0_141_105)">
<path d="M49.0867 47.0407C48.5441 47.0407 48.0237 47.2563 47.6401 47.6399C47.2564 48.0236 47.0409 48.544 47.0409 49.0865V61.3614C47.0409 61.904 46.8253 62.4244 46.4416 62.808C46.058 63.1917 45.5376 63.4073 44.995 63.4073C44.4525 63.4073 43.9321 63.1917 43.5484 62.808C43.1648 62.4244 42.9492 61.904 42.9492 61.3614V49.0865C42.9492 47.4588 43.5958 45.8977 44.7468 44.7467C45.8978 43.5957 47.4589 42.9491 49.0867 42.9491H61.3616C61.9041 42.9491 62.4245 43.1646 62.8082 43.5483C63.1918 43.932 63.4074 44.4523 63.4074 44.9949C63.4074 45.5375 63.1918 46.0579 62.8082 46.4415C62.4245 46.8252 61.9041 47.0407 61.3616 47.0407H49.0867ZM87.9572 44.9949C87.9572 44.4523 88.1727 43.932 88.5564 43.5483C88.94 43.1646 89.4604 42.9491 90.003 42.9491H102.278C103.906 42.9491 105.467 43.5957 106.618 44.7467C107.769 45.8977 108.415 47.4588 108.415 49.0865V61.3614C108.415 61.904 108.2 62.4244 107.816 62.808C107.432 63.1917 106.912 63.4073 106.37 63.4073C105.827 63.4073 105.307 63.1917 104.923 62.808C104.539 62.4244 104.324 61.904 104.324 61.3614V49.0865C104.324 48.544 104.108 48.0236 103.724 47.6399C103.341 47.2563 102.82 47.0407 102.278 47.0407H90.003C89.4604 47.0407 88.94 46.8252 88.5564 46.4415C88.1727 46.0579 87.9572 45.5375 87.9572 44.9949ZM44.995 87.957C45.5376 87.957 46.058 88.1726 46.4416 88.5562C46.8253 88.9399 47.0409 89.4603 47.0409 90.0029V102.278C47.0409 102.82 47.2564 103.341 47.6401 103.724C48.0237 104.108 48.5441 104.324 49.0867 104.324H61.3616C61.9041 104.324 62.4245 104.539 62.8082 104.923C63.1918 105.306 63.4074 105.827 63.4074 106.369C63.4074 106.912 63.1918 107.432 62.8082 107.816C62.4245 108.2 61.9041 108.415 61.3616 108.415H49.0867C47.4589 108.415 45.8978 107.769 44.7468 106.618C43.5958 105.467 42.9492 103.906 42.9492 102.278V90.0029C42.9492 89.4603 43.1648 88.9399 43.5484 88.5562C43.9321 88.1726 44.4525 87.957 44.995 87.957ZM106.37 87.957C106.912 87.957 107.432 88.1726 107.816 88.5562C108.2 88.9399 108.415 89.4603 108.415 90.0029V102.278C108.415 103.906 107.769 105.467 106.618 106.618C105.467 107.769 103.906 108.415 102.278 108.415H90.003C89.4604 108.415 88.94 108.2 88.5564 107.816C88.1727 107.432 87.9572 106.912 87.9572 106.369C87.9572 105.827 88.1727 105.306 88.5564 104.923C88.94 104.539 89.4604 104.324 90.003 104.324H102.278C102.82 104.324 103.341 104.108 103.724 103.724C104.108 103.341 104.324 102.82 104.324 102.278V90.0029C104.324 89.4603 104.539 88.9399 104.923 88.5562C105.307 88.1726 105.827 87.957 106.37 87.957Z" fill="#E7E7E7"/>
<path d="M55.224 100.232C55.224 100.232 51.1323 100.232 51.1323 96.1403C51.1323 92.0486 55.224 79.7737 75.6821 79.7737C96.1403 79.7737 100.232 92.0486 100.232 96.1403C100.232 100.232 96.1403 100.232 96.1403 100.232H55.224ZM87.957 63.4072C87.957 66.6627 86.6638 69.7849 84.3618 72.0869C82.0598 74.3889 78.9376 75.6821 75.6821 75.6821C72.4266 75.6821 69.3044 74.3889 67.0025 72.0869C64.7005 69.7849 63.4072 66.6627 63.4072 63.4072C63.4072 60.1517 64.7005 57.0295 67.0025 54.7276C69.3044 52.4256 72.4266 51.1323 75.6821 51.1323C78.9376 51.1323 82.0598 52.4256 84.3618 54.7276C86.6638 57.0295 87.957 60.1517 87.957 63.4072Z" fill="#E7E7E7"/>
</g>
<defs>
<clipPath id="clip0_141_105">
<rect width="65.4661" height="65.4661" fill="white" transform="translate(42.9492 42.9491)"/>
</clipPath>
</defs>
</svg>
