<svg width="51" height="71" viewBox="0 0 51 71" fill="none" xmlns="http://www.w3.org/2000/svg">
<path fill-rule="evenodd" clip-rule="evenodd" d="M29.5448 9.46506C30.3403 12.1441 28.1053 14.6911 25.2832 14.71C22.48 14.7289 20.1693 12.1819 20.9648 9.52166C21.6652 7.1962 22.6469 4.95991 23.6262 2.72905C23.8387 2.24504 24.0511 1.76129 24.2604 1.27694C24.6582 0.352479 25.8893 0.371346 26.287 1.29581C26.4663 1.70775 26.6474 2.11925 26.8285 2.53078C27.8334 4.8145 28.8386 7.09914 29.5448 9.46506ZM24.6004 6.1748C24.1312 7.39825 23.6628 8.61944 23.2566 9.86126C22.9536 10.7669 23.3892 11.5404 24.1468 12.0498C24.8665 12.5215 25.662 12.5026 26.3628 12.0309C27.1393 11.5027 27.556 10.748 27.253 9.8424C26.8208 8.57971 26.3449 7.32794 25.8668 6.07047C25.7162 5.67454 25.5655 5.27805 25.4158 4.88047H25.0938C24.931 5.31286 24.7657 5.74397 24.6004 6.1748ZM47.3108 48.2549C49.129 49.7265 50.2844 51.5377 50.3791 53.9337C50.3791 59.0089 50.3601 64.1028 50.3223 69.2346C50.3223 69.2413 50.3224 69.2493 50.3225 69.2584C50.3262 69.5029 50.3423 70.5552 48.3335 70.5552H1.98669C1.6817 70.5552 1.39371 70.5721 1.09051 70.59L1.03968 70.593C0.0737262 70.3666 0.0169054 69.6119 0.0169054 68.8384C0.0169054 67.6024 0.012672 66.3679 0.00844219 65.1344C-0.00282455 61.8488 -0.0140664 58.5705 0.0547859 55.2921C0.0926664 53.9149 0.263129 52.4244 0.831337 51.1981C2.23292 48.1794 4.78985 46.7078 8.14228 46.6701C8.59685 46.6701 9.03247 46.6701 9.4681 46.6512C9.49464 46.6512 9.51189 46.6327 9.55241 46.5891C9.56972 46.5705 9.59128 46.5474 9.61962 46.5191C9.61962 45.758 9.61845 44.9933 9.61727 44.2257C9.61371 41.9111 9.61011 39.5698 9.63856 37.2179C9.63979 37.1421 9.64094 37.066 9.64209 36.9897C9.6587 35.8895 9.67592 34.7484 9.9416 33.6898C10.5477 31.2749 12.7448 29.5958 15.2449 29.5203C16.5224 29.4801 17.8094 29.4875 19.1466 29.4951C19.6929 29.4983 20.2475 29.5014 20.8133 29.5014V28.4072V19.1059C20.8323 17.6721 21.1732 17.3136 22.5937 17.3136H27.878C29.3175 17.3136 29.6774 17.6532 29.6774 19.0682V28.3694V29.4637C30.1971 29.4637 30.7077 29.471 31.2114 29.4783C32.3228 29.4943 33.4005 29.5098 34.4692 29.4448C37.727 29.2373 40.9468 31.6522 40.8711 35.7463C40.8305 38.0638 40.8382 40.3909 40.8459 42.7208C40.849 43.6533 40.8521 44.5862 40.8521 45.5192V46.6323C43.2007 46.5946 45.4357 46.7455 47.3108 48.2549ZM27.253 19.7097H23.2566V29.3694H27.253V19.7097ZM34.6776 31.7843C28.4084 31.7654 22.1202 31.7654 15.851 31.7843C13.4456 31.7843 12.0061 33.3314 12.1008 35.7274C12.4299 35.9077 12.7638 36.0817 13.0978 36.2558C13.9172 36.6828 14.7376 37.1102 15.4911 37.633C17.2904 38.897 18.9193 38.9914 20.6239 37.5952C22.2338 36.2746 23.9385 35.3878 26.1166 35.6708C27.4235 35.8406 28.4841 36.4821 29.4501 37.2745C30.416 38.0669 31.4199 38.7838 32.7457 38.5386C33.4844 38.4065 34.2041 38.0669 34.8859 37.7084C35.7666 37.2561 36.6173 36.7639 37.4743 36.2681C37.7969 36.0814 38.1204 35.8943 38.4467 35.7086C38.5225 33.3314 37.0641 31.7843 34.6776 31.7843ZM12.8886 38.7891C12.6107 38.6202 12.3328 38.4513 12.0629 38.2744V46.5757H38.4467V38.2744C38.2104 38.4268 37.9663 38.5689 37.7222 38.7112C37.3011 38.9566 36.8795 39.2022 36.4959 39.5008C33.8063 41.5572 31.0789 41.5949 28.4273 39.463C27.2341 38.5008 26.003 37.6518 24.4309 38.1424C23.5975 38.4065 22.8399 38.9536 22.1202 39.4819C20.927 40.3686 19.6958 40.9724 18.1617 40.9912C16.6843 41.0101 15.4153 40.5573 14.241 39.6706C13.8149 39.3522 13.3517 39.0706 12.8886 38.7891ZM8.25592 49.0284C7.89606 49.0284 7.55513 49.0473 7.21421 49.0661C5.01714 49.2359 2.91477 51.1981 2.59278 53.33C2.86565 53.4423 3.13852 53.5471 3.41023 53.6515C4.00606 53.8805 4.59629 54.1074 5.16866 54.4054C5.50084 54.5795 5.80882 54.8019 6.1168 55.0243C6.4761 55.2838 6.8354 55.5432 7.23315 55.7261C8.93777 56.5373 10.5856 56.3109 12.1197 55.2167C12.162 55.1868 12.2043 55.1568 12.2466 55.1269C13.3777 54.3262 14.5033 53.5294 15.9457 53.3111C17.8586 53.0281 19.639 53.2923 21.23 54.4431L22.4801 55.2921C24.2983 56.5185 26.1924 56.5185 28.0106 55.2921C28.1691 55.1845 28.3264 55.0753 28.4834 54.9663C29.5648 54.2157 30.6343 53.4735 32.007 53.2923C33.901 53.0281 35.6435 53.2923 37.2156 54.4054C37.2914 54.462 37.3671 54.5139 37.4429 54.5658C37.5187 54.6176 37.5944 54.6695 37.6702 54.7261C40.1324 56.6883 42.3673 56.6317 44.8675 54.745C45.4798 54.2809 46.2232 53.9938 46.9661 53.707C47.2801 53.5857 47.594 53.4645 47.8979 53.33C47.8933 53.2837 47.8897 53.2374 47.8863 53.1914C47.8755 53.0499 47.865 52.911 47.8221 52.7829C47.1213 50.5189 44.9432 49.0284 42.2537 49.0284H8.25592ZM2.4602 68.1592H48.0494C48.0494 64.0085 48.0494 59.8956 48.0305 55.8015C47.8454 55.8853 47.6571 55.9625 47.4693 56.0394C47.0229 56.2223 46.5799 56.4038 46.1933 56.6694C44.9432 57.5184 43.7121 58.3296 42.1401 58.4994C40.265 58.707 38.6172 58.2919 37.083 57.2165C36.9875 57.1489 36.892 57.0803 36.7962 57.0116C36.1706 56.5622 35.5355 56.1061 34.8291 55.877C33.2381 55.3487 31.685 55.5185 30.2835 56.5751C29.0523 57.4995 27.7833 58.3296 26.1734 58.4994C24.3173 58.707 22.6505 58.3108 21.1164 57.2354C20.9641 57.1316 20.8126 57.0236 20.6607 56.9152C20.095 56.5117 19.5235 56.1041 18.8814 55.8959C17.3094 55.3676 15.7373 55.5185 14.3357 56.5751C13.0667 57.5184 11.7788 58.3485 10.131 58.5183C8.2938 58.6881 6.68388 58.2919 5.14972 57.2731C4.59056 56.9018 3.99063 56.5954 3.39274 56.2901C3.07928 56.13 2.76638 55.9702 2.4602 55.8015V68.1592Z" fill="white"/>
</svg>
