<!-- Generator: Adobe Illustrator 25.2.3, SVG Export Plug-In  -->
<svg version="1.1" xmlns="http://www.w3.org/2000/svg" xmlns:xlink="http://www.w3.org/1999/xlink" x="0px" y="0px" width="188.8px"
	 height="138.6px" viewBox="0 0 188.8 138.6" style="overflow:visible;enable-background:new 0 0 188.8 138.6;"
	 xml:space="preserve">
<style type="text/css">
	.st0{fill:#FFFFFF;}
</style>
<defs>
</defs>
<path class="st0" d="M76.9,95.5c-5.8-3.4-10.9-6.4-16.1-9.3c-16.5-9.3-33-18.8-49.6-27.9c-4.1-2.2-5.6-4.8-5.5-9.5
	C6,35.7,5.8,35.7,17.3,42.2c24.2,13.7,48.5,27.3,72.6,41.1c3.4,1.9,5.8,1.8,9.1-0.1c25.3-14.5,50.7-28.7,76-43.1
	c6.6-3.7,7.2-3,8,4.4c0.8,7.9-2,12.2-9,15.9c-19.4,10.3-38.4,21.4-57.5,32.3c-1.3,0.7-2.5,1.5-4.4,2.8c3.2,1.9,5.8,3.5,8.5,5
	c10.9,6.2,21.7,12.4,32.7,18.4c3.2,1.7,4.7,3.8,4.3,7.5c-0.3,2.3,0,4.7,0,7c-0.1,5.7-1.6,6.6-6.6,3.8c-17.4-9.8-34.8-19.6-52.1-29.6
	c-3.2-1.8-5.5-1.8-8.6,0c-17,9.8-34.2,19.4-51.3,29.1c-6.1,3.4-6.8,2.5-7.6-4.4c-1-8.2,2-12.6,9.3-16.2
	C52.7,109.9,64.3,102.7,76.9,95.5z M12.5,46.3c-1.5,4-0.3,5.8,2.7,7.4c22.4,12.5,44.7,25.1,67,37.8c5.3,3,5.2,4.8,0,7.8
	c-13.9,7.9-27.8,15.8-41.7,23.6c-3,1.7-4.1,3.6-2.7,7.2c1.7-0.9,3.3-1.7,4.8-2.5c15.8-8.9,31.6-17.8,47.3-26.8
	c3.1-1.8,5.6-1.8,8.7,0c13.2,7.7,26.6,15.1,39.9,22.7c4,2.3,8.1,4.5,12.3,6.8c0.8-5.2,0.8-5.2-2.8-7.2c-5.2-3-10.4-5.9-15.6-8.9
	c-9-5.1-18-10.1-26.9-15.3c-4.1-2.4-4.1-4.2-0.1-6.8c1-0.6,2-1.2,3-1.7c21.6-12.2,43.1-24.5,64.8-36.6c3-1.7,4.3-3.4,2.7-7.2
	c-1.5,0.8-2.9,1.5-4.3,2.3C147.5,62.4,123.3,76,99.2,89.9c-3.4,2-6,2.2-9.5,0.1c-11.2-6.6-22.5-12.9-33.8-19.3
	C41.5,62.6,27.2,54.5,12.5,46.3z"/>
<path class="st0" d="M90.4,54.9c2.9-17,13-27.3,27.4-34c8-3.7,14.4-8.4,14.9-18.2c0-1,1.9-1.8,2.9-2.8c0.9,1.2,2.6,2.3,2.6,3.5
	c-0.1,9.2-4.7,15.7-12.5,20.1c-4.5,2.5-9.2,4.7-13.5,7.5c-7.4,4.8-12.4,11.5-14.4,20.2c-0.3,1.4-0.4,2.8-0.8,5.6
	c1.5-1.7,2.2-2.4,2.8-3.1c5.5-7.5,12.8-12.4,21.7-15.2c14.1-4.4,27-11.2,38.5-20.6c3-2.5,5.3-2.7,8.2-0.2c2.7,2.2,5.6,4.1,8.5,6.2
	c2.5,1.8,4.8,4.2,8.4,1.6c0.6-0.4,2.5,0.8,3.8,1.3c-0.8,1.4-1.1,3.5-2.3,4.2c-7.9,4.6-16,8.8-24.1,13.2
	c-18.2,9.8-36.3,19.6-54.5,29.3c-1.8,1-4,1.4-6.1,1.7c-11.8,1.3-22.2-1.6-32.6-7.7C48.1,55.3,26.4,44.3,5,32.9c-1.2-0.6-2.6-1-3.4-2
	c-0.9-1.1-1.1-2.7-1.6-4.1c1.3-0.4,3.1-1.6,3.8-1.1c3.4,2.3,5.5,0.2,8-1.5c4.1-2.9,8.2-7.7,12.4-7.8c4.1-0.1,8.1,5,12.4,7.4
	c7.2,4.1,14.4,8.4,22.1,11.5C70.3,40,82.7,43.3,90.4,54.9z M90.1,70.1c-3.7-12.5-10.4-20.8-21.3-24.5c-15.1-5.2-29.3-11.7-42.1-21.4
	c-0.9-0.7-3-1-3.9-0.4c-3.1,1.8-5.9,4.1-9.1,6.5c1.1,0.9,1.7,1.4,2.4,1.8c22.4,12.1,44.8,24.2,67.3,36.2C85,69.1,87,69.2,90.1,70.1z
	 M99,69c4.7,0.4,71.2-34.3,75.5-39.2c-2.6-1.9-5-4-7.7-5.4c-1.4-0.7-3.9-0.8-5.1,0.1c-12.3,9.1-25.8,15.7-40.3,20.5
	C109.8,48.7,102.6,56.9,99,69z"/>
</svg>
