<svg width="18" height="18" viewBox="0 0 18 18" fill="#E34C80"
    xmlns="http://www.w3.org/2000/svg">
    <path
        d="M3.13367 0.9H3.13364H1.53364C1.36567 0.9 1.20458 0.966726 1.0858 1.0855C0.967031 1.20427 0.900305 1.36536 0.900305 1.53333C0.900305 1.7013 0.967031 1.86239 1.0858 1.98117C1.20458 2.09994 1.36567 2.16667 1.53364 2.16667H2.63948L3.04656 3.80212L4.64495 12.3165C4.64495 12.3166 4.64495 12.3166 4.64496 12.3166C4.67213 12.4617 4.74915 12.5928 4.8627 12.6871C4.97626 12.7815 5.11923 12.8332 5.26688 12.8333H5.26697H5.40988C5.1682 12.9431 4.94575 13.0961 4.75443 13.2875C4.3356 13.7063 4.10031 14.2744 4.10031 14.8667C4.10031 15.459 4.3356 16.027 4.75443 16.4459C5.17326 16.8647 5.74132 17.1 6.33364 17.1C6.92596 17.1 7.49401 16.8647 7.91284 16.4459C8.33168 16.027 8.56697 15.459 8.56697 14.8667C8.56697 14.2744 8.33168 13.7063 7.91284 13.2875C7.72153 13.0961 7.49908 12.9431 7.2574 12.8333H12.8765C12.6349 12.9431 12.4124 13.0961 12.2211 13.2875C11.8023 13.7063 11.567 14.2744 11.567 14.8667C11.567 15.459 11.8023 16.027 12.2211 16.4459C12.6399 16.8647 13.208 17.1 13.8003 17.1C14.3926 17.1 14.9607 16.8647 15.3795 16.4459C15.7983 16.027 16.0336 15.459 16.0336 14.8667C16.0336 14.2744 15.7983 13.7063 15.3795 13.2875C15.1882 13.0961 14.9657 12.9431 14.7241 12.8333H14.867C15.0349 12.8333 15.196 12.7666 15.3148 12.6478C15.4336 12.5291 15.5003 12.368 15.5003 12.2C15.5003 12.032 15.4336 11.8709 15.3148 11.7522C15.196 11.6334 15.0349 11.5667 14.867 11.5667H5.79261L5.52292 10.1299L15.432 9.63214L15.432 9.63214C15.5727 9.62503 15.707 9.57123 15.8137 9.47924C15.9203 9.38724 15.9933 9.26231 16.021 9.12421L16.021 9.12414L17.0877 3.79081C17.1061 3.69895 17.1038 3.60418 17.0811 3.5133C17.0585 3.42242 17.0159 3.33771 16.9565 3.26526C16.8972 3.19281 16.8225 3.13443 16.7378 3.09433C16.6532 3.05422 16.5607 3.03339 16.467 3.03333H16.467H4.16106L3.748 1.38007C3.748 1.38005 3.74799 1.38004 3.74799 1.38003C3.7138 1.24297 3.63476 1.12128 3.52346 1.0343C3.41214 0.947311 3.27494 0.900039 3.13367 0.9ZM5.2873 8.87335L4.4296 4.3H15.6943L14.8759 8.39203L5.2873 8.87335ZM6.33364 13.9C6.59001 13.9 6.83589 14.0018 7.01718 14.1831C7.19846 14.3644 7.30031 14.6103 7.30031 14.8667C7.30031 15.123 7.19846 15.3689 7.01718 15.5502C6.83589 15.7315 6.59001 15.8333 6.33364 15.8333C6.07726 15.8333 5.83139 15.7315 5.6501 15.5502C5.46882 15.3689 5.36697 15.123 5.36697 14.8667C5.36697 14.6103 5.46882 14.3644 5.6501 14.1831C5.83139 14.0018 6.07726 13.9 6.33364 13.9ZM13.8003 13.9C14.0567 13.9 14.3026 14.0018 14.4838 14.1831C14.6651 14.3644 14.767 14.6103 14.767 14.8667C14.767 15.123 14.6651 15.3689 14.4838 15.5502C14.3026 15.7315 14.0567 15.8333 13.8003 15.8333C13.5439 15.8333 13.2981 15.7315 13.1168 15.5502C12.9355 15.3689 12.8336 15.123 12.8336 14.8667C12.8336 14.6103 12.9355 14.3644 13.1168 14.1831C13.2981 14.0018 13.5439 13.9 13.8003 13.9Z"
        fill="#E34C80" stroke="#E34C80" stroke-width="0.2" />
</svg>