<svg width="13" height="13" viewBox="0 0 13 13" fill="none"
    xmlns="http://www.w3.org/2000/svg">
    <circle cx="6.5" cy="6.5" r="6.5" fill="#5B1977" />
    <path
        d="M3.14689 3.14689C3.19334 3.10033 3.24851 3.06339 3.30926 3.03818C3.37001 3.01297 3.43513 3 3.50089 3C3.56666 3 3.63178 3.01297 3.69253 3.03818C3.75327 3.06339 3.80845 3.10033 3.85489 3.14689L6.50089 5.79389L9.14689 3.14689C9.19338 3.10041 9.24857 3.06353 9.30931 3.03837C9.37005 3.01321 9.43515 3.00026 9.50089 3.00026C9.56664 3.00026 9.63174 3.01321 9.69248 3.03837C9.75322 3.06353 9.80841 3.10041 9.85489 3.14689C9.90138 3.19338 9.93826 3.24857 9.96342 3.30931C9.98858 3.37005 10.0015 3.43515 10.0015 3.50089C10.0015 3.56664 9.98858 3.63174 9.96342 3.69248C9.93826 3.75322 9.90138 3.80841 9.85489 3.85489L7.20789 6.50089L9.85489 9.14689C9.90138 9.19338 9.93826 9.24857 9.96342 9.30931C9.98858 9.37005 10.0015 9.43515 10.0015 9.50089C10.0015 9.56664 9.98858 9.63174 9.96342 9.69248C9.93826 9.75322 9.90138 9.80841 9.85489 9.85489C9.80841 9.90138 9.75322 9.93826 9.69248 9.96342C9.63174 9.98858 9.56664 10.0015 9.50089 10.0015C9.43515 10.0015 9.37005 9.98858 9.30931 9.96342C9.24857 9.93826 9.19338 9.90138 9.14689 9.85489L6.50089 7.20789L3.85489 9.85489C3.80841 9.90138 3.75322 9.93826 3.69248 9.96342C3.63174 9.98858 3.56664 10.0015 3.50089 10.0015C3.43515 10.0015 3.37005 9.98858 3.30931 9.96342C3.24857 9.93826 3.19338 9.90138 3.14689 9.85489C3.10041 9.80841 3.06353 9.75322 3.03837 9.69248C3.01321 9.63174 3.00026 9.56664 3.00026 9.50089C3.00026 9.43515 3.01321 9.37005 3.03837 9.30931C3.06353 9.24857 3.10041 9.19338 3.14689 9.14689L5.79389 6.50089L3.14689 3.85489C3.10033 3.80845 3.06339 3.75327 3.03818 3.69253C3.01297 3.63178 3 3.56666 3 3.50089C3 3.43513 3.01297 3.37001 3.03818 3.30926C3.06339 3.24851 3.10033 3.19334 3.14689 3.14689Z"
        fill="white" />
</svg>