<!-- Generator: Adobe Illustrator 25.2.3, SVG Export Plug-In  -->
<svg version="1.1" xmlns="http://www.w3.org/2000/svg" xmlns:xlink="http://www.w3.org/1999/xlink" x="0px" y="0px" width="407.7px"
	 height="233.9px" viewBox="0 0 407.7 233.9" style="overflow:visible;enable-background:new 0 0 407.7 233.9;"
	 xml:space="preserve">
<style type="text/css">
	.st0{fill:#FFFFFF;}
</style>
<defs>
</defs>
<path class="st0" d="M367,87.2c-11.1,3.4-21.2,6.6-31.3,9.7c-12.6,3.9-12.6,4-12.6,17.4c0,21.2-0.3,42.3,0.2,63.5
	c0.2,9.7-3.3,17.1-10.3,23.2c-12,10.5-26.2,17.1-41.2,21.8c-50.4,15.9-100.4,15.1-149.4-5.2c-9.5-4-18.4-10.1-26.8-16.1
	c-7.9-5.6-11.2-13.7-11-23.8c0.5-23.8,0.1-47.6,0.3-71.5c0-4.1-1.3-5.7-5.2-6.9C57.7,92.6,36,85.7,14.3,78.6
	c-3.8-1.3-7.6-3.5-10.6-6.2c-5.1-4.6-5-11.4,0.4-15.7c3.6-2.9,8.1-5.4,12.6-6.7c55.8-16,111.7-31.7,167.6-47.6
	c16.6-4.7,32.5-2,48.6,2.6c52.6,15.1,105.3,29.9,157.9,45c4.4,1.3,8.8,3.4,12.3,6.2c6.1,4.8,6.1,12.8-0.3,17
	c-5.5,3.7-12.2,5.9-18.5,8.2c-3.4,1.2-4.7,2.7-4.6,6.3c0.2,12.3,0,24.7,0.1,37c0,2.4,0.6,5,1.3,7.3c5.3,16.6,10.7,33.2,16.1,49.9
	c2.1,6.4,1.3,8.4-4.7,11.7c-13.7,7.6-27.2,6.1-40.4-1.3c-4.2-2.4-4-6.1-2.7-10c4.8-14.9,9.9-29.7,14.3-44.7c1.8-6.3,2.7-13,3.1-19.5
	C367.3,108.2,367,98.2,367,87.2z M391.7,65.5c0-0.4,0-0.8,0-1.3c-2.1-0.8-4.1-1.7-6.3-2.3C330.7,46.4,276,31,221.2,15.4
	c-11-3.1-22-3.6-33-0.5c-56,15.8-112,31.7-168,47.6c-1.5,0.4-2.8,1.1-5.7,2.3c3.2,1.1,4.8,1.8,6.5,2.3
	c54.4,17.1,108.8,34.3,163.3,51.4c13.3,4.2,26.5,4,39.7-0.2c52.5-16.6,105-33,157.6-49.5C385,67.8,388.3,66.6,391.7,65.5z
	 M310,105.3c-2.6,0.7-4.4,1-6.1,1.6c-24.8,7.8-49.6,15.4-74.3,23.4c-16.9,5.4-33.6,5.9-50.5,0.3c-21-6.9-42.2-13.3-63.3-19.9
	c-5.8-1.8-11.7-3.6-17.8-5.4c-0.2,1.4-0.4,2.2-0.4,3c0,24.3-0.1,48.7,0.2,73c0,2.8,1.8,6.5,3.9,8.1c7.4,5.5,14.9,11.6,23.3,15.2
	c47,20.2,95,21.1,143.4,5.6c13.2-4.2,25.8-9.9,36.3-19.4c3.7-3.3,5.5-7,5.4-12.2c-0.3-17.5-0.1-35-0.1-52.5
	C310,119.4,310,112.7,310,105.3z M374,152.6c-0.4,0.1-0.9,0.1-1.3,0.2c-3,9.1-6,18.2-8.7,27.4c-0.3,1,0.7,3.4,1.6,3.7
	c6,2.4,12.1,2.8,18.3-1C380.5,172.7,377.3,162.7,374,152.6z"/>
</svg>
