<svg width="968" height="119" viewBox="0 0 968 119" fill="none" xmlns="http://www.w3.org/2000/svg">
<mask id="mask0_98_26" style="mask-type:alpha" maskUnits="userSpaceOnUse" x="0" y="0" width="968" height="119">
<rect width="968" height="119" fill="#40C4F0"/>
</mask>
<g mask="url(#mask0_98_26)">
<rect width="968" height="119" fill="#3EBFEA"/>
<rect x="789.679" y="-133" width="171.599" height="370.338" transform="rotate(43.4477 789.679 -133)" fill="#40C4F0"/>
<rect x="1076.68" y="-40" width="127.763" height="370.338" transform="rotate(43.4477 1076.68 -40)" fill="#40C4F0"/>
<rect x="-44.4736" y="21.4603" width="94.3251" height="270.53" transform="rotate(-47.8199 -44.4736 21.4603)" fill="#40C3EF"/>
<path fill-rule="evenodd" clip-rule="evenodd" d="M916 67.5C916 69.433 914.433 71 912.5 71C910.567 71 909 69.433 909 67.5C909 65.567 910.567 64 912.5 64C914.433 64 916 65.567 916 67.5ZM936 67.5C936 69.433 934.433 71 932.5 71C930.567 71 929 69.433 929 67.5C929 65.567 930.567 64 932.5 64C934.433 64 936 65.567 936 67.5ZM952.5 71C954.433 71 956 69.433 956 67.5C956 65.567 954.433 64 952.5 64C950.567 64 949 65.567 949 67.5C949 69.433 950.567 71 952.5 71ZM916 85.5C916 87.433 914.433 89 912.5 89C910.567 89 909 87.433 909 85.5C909 83.567 910.567 82 912.5 82C914.433 82 916 83.567 916 85.5ZM932.5 89C934.433 89 936 87.433 936 85.5C936 83.567 934.433 82 932.5 82C930.567 82 929 83.567 929 85.5C929 87.433 930.567 89 932.5 89ZM956 85.5C956 87.433 954.433 89 952.5 89C950.567 89 949 87.433 949 85.5C949 83.567 950.567 82 952.5 82C954.433 82 956 83.567 956 85.5ZM912.5 107C914.433 107 916 105.433 916 103.5C916 101.567 914.433 100 912.5 100C910.567 100 909 101.567 909 103.5C909 105.433 910.567 107 912.5 107ZM896 85.5C896 87.433 894.433 89 892.5 89C890.567 89 889 87.433 889 85.5C889 83.567 890.567 82 892.5 82C894.433 82 896 83.567 896 85.5ZM892.5 107C894.433 107 896 105.433 896 103.5C896 101.567 894.433 100 892.5 100C890.567 100 889 101.567 889 103.5C889 105.433 890.567 107 892.5 107ZM936 103.5C936 105.433 934.433 107 932.5 107C930.567 107 929 105.433 929 103.5C929 101.567 930.567 100 932.5 100C934.433 100 936 101.567 936 103.5ZM952.5 107C954.433 107 956 105.433 956 103.5C956 101.567 954.433 100 952.5 100C950.567 100 949 101.567 949 103.5C949 105.433 950.567 107 952.5 107Z" fill="#71CFEE"/>
</g>
</svg>
