<svg width="968" height="244" viewBox="0 0 968 244" fill="none" xmlns="http://www.w3.org/2000/svg">
<mask id="mask0_100_60" style="mask-type:alpha" maskUnits="userSpaceOnUse" x="0" y="0" width="968" height="244">
<rect width="968" height="244" fill="#40C4F0"/>
</mask>
<g mask="url(#mask0_100_60)">
<rect width="968" height="244" fill="#3EBFEA"/>
<rect x="789.679" y="-133" width="171.599" height="514.597" transform="rotate(43.4477 789.679 -133)" fill="#40C4F0"/>
<rect x="1076.68" y="-40" width="127.763" height="443.683" transform="rotate(43.4477 1076.68 -40)" fill="#40C4F0"/>
<rect x="-44.4736" y="21.4603" width="94.3251" height="477.15" transform="rotate(-47.8199 -44.4736 21.4603)" fill="#40C3EF"/>
<path fill-rule="evenodd" clip-rule="evenodd" d="M916 76.5C916 78.433 914.433 80 912.5 80C910.567 80 909 78.433 909 76.5C909 74.567 910.567 73 912.5 73C914.433 73 916 74.567 916 76.5ZM936 76.5C936 78.433 934.433 80 932.5 80C930.567 80 929 78.433 929 76.5C929 74.567 930.567 73 932.5 73C934.433 73 936 74.567 936 76.5ZM952.5 80C954.433 80 956 78.433 956 76.5C956 74.567 954.433 73 952.5 73C950.567 73 949 74.567 949 76.5C949 78.433 950.567 80 952.5 80ZM916 94.5C916 96.433 914.433 98 912.5 98C910.567 98 909 96.433 909 94.5C909 92.567 910.567 91 912.5 91C914.433 91 916 92.567 916 94.5ZM932.5 98C934.433 98 936 96.433 936 94.5C936 92.567 934.433 91 932.5 91C930.567 91 929 92.567 929 94.5C929 96.433 930.567 98 932.5 98ZM956 94.5C956 96.433 954.433 98 952.5 98C950.567 98 949 96.433 949 94.5C949 92.567 950.567 91 952.5 91C954.433 91 956 92.567 956 94.5ZM912.5 116C914.433 116 916 114.433 916 112.5C916 110.567 914.433 109 912.5 109C910.567 109 909 110.567 909 112.5C909 114.433 910.567 116 912.5 116ZM896 94.5C896 96.433 894.433 98 892.5 98C890.567 98 889 96.433 889 94.5C889 92.567 890.567 91 892.5 91C894.433 91 896 92.567 896 94.5ZM892.5 116C894.433 116 896 114.433 896 112.5C896 110.567 894.433 109 892.5 109C890.567 109 889 110.567 889 112.5C889 114.433 890.567 116 892.5 116ZM936 112.5C936 114.433 934.433 116 932.5 116C930.567 116 929 114.433 929 112.5C929 110.567 930.567 109 932.5 109C934.433 109 936 110.567 936 112.5ZM952.5 116C954.433 116 956 114.433 956 112.5C956 110.567 954.433 109 952.5 109C950.567 109 949 110.567 949 112.5C949 114.433 950.567 116 952.5 116Z" fill="#71CFEE"/>
<path fill-rule="evenodd" clip-rule="evenodd" d="M916 166.5C916 164.567 914.433 163 912.5 163C910.567 163 909 164.567 909 166.5C909 168.433 910.567 170 912.5 170C914.433 170 916 168.433 916 166.5ZM936 166.5C936 164.567 934.433 163 932.5 163C930.567 163 929 164.567 929 166.5C929 168.433 930.567 170 932.5 170C934.433 170 936 168.433 936 166.5ZM952.5 163C954.433 163 956 164.567 956 166.5C956 168.433 954.433 170 952.5 170C950.567 170 949 168.433 949 166.5C949 164.567 950.567 163 952.5 163ZM916 148.5C916 146.567 914.433 145 912.5 145C910.567 145 909 146.567 909 148.5C909 150.433 910.567 152 912.5 152C914.433 152 916 150.433 916 148.5ZM932.5 145C934.433 145 936 146.567 936 148.5C936 150.433 934.433 152 932.5 152C930.567 152 929 150.433 929 148.5C929 146.567 930.567 145 932.5 145ZM956 148.5C956 146.567 954.433 145 952.5 145C950.567 145 949 146.567 949 148.5C949 150.433 950.567 152 952.5 152C954.433 152 956 150.433 956 148.5ZM912.5 127C914.433 127 916 128.567 916 130.5C916 132.433 914.433 134 912.5 134C910.567 134 909 132.433 909 130.5C909 128.567 910.567 127 912.5 127ZM896 148.5C896 146.567 894.433 145 892.5 145C890.567 145 889 146.567 889 148.5C889 150.433 890.567 152 892.5 152C894.433 152 896 150.433 896 148.5ZM892.5 127C894.433 127 896 128.567 896 130.5C896 132.433 894.433 134 892.5 134C890.567 134 889 132.433 889 130.5C889 128.567 890.567 127 892.5 127ZM936 130.5C936 128.567 934.433 127 932.5 127C930.567 127 929 128.567 929 130.5C929 132.433 930.567 134 932.5 134C934.433 134 936 132.433 936 130.5ZM952.5 127C954.433 127 956 128.567 956 130.5C956 132.433 954.433 134 952.5 134C950.567 134 949 132.433 949 130.5C949 128.567 950.567 127 952.5 127Z" fill="#71CFEE"/>
<circle cx="248" cy="214" r="144" fill="#64CFF3"/>
</g>
</svg>
