<svg width="47" height="71" viewBox="0 0 47 71" fill="none" xmlns="http://www.w3.org/2000/svg">
<path fill-rule="evenodd" clip-rule="evenodd" d="M46.3143 20.7884C45.1094 11.3376 38.1631 3.63526 28.9249 1.2962C19.6632 -1.04286 9.8817 2.57205 4.30575 10.3689C-1.22293 18.0949 -1.43557 28.4907 3.71508 36.5002C7.22288 41.946 10.7307 47.4236 14.2254 52.8809L14.2255 52.8809L14.2279 52.8848C14.9929 54.0793 15.7573 55.2729 16.5208 56.4649C18.7181 59.9145 20.9154 63.3404 23.2545 66.9789C24.7482 64.639 26.2362 62.3096 27.7192 59.988C32.9447 51.8072 38.1081 43.7238 43.2428 35.626C46.1253 31.0897 46.9995 26.0572 46.3143 20.7884ZM40.2658 35.7205C36.8172 41.0542 33.3958 46.4059 29.9735 51.7589C27.8623 55.061 25.7509 58.3637 23.6325 61.6628C23.538 61.8046 23.4435 61.9227 23.2309 62.1826C22.7446 61.4254 22.2664 60.6803 21.7934 59.9434C20.6579 58.1741 19.5521 56.4512 18.4346 54.7165C14.2054 48.1247 9.9762 41.5328 5.77062 34.9409C1.32877 28.0182 1.49416 18.9691 6.14865 12.2118C10.9922 5.19463 19.2852 1.88687 27.6491 3.61163C35.5641 5.26551 41.9906 11.7629 43.5736 19.7252C44.7077 25.5374 43.4555 30.8062 40.2658 35.7205ZM32.1787 59.0504L32.1787 59.0504C31.7316 58.8167 31.2819 58.5817 30.8387 58.3315C30.5802 58.7623 30.361 59.1391 30.1654 59.4754L30.1651 59.4759C29.9317 59.877 29.732 60.2204 29.5392 60.5288C30.0004 60.7858 30.4542 61.0234 30.8977 61.2557C31.8404 61.7493 32.7364 62.2185 33.5558 62.7969C34.5954 63.553 34.5954 64.4508 33.5558 65.2305C32.6344 65.9157 31.5712 66.5536 30.4843 66.908C25.5463 68.491 20.561 68.491 15.623 66.8844C14.5362 66.53 13.4966 65.8684 12.5515 65.1832C11.6064 64.4744 11.6537 63.6948 12.5043 62.8914C12.9059 62.5134 13.3548 62.1826 13.851 61.9464C14.5935 61.5842 15.3637 61.2636 16.1617 60.9315L16.1619 60.9314C16.405 60.8303 16.6506 60.7281 16.8989 60.6233C16.765 60.3927 16.6358 60.1691 16.5098 59.9511L16.5091 59.95L16.5089 59.9496C16.235 59.4757 15.9763 59.028 15.7175 58.5914C13.7565 58.9694 11.7246 60.0326 10.5905 61.2612C8.93661 63.0096 8.84211 65.2305 10.6377 66.8135C11.8191 67.8531 13.2603 68.7273 14.7488 69.2471C19.1907 70.8537 23.7743 70.8773 28.3815 70.074C30.8623 69.6487 33.225 68.8927 35.1388 67.2152C37.3834 65.2541 37.407 62.6315 35.1152 60.8123C34.2254 60.1202 33.2092 59.589 32.1787 59.0504ZM10.9685 24.0252C10.9922 17.268 16.4736 11.8101 23.2545 11.8101C30.0827 11.8101 35.5405 17.268 35.5169 24.1434C35.4932 30.9007 30.0354 36.3585 23.2545 36.3585C16.45 36.3585 10.9449 30.8534 10.9685 24.0252ZM13.5439 24.0961C13.5439 29.3885 17.9385 33.8068 23.2309 33.8068C28.5942 33.8304 32.9888 29.4358 32.9888 24.0725C32.9652 18.7328 28.6414 14.3855 23.3018 14.3618C17.9385 14.3382 13.5439 18.7328 13.5439 24.0961Z" fill="#FCFCFC"/>
</svg>
