<svg width="16" height="16" viewBox="0 0 16 16" fill="#E34C80"
                                            xmlns="http://www.w3.org/2000/svg">
                                            <path
                                                d="M8.00031 8C9.06117 8 10.0786 7.57857 10.8287 6.82843C11.5789 6.07828 12.0003 5.06087 12.0003 4C12.0003 2.93913 11.5789 1.92172 10.8287 1.17157C10.0786 0.421427 9.06117 0 8.00031 0C6.93944 0 5.92202 0.421427 5.17188 1.17157C4.42173 1.92172 4.00031 2.93913 4.00031 4C4.00031 5.06087 4.42173 6.07828 5.17188 6.82843C5.92202 7.57857 6.93944 8 8.00031 8ZM10.667 4C10.667 4.70724 10.386 5.38552 9.88592 5.88562C9.38583 6.38572 8.70755 6.66667 8.00031 6.66667C7.29306 6.66667 6.61478 6.38572 6.11469 5.88562C5.61459 5.38552 5.33364 4.70724 5.33364 4C5.33364 3.29276 5.61459 2.61448 6.11469 2.11438C6.61478 1.61428 7.29306 1.33333 8.00031 1.33333C8.70755 1.33333 9.38583 1.61428 9.88592 2.11438C10.386 2.61448 10.667 3.29276 10.667 4ZM16.0003 14.6667C16.0003 16 14.667 16 14.667 16H1.33364C1.33364 16 0.000305176 16 0.000305176 14.6667C0.000305176 13.3333 1.33364 9.33333 8.00031 9.33333C14.667 9.33333 16.0003 13.3333 16.0003 14.6667ZM14.667 14.6613C14.6656 14.3333 14.4616 13.3467 13.5576 12.4427C12.6883 11.5733 11.0523 10.6667 8.00031 10.6667C4.94831 10.6667 3.31231 11.5733 2.44297 12.4427C1.53897 13.3467 1.33631 14.3333 1.33364 14.6613H14.667Z"
                                                fill="#E34C80" />
                                        </svg>