<svg width="47" height="47" viewBox="0 0 47 47" fill="none"
    xmlns="http://www.w3.org/2000/svg">
    <rect width="47" height="47" rx="10"
        fill="url(#paint0_linear_44_2284)" />
    <g clip-path="url(#clip0_44_2284)">
        <path fill-rule="evenodd" clip-rule="evenodd"
            d="M20.9688 30.25C22.1876 30.25 23.3945 30.0099 24.5205 29.5435C25.6466 29.0771 26.6697 28.3934 27.5316 27.5316C28.3934 26.6697 29.0771 25.6466 29.5435 24.5205C30.0099 23.3945 30.25 22.1876 30.25 20.9688C30.25 19.7499 30.0099 18.543 29.5435 17.417C29.0771 16.2909 28.3934 15.2678 27.5316 14.4059C26.6697 13.5441 25.6466 12.8604 24.5205 12.394C23.3945 11.9276 22.1876 11.6875 20.9688 11.6875C18.5072 11.6875 16.1465 12.6653 14.4059 14.4059C12.6653 16.1465 11.6875 18.5072 11.6875 20.9688C11.6875 23.4303 12.6653 25.791 14.4059 27.5316C16.1465 29.2722 18.5072 30.25 20.9688 30.25ZM31.9375 20.9688C31.9375 23.8778 30.7819 26.6678 28.7248 28.7248C26.6678 30.7819 23.8778 31.9375 20.9688 31.9375C18.0597 31.9375 15.2697 30.7819 13.2127 28.7248C11.1556 26.6678 10 23.8778 10 20.9688C10 18.0597 11.1556 15.2697 13.2127 13.2127C15.2697 11.1556 18.0597 10 20.9688 10C23.8778 10 26.6678 11.1556 28.7248 13.2127C30.7819 15.2697 31.9375 18.0597 31.9375 20.9688Z"
            fill="white" />
        <path
            d="M27.4556 29.8146C27.5051 29.8821 27.5602 29.9468 27.6209 30.0087L34.1178 36.5056C34.4342 36.8222 34.8635 37.0002 35.3111 37.0004C35.7588 37.0005 36.1881 36.8228 36.5048 36.5064C36.8214 36.19 36.9994 35.7608 36.9996 35.3131C36.9997 34.8655 36.822 34.4361 36.5056 34.1195L30.0088 27.6226C29.9485 27.5615 29.8836 27.5051 29.8147 27.4538C29.1535 28.3571 28.3579 29.1538 27.4556 29.8163V29.8146Z"
            fill="white" />
        <path fill-rule="evenodd" clip-rule="evenodd"
            d="M20.9688 15.0625C21.1925 15.0625 21.4071 15.1514 21.5654 15.3096C21.7236 15.4679 21.8125 15.6825 21.8125 15.9062V20.125H26.0312C26.255 20.125 26.4696 20.2139 26.6279 20.3721C26.7861 20.5304 26.875 20.745 26.875 20.9688C26.875 21.1925 26.7861 21.4071 26.6279 21.5654C26.4696 21.7236 26.255 21.8125 26.0312 21.8125H21.8125V26.0312C21.8125 26.255 21.7236 26.4696 21.5654 26.6279C21.4071 26.7861 21.1925 26.875 20.9688 26.875C20.745 26.875 20.5304 26.7861 20.3721 26.6279C20.2139 26.4696 20.125 26.255 20.125 26.0312V21.8125H15.9062C15.6825 21.8125 15.4679 21.7236 15.3096 21.5654C15.1514 21.4071 15.0625 21.1925 15.0625 20.9688C15.0625 20.745 15.1514 20.5304 15.3096 20.3721C15.4679 20.2139 15.6825 20.125 15.9062 20.125H20.125V15.9062C20.125 15.6825 20.2139 15.4679 20.3721 15.3096C20.5304 15.1514 20.745 15.0625 20.9688 15.0625Z"
            fill="white" />
    </g>
    <defs>
        <linearGradient id="paint0_linear_44_2284" x1="23.5" y1="26.5"
            x2="43.5" y2="4.5" gradientUnits="userSpaceOnUse">
            <stop stop-color="#5B1977" />
            <stop offset="1" stop-color="#A92EDD" />
        </linearGradient>
        <clipPath id="clip0_44_2284">
            <rect x="10" y="10" width="27" height="27" rx="10"
                fill="white" />
        </clipPath>
    </defs>
</svg>