<svg width="47" height="47" viewBox="0 0 47 47" fill="none" xmlns="http://www.w3.org/2000/svg">
<path d="M-0.000976562 10C-0.000976562 4.47715 4.47618 0 9.99902 0H36.9985C42.5213 0 46.9985 4.47715 46.9985 10V37C46.9985 42.5228 42.5213 47 36.9985 47H9.99901C4.47617 47 -0.000976562 42.5228 -0.000976562 37V10Z" fill="url(#paint0_linear_44_2279)"/>
<path d="M13.5991 9.9H13.599H10.899C10.6338 9.9 10.3795 10.0054 10.1919 10.1929C10.0044 10.3804 9.89902 10.6348 9.89902 10.9C9.89902 11.1652 10.0044 11.4196 10.1919 11.6071C10.3795 11.7946 10.6338 11.9 10.899 11.9H12.8189L13.5193 14.7139L16.2169 29.084C16.2598 29.3132 16.3814 29.5201 16.5608 29.6691C16.7401 29.8181 16.9658 29.8998 17.1989 29.9H17.199H17.799C17.2707 30.0812 16.7851 30.3813 16.3827 30.7837C15.6888 31.4776 15.299 32.4187 15.299 33.4C15.299 34.3813 15.6888 35.3224 16.3827 36.0163C17.0766 36.7102 18.0177 37.1 18.999 37.1C19.9803 37.1 20.9214 36.7102 21.6153 36.0163C22.3092 35.3224 22.699 34.3813 22.699 33.4C22.699 32.4187 22.3092 31.4776 21.6153 30.7837C21.2129 30.3813 20.7274 30.0812 20.199 29.9H30.399C29.8707 30.0812 29.3851 30.3813 28.9827 30.7837C28.2888 31.4776 27.899 32.4187 27.899 33.4C27.899 34.3813 28.2888 35.3224 28.9827 36.0163C29.6766 36.7102 30.6177 37.1 31.599 37.1C32.5803 37.1 33.5214 36.7102 34.2153 36.0163C34.9092 35.3224 35.299 34.3813 35.299 33.4C35.299 32.4187 34.9092 31.4776 34.2153 30.7837C33.8129 30.3813 33.3274 30.0812 32.799 29.9H33.399C33.6642 29.9 33.9186 29.7946 34.1061 29.6071C34.2937 29.4196 34.399 29.1652 34.399 28.9C34.399 28.6348 34.2937 28.3804 34.1061 28.1929C33.9186 28.0054 33.6642 27.9 33.399 27.9H18.029L17.5488 25.3419L34.349 24.4981L34.3491 24.4981C34.5712 24.4868 34.7832 24.4019 34.9517 24.2566C35.1201 24.1114 35.2353 23.9141 35.2791 23.6961L35.2791 23.696L37.0791 14.696C37.1081 14.551 37.1045 14.4013 37.0687 14.2578C37.0329 14.1144 36.9657 13.9806 36.872 13.8662L36.7946 13.9296L36.872 13.8662C36.7782 13.7518 36.6603 13.6596 36.5267 13.5963C36.393 13.533 36.247 13.5001 36.0991 13.5H36.099H15.2791L14.5691 10.658C14.5151 10.4416 14.3903 10.2494 14.2145 10.112C14.0388 9.9747 13.8221 9.90006 13.5991 9.9ZM17.1768 23.3579L15.7031 15.5H34.879L33.471 22.54L17.1768 23.3579ZM18.999 31.7C19.4499 31.7 19.8823 31.8791 20.2011 32.1979C20.5199 32.5167 20.699 32.9491 20.699 33.4C20.699 33.8509 20.5199 34.2833 20.2011 34.6021C19.8823 34.9209 19.4499 35.1 18.999 35.1C18.5482 35.1 18.1158 34.9209 17.7969 34.6021C17.4781 34.2833 17.299 33.8509 17.299 33.4C17.299 32.9491 17.4781 32.5167 17.7969 32.1979C18.1158 31.8791 18.5482 31.7 18.999 31.7ZM31.599 31.7C32.0499 31.7 32.4823 31.8791 32.8011 32.1979C33.1199 32.5167 33.299 32.9491 33.299 33.4C33.299 33.8509 33.1199 34.2833 32.8011 34.6021C32.4823 34.9209 32.0499 35.1 31.599 35.1C31.1482 35.1 30.7158 34.9209 30.3969 34.6021C30.0781 34.2833 29.899 33.8509 29.899 33.4C29.899 32.9491 30.0781 32.5167 30.3969 32.1979C30.7158 31.8791 31.1482 31.7 31.599 31.7Z" fill="white" stroke="white" stroke-width="0.2"/>
<defs>
<linearGradient id="paint0_linear_44_2279" x1="23.4988" y1="26.5" x2="43.4988" y2="4.50023" gradientUnits="userSpaceOnUse">
<stop stop-color="#5B1977"/>
<stop offset="1" stop-color="#A92EDD"/>
</linearGradient>
</defs>
</svg>
