<svg width="47" height="47" viewBox="0 0 47 47" fill="none" xmlns="http://www.w3.org/2000/svg">
<path d="M0 10.8437C0 5.32086 4.47715 0.843719 10 0.843719H36.9992C42.522 0.843719 46.9992 5.32087 46.9992 10.8437V36.1563C46.9992 41.6792 42.522 46.1563 36.9992 46.1563H10C4.47716 46.1563 0 41.6792 0 36.1563V10.8437Z" fill="url(#paint0_linear_44_2280)"/>
<path d="M23.4998 15.4811L22.2899 14.2374C19.4498 11.318 14.2422 12.3254 12.3623 15.9957C11.4798 17.7221 11.2806 20.2145 12.8922 23.3954C14.4447 26.4582 17.6746 30.1269 23.4998 34.1229C29.3251 30.1269 32.5533 26.4582 34.1074 23.3954C35.719 20.2128 35.5216 17.7221 34.6373 15.9957C32.7574 12.3254 27.5498 11.3163 24.7098 14.2357L23.4998 15.4811ZM23.4998 36.1563C-2.37461 19.0586 15.5331 5.7138 23.2028 12.7726C23.3041 12.866 23.4031 12.9622 23.4998 13.0612C23.5949 12.9616 23.694 12.8658 23.7968 12.7743C31.4648 5.71043 49.3743 19.0569 23.4998 36.1563Z" fill="white"/>
<defs>
<linearGradient id="paint0_linear_44_2280" x1="23.4996" y1="26.3923" x2="42.702" y2="4.48342" gradientUnits="userSpaceOnUse">
<stop stop-color="#5B1977"/>
<stop offset="1" stop-color="#A92EDD"/>
</linearGradient>
</defs>
</svg>
