<svg width="56" height="47" viewBox="0 0 56 47" fill="none" xmlns="http://www.w3.org/2000/svg">
<path d="M-0.000976562 10C-0.000976562 4.47715 4.47618 0 9.99902 0H45.999C51.5219 0 55.999 4.47715 55.999 10V37C55.999 42.5228 51.5219 47 45.999 47H9.99902C4.47617 47 -0.000976562 42.5228 -0.000976562 37V10Z" fill="url(#paint0_linear_44_2273)"/>
<path fill-rule="evenodd" clip-rule="evenodd" d="M11.317 11.318C10.4731 12.1619 9.99902 13.3065 9.99902 14.5V32.5C9.99902 33.6935 10.4731 34.8381 11.317 35.682C12.161 36.5259 13.3055 37 14.499 37H41.499C42.6925 37 43.8371 36.5259 44.681 35.682C45.5249 34.8381 45.999 33.6935 45.999 32.5V14.5C45.999 13.3065 45.5249 12.1619 44.681 11.318C43.8371 10.4741 42.6925 10 41.499 10H14.499C13.3055 10 12.161 10.4741 11.317 11.318ZM12.908 12.909C13.33 12.4871 13.9023 12.25 14.499 12.25H41.499C42.0958 12.25 42.6681 12.4871 43.09 12.909C43.512 13.331 43.749 13.9033 43.749 14.5V16.75H12.249V14.5C12.249 13.9033 12.4861 13.331 12.908 12.909ZM12.249 21.25H43.749V32.5C43.749 33.0967 43.512 33.669 43.09 34.091C42.6681 34.5129 42.0958 34.75 41.499 34.75H14.499C13.9023 34.75 13.33 34.5129 12.908 34.091C12.4861 33.669 12.249 33.0967 12.249 32.5V21.25ZM15.158 26.409C14.7361 26.831 14.499 27.4033 14.499 28V30.25C14.499 30.8467 14.7361 31.419 15.158 31.841C15.58 32.2629 16.1523 32.5 16.749 32.5H18.999C19.5958 32.5 20.1681 32.2629 20.59 31.841C21.012 31.419 21.249 30.8467 21.249 30.25V28C21.249 27.4033 21.012 26.831 20.59 26.409C20.1681 25.9871 19.5958 25.75 18.999 25.75H16.749C16.1523 25.75 15.58 25.9871 15.158 26.409Z" fill="white"/>
<defs>
<linearGradient id="paint0_linear_44_2273" x1="27.999" y1="26.5" x2="47.3766" y2="1.10302" gradientUnits="userSpaceOnUse">
<stop stop-color="#5B1977"/>
<stop offset="1" stop-color="#A92EDD"/>
</linearGradient>
</defs>
</svg>
