<svg width="73" height="53" viewBox="0 0 73 53" fill="none" xmlns="http://www.w3.org/2000/svg">
<path d="M59.1602 40.9492L57.902 40.9492L7.57559 40.9492L0.655705 45.1979L2.70021 46.4568L7.57559 49.4467L57.902 49.4467L59.1602 49.4467L59.1602 40.9492ZM57.902 44.7259L57.902 45.8274L8.36194 45.8274L8.36194 44.7259L57.902 44.7259ZM57.902 42.3655L57.902 43.3096L8.36194 43.3096L8.36194 42.3655L57.902 42.3655ZM4.43019 45.9848L4.43019 44.4111L7.10377 42.8375L7.10377 47.5584L4.43019 45.9848ZM8.36194 48.0304L8.36194 47.0863L57.902 47.0863L57.902 48.0304L8.36194 48.0304Z" fill="#1E77BA"/>
<path d="M40.6024 2.55327L40.6024 0.350223L61.0475 0.350224C67.4955 0.192864 73 5.38576 73 11.9949L73 45.9847L65.9228 45.9847L65.9228 43.7817L70.6409 43.7817L70.6409 11.9949C70.4837 6.64464 66.2374 2.39591 60.8902 2.55327L40.6024 2.55327Z" fill="#36C3F2"/>
<path d="M65.1367 49.2893L65.1367 41.1066L60.5759 41.1066L60.5759 49.2893L65.1367 49.2893Z" fill="#1E77BA"/>
<path d="M63.7212 51.4924L63.7212 49.2893L61.9912 49.2893L61.9912 51.4924L63.7212 51.4924Z" fill="#1E77BA"/>
<path d="M63.7212 52.1218L63.7212 51.335L53.4986 51.335L53.4986 52.1218L63.7212 52.1218Z" fill="#1E77BA"/>
</svg>
