<!-- Generator: Adobe Illustrator 25.2.3, SVG Export Plug-In  -->
<svg version="1.1" xmlns="http://www.w3.org/2000/svg" xmlns:xlink="http://www.w3.org/1999/xlink" x="0px" y="0px" width="444.5px"
	 height="397.7px" viewBox="0 0 444.5 397.7" style="overflow:visible;enable-background:new 0 0 444.5 397.7;"
	 xml:space="preserve">
<style type="text/css">
	.st0{fill:#FFFFFF;}
</style>
<defs>
</defs>
<path class="st0" d="M444.5,0c-0.1,2.3-0.3,4.6-0.3,6.9c0,109.4,0,218.8,0,328.2c0,2.1,0,4.3,0,6.8c-49.8,0-99.2,0-148.9,0
	c0-7.5,0-14.9,0-22.9c41.7,0,83.1,0,125,0c0-98.6,0-196.6,0-295c-105.7,0-211.4,0-317.8,0c0,17.6,0,35.2,0,53.4c-7.5,0-14.3,0-21,0
	c-3.6,0-2.7-2.7-2.7-4.7c0-20.6,0-41.2,0-61.8c0-3.6-0.2-7.3-0.3-10.9C200.4,0,322.4,0,444.5,0z"/>
<path class="st0" d="M243.8,397.7c-7.3-1.2-13.9-2.5-20.5-3.4c-3.8-0.5-2.7-3.2-2.7-5.3c-0.1-20.9,0-41.9-0.1-62.8
	c0-5.1-0.3-10.3-1.4-15.3c-5-22.6-25.2-39.2-48.3-39.5c-31.6-0.3-63.2-0.4-94.8-0.1c-30.5,0.3-52.1,22.3-52.4,52.9
	c-0.2,21.1,0,42.2,0,63.3c0,2,0,3.9,0,6.7c-7.3,0-14.2,0.2-21.1-0.2c-0.9-0.1-2.2-3.2-2.2-4.9C0,367.4,0,345.8,0.1,324.2
	c0-4.5,0.2-9,1-13.4c6.2-35.4,32.9-61,69.2-62.6c35.8-1.6,71.8-1.4,107.7,0.5c35.9,1.9,65.1,34.9,65.9,70.8c0.1,5.8,0,11.6,0,17.4
	c0.4,0.1,0.8,0.3,1.2,0.4c11.3-25.3,22.7-50.6,34-75.9c11.4-25.4,22.8-50.8,34.5-76.9c7.1,3.2,13.9,6.2,21.5,9.6
	C304.4,262.4,273.9,330.6,243.8,397.7z"/>
<path class="st0" d="M122,239.6c-39.9-0.1-72.3-32.4-72.4-72.2c-0.1-40.1,32.6-72.6,73.1-72.5c39.3,0.1,71.9,32.9,71.9,72.3
	C194.7,207.2,162,239.7,122,239.6z M122,118.4c-26.9,0-48.9,22-48.8,48.8c0,26.8,22,48.9,48.7,49c26.8,0.1,49.2-22.3,49.2-49.2
	C171,140.3,148.9,118.4,122,118.4z"/>
</svg>
