<svg width="67" height="70" viewBox="0 0 67 70" fill="none" xmlns="http://www.w3.org/2000/svg">
<path fill-rule="evenodd" clip-rule="evenodd" d="M32.3642 4.93151C32.3779 5.71233 32.7615 6.16438 33.419 6.17808C34.104 6.19178 34.5423 5.72603 34.5423 4.93151C34.5478 4.488 34.5445 4.0423 34.5412 3.59617V3.59567C34.5363 2.92581 34.5314 2.25496 34.556 1.58904C34.5834 0.917808 34.419 0.383562 33.8574 0H33.0355C32.4738 0.383562 32.3095 0.917808 32.3368 1.58904C32.3717 2.2953 32.3678 3.0071 32.3638 3.71739V3.71786V3.71832V3.71878C32.3615 4.12396 32.3593 4.52864 32.3642 4.93151ZM66.83 61.0822C66.1998 57.2329 64.2546 54.2192 60.9944 52.0822C60.4375 51.7262 59.8442 51.4249 59.2549 51.1257C58.9599 50.9759 58.6659 50.8266 58.3779 50.6712C62.2546 47.2877 61.5012 42.4247 58.9396 39.9178C56.1588 37.2055 51.7752 37.1781 48.9396 39.8767C46.3916 42.3014 45.5012 47.2192 49.419 50.6712C48.2136 51.3425 46.9807 52.0274 45.7067 52.726C43.7478 50.4932 41.2957 48.8767 38.3642 47.9041C43.3368 44.1918 43.0492 38.0274 39.8985 34.6438C36.6793 31.1918 31.2409 30.8493 27.7478 33.9178C25.9533 35.4932 24.8848 37.4658 24.7067 39.8356C24.4601 43.1918 25.83 45.8356 28.556 47.8904C25.556 48.863 23.1177 50.5206 21.1725 52.7123C20.345 52.2546 19.5459 51.8082 18.7605 51.3694L18.755 51.3664L18.7449 51.3608C18.3133 51.1197 17.8859 50.8809 17.4601 50.6438C21.1451 47.4247 20.6519 42.7808 18.2546 40.1781C15.693 37.3973 11.3916 37.0685 8.43272 39.4932C6.93957 40.726 6.06286 42.3151 5.87108 44.2329C5.59711 46.8493 6.59711 48.9726 8.54231 50.6575C8.51134 50.6963 8.4935 50.7218 8.48137 50.7392L8.48133 50.7393C8.47202 50.7527 8.46607 50.7612 8.46012 50.7671C8.37793 50.8082 8.29574 50.8493 8.21355 50.8767C3.59711 52.8493 0.829985 56.274 0.0354648 61.2603C-0.128919 62.411 0.268341 62.8767 1.43273 62.8767H16.4053H17.282V64.5753C17.3094 67.8493 19.4601 70 22.7478 70H44.1451C47.4738 70 49.6108 67.863 49.6382 64.5343V62.8767H50.556C51.7923 62.8767 53.0286 62.8759 54.2649 62.875C57.9738 62.8724 61.6827 62.8699 65.3916 62.8904C66.104 62.8904 66.6245 62.6986 66.967 62.0685V61.3836C66.9122 61.2877 66.8574 61.1918 66.83 61.0822ZM48.9259 44.9726C48.9533 42.2466 51.1861 40.0411 53.9259 40.0548C56.6519 40.0685 58.8848 42.2877 58.8711 45.0274C58.8711 47.7397 56.6382 49.9863 53.9122 50C51.1861 50 48.8985 47.7123 48.9259 44.9726ZM26.8848 40.5206C26.8985 36.8904 29.8437 33.9863 33.4875 34C37.1588 34.0137 40.0629 36.9589 40.0355 40.6438C40.0081 44.2466 37.0081 47.1918 33.4053 47.1507C29.7752 47.1096 26.8711 44.137 26.8848 40.5206ZM8.02177 44.9726C8.03546 42.2466 10.2683 40.0411 13.0081 40.0411C15.7341 40.0411 17.967 42.274 17.967 45C17.967 47.7123 15.7341 49.9589 13.0081 49.9726C10.282 50 8.00807 47.726 8.02177 44.9726ZM18.3094 57.5206C18.0314 58.2354 17.8182 58.979 17.5967 59.7515C17.5126 60.0448 17.4273 60.3422 17.3368 60.6438H2.37793C3.25464 57.1507 5.28204 54.6438 8.52861 53.137C12.2272 51.4247 17.2272 52.0959 19.7204 54.5616C19.6145 54.7734 19.5073 54.984 19.4004 55.1941C19.0094 55.9623 18.6214 56.7245 18.3094 57.5206ZM47.3916 65.2877C47.2957 66.7397 45.9807 67.8082 44.3916 67.8082C41.9624 67.8174 39.5332 67.8143 37.104 67.8113C35.8893 67.8097 34.6747 67.8082 33.4601 67.8082H22.7341C20.6656 67.8082 19.556 66.6164 19.4601 64.5343C19.3231 61.4521 19.8574 58.5617 21.5149 55.9178C24.6519 50.9041 30.5971 48.3973 36.4738 49.6438C42.104 50.8356 46.5834 55.548 47.3642 61.2603C47.5423 62.5891 47.4738 63.9452 47.3916 65.2877ZM49.7204 60.6712L49.5397 60.2057L49.539 60.2039L49.539 60.2039L49.5386 60.2028C48.7944 58.2855 48.0675 56.4127 47.282 54.411C50.1451 52.2466 53.5012 51.548 57.1314 52.6712C61.0355 53.8904 63.4464 56.6164 64.556 60.6575C59.4875 60.6712 54.5286 60.6712 49.7204 60.6712ZM23.4327 18.2603C22.7478 17.6986 22.556 17.1644 22.7615 16.4795C22.9807 15.7671 23.4738 15.3973 24.3642 15.3562L24.4844 15.3503L24.4846 15.3502C26.1151 15.27 27.7328 15.1905 29.3505 15.137C29.8026 15.1233 30.0355 14.9726 30.1862 14.5342C30.4999 13.662 30.8307 12.7982 31.1619 11.9335L31.1619 11.9334L31.1619 11.9333C31.4237 11.25 31.6856 10.566 31.9396 9.87671C32.1999 9.15069 32.6656 8.72603 33.4327 8.68493C34.1314 8.65754 34.6656 9.06849 34.9807 9.89041C35.0603 10.0942 35.1403 10.298 35.2202 10.5018L35.2202 10.502C35.7313 11.8052 36.2429 13.1098 36.693 14.4247C36.8848 14.9863 37.1862 15.1507 37.7204 15.1644C39.3231 15.2055 40.9122 15.274 42.5012 15.3699C43.8574 15.4384 44.6245 16.5616 44.0492 17.6301C43.9122 17.9041 43.6656 18.137 43.419 18.3288C42.1451 19.3699 40.8711 20.411 39.5834 21.411C39.2546 21.6712 39.1588 21.9041 39.282 22.3288C39.7615 23.9863 40.1999 25.6575 40.6382 27.3288C40.9122 28.3836 40.2136 29.3014 38.9533 29.3151C38.9156 29.2994 38.8671 29.2815 38.811 29.2608L38.8108 29.2607L38.8107 29.2607L38.8107 29.2607C38.6219 29.1912 38.3467 29.0898 38.104 28.9315C36.7204 28.0548 35.3505 27.1644 33.9944 26.2329C33.5834 25.9452 33.3094 25.9726 32.9122 26.2466C31.8447 26.9619 30.7684 27.6595 29.6974 28.3537L29.6926 28.3568C29.4321 28.5257 29.1719 28.6943 28.9122 28.863C28.0766 29.411 27.419 29.4521 26.83 29C26.1588 28.4795 26.1177 27.8082 26.3368 27.0411C26.5629 26.2672 26.7717 25.4864 26.9806 24.7056L26.9807 24.7055L26.9807 24.7055L26.9807 24.7054L26.9807 24.7054C27.1896 23.9246 27.3985 23.1438 27.6245 22.3699C27.7478 21.9315 27.693 21.6712 27.3231 21.3836C26.2926 20.5785 25.2789 19.7566 24.2689 18.9376L24.2688 18.9376L24.2688 18.9375L24.2679 18.9368L24.2669 18.936C23.9887 18.7104 23.7107 18.485 23.4327 18.2603ZM31.9807 15.9315C31.6656 16.8219 31.0903 17.2329 30.1451 17.2603C29.2222 17.2791 28.3059 17.3368 27.3381 17.3977L27.3377 17.3977L27.3376 17.3977C26.8977 17.4254 26.4472 17.4538 25.9807 17.4795C26.3375 17.7667 26.675 18.0456 27.002 18.3158L27.0022 18.316L27.0023 18.3161L27.0023 18.3161C27.7043 18.8963 28.3576 19.4362 29.0492 19.9315C30.0081 20.6164 30.2409 21.4247 29.8711 22.5342C29.5937 23.3765 29.3736 24.233 29.1538 25.0883C29.0697 25.4155 28.9857 25.7425 28.8985 26.0685L29.0629 26.1507C29.5141 25.8662 29.9584 25.5747 30.4056 25.2812L30.4059 25.281C30.5831 25.1647 30.7608 25.0481 30.9396 24.9315C31.1917 24.7664 31.4165 24.616 31.6192 24.4804L31.6192 24.4804L31.6192 24.4804C32.5176 23.8795 32.9797 23.5704 33.4464 23.5634C33.9406 23.5559 34.4399 23.8873 35.468 24.5697L35.468 24.5698C35.6297 24.6771 35.8045 24.7931 35.9944 24.9178C36.4708 25.2389 36.955 25.5521 37.5003 25.9048L37.5031 25.9066C37.6782 26.0199 37.8597 26.1373 38.0492 26.2603C38.0178 26.1138 37.9944 25.9953 37.9744 25.894C37.9421 25.7302 37.9187 25.6117 37.8848 25.4932C37.8204 25.2486 37.7576 25.0041 37.6949 24.76L37.6948 24.7599L37.6948 24.7599C37.4904 23.9645 37.287 23.1729 37.0355 22.3973C36.7204 21.3973 36.9259 20.6438 37.7889 20.0137C38.5456 19.4661 39.2733 18.8678 40.0563 18.2242L40.0565 18.224L40.0566 18.2239C40.3508 17.9821 40.6527 17.7338 40.967 17.4795C40.5134 17.4538 40.0785 17.4228 39.6564 17.3926L39.6562 17.3926C38.7274 17.3264 37.8609 17.2646 36.9944 17.274C35.83 17.2877 35.2136 16.7534 34.8574 15.6849C34.5942 14.9044 34.2949 14.1359 33.9755 13.3157L33.9754 13.3156C33.8128 12.8978 33.6449 12.4667 33.4738 12.0137C33.2841 12.5118 33.0993 12.9852 32.9205 13.4431C32.5831 14.3076 32.2672 15.1166 31.9807 15.9315ZM40.0641 11.9135L40.0642 11.9135C40.2483 11.8514 40.3927 11.8028 40.5012 11.7123C42.0355 10.3562 43.556 8.98629 45.0629 7.60273C45.5012 7.19177 45.4875 6.53424 45.1177 6.12328C44.7341 5.68492 44.1177 5.58903 43.6519 5.98629C42.0903 7.35615 40.5423 8.72602 39.0492 10.1644C38.8163 10.3835 38.7752 11 38.8985 11.3425C38.9816 11.5364 39.2141 11.6805 39.4408 11.821L39.4408 11.821C39.5504 11.8889 39.6585 11.956 39.7478 12.0274C39.8641 11.9809 39.9694 11.9454 40.0641 11.9135ZM24.1108 9.65069C23.3916 9.00343 22.6725 8.35617 21.9533 7.71234C21.5423 7.35617 21.3642 6.89042 21.6245 6.42466C21.7485 6.19574 21.9788 6.01996 22.2182 5.83718C22.3226 5.75746 22.4288 5.67641 22.5286 5.58905C22.6506 5.6544 22.7629 5.70867 22.8659 5.75846C23.0869 5.86522 23.2652 5.95142 23.4053 6.0822C24.8574 7.35617 26.2957 8.65754 27.7204 9.95891C28.2546 10.4521 28.2957 11.1233 27.8574 11.589C27.4327 12.0411 26.7889 12.0548 26.2683 11.589C25.5492 10.9452 24.83 10.298 24.1108 9.65069Z" fill="#FEFEFE"/>
</svg>
