<svg width="24" height="24" viewBox="0 0 24 33" fill="none"
    xmlns="http://www.w3.org/2000/svg">
    <path
        d="M24 13.6C24 18 24 22.4 24 26.7C24 27 23.9 27.1 23.6 27.1C23.5 27.1 23.5 27.2 23.4 27.2C22.7 28.5 22.7 29.9 23.4 31.2C23.4 31.2 23.5 31.3 23.6 31.3C23.9 31.3 24 31.4 24 31.7C24 32 24 32.3 24 32.6C24 32.9 23.9 33 23.6 33C20.7 33 17.8 33 14.9 33C11.2 33 7.6 33 3.9 33C1.7 33 0 31.3 0 29.1C0 24.6 0 20 0 15.5C0 11.6 0 7.7 0 3.7C0 2 1.2 0.5 2.9 0.1C3.2 0 3.5 0 3.8 0C10.4 0 17 0 23.5 0C23.9 0 24 0.1 24 0.5C24 4.8 24 9.2 24 13.6ZM23.4 25.4C23.4 17.1 23.4 8.9 23.4 0.6C16.8 0.6 10.2 0.6 3.5 0.6C3.5 8.9 3.5 17.1 3.5 25.4C10.1 25.4 16.7 25.4 23.4 25.4ZM22.7 27.2C22.6 27.2 22.5 27.2 22.4 27.2C16.3 27.2 10.1 27.2 4 27.2C3.9 27.2 3.8 27.2 3.7 27.2C2.6 27.2 1.7 28.1 1.7 29.2C1.6 30.5 2.6 31.4 3.9 31.4C10.1 31.4 16.4 31.4 22.6 31.4C22.7 31.4 22.7 31.4 22.8 31.4C22.7 31.1 22.6 30.8 22.5 30.5C22.5 30.3 22.4 30.3 22.2 30.3C16.9 30.3 11.7 30.3 6.4 30.3C6.3 30.3 6.2 30.3 6 30.3C5.8 30.3 5.7 30.2 5.7 30C5.7 29.8 5.8 29.7 6 29.7C6.1 29.7 6.2 29.7 6.4 29.7C11.6 29.7 16.8 29.7 22 29.7C22.1 29.7 22.2 29.7 22.3 29.7C22.3 29.4 22.3 29.2 22.3 28.9C22.2 28.9 22.2 28.9 22.1 28.9C16.4 28.9 10.7 28.9 4.9 28.9C4.8 28.9 4.8 28.9 4.7 28.9C4.5 28.9 4.4 28.7 4.4 28.6C4.4 28.4 4.5 28.3 4.7 28.3C4.8 28.3 4.9 28.3 4.9 28.3C10.6 28.3 16.3 28.3 21.9 28.3C22 28.3 22.1 28.3 22.2 28.3C22.2 28.3 22.3 28.3 22.3 28.2C22.5 27.8 22.6 27.5 22.7 27.2ZM2.8 0.8C2.7 0.8 2.7 0.8 2.6 0.9C1.4 1.4 0.6 2.5 0.6 3.9C0.6 9.2 0.6 14.5 0.6 19.8C0.6 22.2 0.6 24.6 0.6 26.9C0.6 27 0.6 27 0.6 27.1C0.7 27.1 0.7 27 0.8 27C1.3 26.4 1.9 25.9 2.6 25.7C2.8 25.6 2.8 25.6 2.8 25.4C2.8 17.3 2.8 9.2 2.8 1.1C2.8 1 2.8 0.9 2.8 0.8ZM23.4 32C23.3 32 23.1 32 23 32C16.7 32 10.3 32 4 32C3.9 32 3.8 32 3.7 32C2.6 31.9 1.7 31.4 1.3 30.4C0.8 29.4 1 28.4 1.7 27.5C2.3 26.8 3 26.5 3.9 26.5C10.3 26.5 16.7 26.5 23.1 26.5C23.2 26.5 23.3 26.5 23.3 26.5C23.3 26.3 23.3 26.2 23.3 26.1C23.2 26.1 23.2 26.1 23.1 26.1C16.6 26.1 10.2 26.1 3.7 26.1C3.4 26.1 3.2 26.1 2.9 26.2C1.4 26.6 0.4 28.1 0.6 29.6C0.8 31.2 2.1 32.4 3.7 32.4C10.2 32.4 16.6 32.4 23.1 32.4C23.2 32.4 23.2 32.4 23.3 32.4C23.4 32.3 23.4 32.2 23.4 32Z"
        fill="black" />
    <path
        d="M13.3998 6.40002C16.6998 6.40002 19.4998 9.10002 19.4998 12.5C19.4998 15.9 16.7998 18.7 13.3998 18.7C9.9998 18.7 7.2998 16 7.2998 12.5C7.2998 9.20002 9.9998 6.40002 13.3998 6.40002ZM13.3998 7.10002C10.3998 7.10002 7.8998 9.60002 7.8998 12.6C7.8998 15.7 10.2998 18.2 13.3998 18.2C16.3998 18.2 18.8998 15.7 18.8998 12.6C18.8998 9.60002 16.3998 7.10002 13.3998 7.10002Z"
        fill="black" />
    <path
        d="M11.3999 12.6C11.3999 11.6 11.3999 10.5 11.3999 9.50001C11.3999 9.30001 11.3999 9.20002 11.5999 9.10002C11.6999 9.00002 11.8999 9.10001 11.9999 9.20001C13.5999 10.2 15.1999 11.3 16.8999 12.3C17.1999 12.5 17.1999 12.7 16.8999 12.9C15.2999 13.9 13.6999 15 11.9999 16C11.8999 16.1 11.6999 16.1 11.5999 16C11.4999 15.9 11.3999 15.8 11.3999 15.6C11.3999 14.7 11.3999 13.6 11.3999 12.6ZM12.0999 15.2C13.4999 14.3 14.7999 13.4 16.1999 12.6C14.7999 11.7 13.4999 10.8 12.0999 10C12.0999 11.7 12.0999 13.5 12.0999 15.2Z"
        fill="black" />
</svg>