<svg width="1439" height="224" viewBox="0 0 1439 224" fill="none" xmlns="http://www.w3.org/2000/svg">
<mask id="mask0_115_3" style="mask-type:luminance" maskUnits="userSpaceOnUse" x="0" y="0" width="1439" height="224">
<path d="M1439 0H0V223.5H1439V0Z" fill="white"/>
</mask>
<g mask="url(#mask0_115_3)">
<path d="M1439 0H0V223.5H1439V0Z" fill="#F4FBFF"/>
</g>
<mask id="mask1_115_3" style="mask-type:luminance" maskUnits="userSpaceOnUse" x="0" y="0" width="1439" height="224">
<path d="M1439 0H0V223.5H1439V0Z" fill="white"/>
</mask>
<g mask="url(#mask1_115_3)">
<path d="M251.5 149.9L275 163.6L300 149.9L323.5 163.6L347.5 150.4L371.5 163.6L394.5 150.4" stroke="#01BFFF" stroke-width="2" stroke-miterlimit="10"/>
<path d="M251.5 161.4L275 175.1L300 161.4L323.5 175.1L347.5 161.9L371.5 175.1L394.5 161.9" stroke="#01BFFF" stroke-width="2" stroke-miterlimit="10"/>
<path d="M251.5 172.9L275 186.6L300 172.9L323.5 186.6L347.5 173.4L371.5 186.6L394.5 173.4" stroke="#01BFFF" stroke-width="2" stroke-miterlimit="10"/>
<path d="M251.5 184.4L275 198.1L300 184.4L323.5 198.1L347.5 184.9L371.5 198.1L394.5 184.9" stroke="#01BFFF" stroke-width="2" stroke-miterlimit="10"/>
<path d="M431.6 225.8C433 218.4 433.8 210.7 433.8 202.9C433.8 136.4 379.9 82.5 313.4 82.5C246.9 82.5 193 136.4 193 202.9C193 210.7 193.8 218.4 195.2 225.8H431.6Z" stroke="#CBEFFF" stroke-width="2" stroke-miterlimit="10"/>
</g>
<mask id="mask2_115_3" style="mask-type:luminance" maskUnits="userSpaceOnUse" x="0" y="0" width="1439" height="224">
<path d="M1439 0H0V223.5H1439V0Z" fill="white"/>
</mask>
<g mask="url(#mask2_115_3)">
<path d="M109.2 78.5001C111.078 78.5001 112.6 76.9778 112.6 75.1001C112.6 73.2223 111.078 71.7001 109.2 71.7001C107.322 71.7001 105.8 73.2223 105.8 75.1001C105.8 76.9778 107.322 78.5001 109.2 78.5001Z" stroke="#88E0FF" stroke-miterlimit="10"/>
<path d="M99.7999 95.4C101.678 95.4 103.2 93.8777 103.2 92C103.2 90.1222 101.678 88.6 99.7999 88.6C97.9221 88.6 96.3999 90.1222 96.3999 92C96.3999 93.8777 97.9221 95.4 99.7999 95.4Z" stroke="#88E0FF" stroke-miterlimit="10"/>
<path d="M90.4 111.9C92.2778 111.9 93.8 110.378 93.8 108.5C93.8 106.622 92.2778 105.1 90.4 105.1C88.5222 105.1 87 106.622 87 108.5C87 110.378 88.5222 111.9 90.4 111.9Z" stroke="#88E0FF" stroke-miterlimit="10"/>
<path d="M80.6002 128.8C82.478 128.8 84.0002 127.278 84.0002 125.4C84.0002 123.522 82.478 122 80.6002 122C78.7224 122 77.2002 123.522 77.2002 125.4C77.2002 127.278 78.7224 128.8 80.6002 128.8Z" stroke="#88E0FF" stroke-miterlimit="10"/>
<path d="M71.0001 145.6C72.8779 145.6 74.4001 144.078 74.4001 142.2C74.4001 140.322 72.8779 138.8 71.0001 138.8C69.1223 138.8 67.6001 140.322 67.6001 142.2C67.6001 144.078 69.1223 145.6 71.0001 145.6Z" stroke="#88E0FF" stroke-miterlimit="10"/>
<path d="M61.2999 162.5C63.1777 162.5 64.6999 160.978 64.6999 159.1C64.6999 157.222 63.1777 155.7 61.2999 155.7C59.4221 155.7 57.8999 157.222 57.8999 159.1C57.8999 160.978 59.4221 162.5 61.2999 162.5Z" stroke="#88E0FF" stroke-miterlimit="10"/>
<path d="M51.6998 179.2C53.5776 179.2 55.0998 177.678 55.0998 175.8C55.0998 173.922 53.5776 172.4 51.6998 172.4C49.822 172.4 48.2998 173.922 48.2998 175.8C48.2998 177.678 49.822 179.2 51.6998 179.2Z" stroke="#88E0FF" stroke-miterlimit="10"/>
<path d="M41.6998 195.8C43.5776 195.8 45.0998 194.278 45.0998 192.4C45.0998 190.522 43.5776 189 41.6998 189C39.822 189 38.2998 190.522 38.2998 192.4C38.2998 194.278 39.822 195.8 41.6998 195.8Z" stroke="#88E0FF" stroke-miterlimit="10"/>
<path d="M91.9 68.2C93.7778 68.2 95.3 66.6778 95.3 64.8C95.3 62.9223 93.7778 61.4 91.9 61.4C90.0222 61.4 88.5 62.9223 88.5 64.8C88.5 66.6778 90.0222 68.2 91.9 68.2Z" stroke="#88E0FF" stroke-miterlimit="10"/>
<path d="M82.5001 85.1C84.3779 85.1 85.9001 83.5778 85.9001 81.7C85.9001 79.8223 84.3779 78.3 82.5001 78.3C80.6223 78.3 79.1001 79.8223 79.1001 81.7C79.1001 83.5778 80.6223 85.1 82.5001 85.1Z" stroke="#88E0FF" stroke-miterlimit="10"/>
<path d="M73.1002 101.5C74.978 101.5 76.5002 99.9778 76.5002 98.1001C76.5002 96.2223 74.978 94.7001 73.1002 94.7001C71.2224 94.7001 69.7002 96.2223 69.7002 98.1001C69.7002 99.9778 71.2224 101.5 73.1002 101.5Z" stroke="#88E0FF" stroke-miterlimit="10"/>
<path d="M63.2999 118.5C65.1777 118.5 66.6999 116.978 66.6999 115.1C66.6999 113.222 65.1777 111.7 63.2999 111.7C61.4221 111.7 59.8999 113.222 59.8999 115.1C59.8999 116.978 61.4221 118.5 63.2999 118.5Z" stroke="#88E0FF" stroke-miterlimit="10"/>
<path d="M53.7999 135.3C55.6777 135.3 57.1999 133.778 57.1999 131.9C57.1999 130.022 55.6777 128.5 53.7999 128.5C51.9221 128.5 50.3999 130.022 50.3999 131.9C50.3999 133.778 51.9221 135.3 53.7999 135.3Z" stroke="#88E0FF" stroke-miterlimit="10"/>
<path d="M44.1002 152.2C45.978 152.2 47.5002 150.678 47.5002 148.8C47.5002 146.922 45.978 145.4 44.1002 145.4C42.2224 145.4 40.7002 146.922 40.7002 148.8C40.7002 150.678 42.2224 152.2 44.1002 152.2Z" stroke="#88E0FF" stroke-miterlimit="10"/>
<path d="M34.4 168.9C36.2778 168.9 37.8 167.378 37.8 165.5C37.8 163.622 36.2778 162.1 34.4 162.1C32.5222 162.1 31 163.622 31 165.5C31 167.378 32.5222 168.9 34.4 168.9Z" stroke="#88E0FF" stroke-miterlimit="10"/>
<path d="M24.4 185.5C26.2778 185.5 27.8 183.978 27.8 182.1C27.8 180.222 26.2778 178.7 24.4 178.7C22.5222 178.7 21 180.222 21 182.1C21 183.978 22.5222 185.5 24.4 185.5Z" stroke="#88E0FF" stroke-miterlimit="10"/>
<path d="M73.2999 57.6C75.1777 57.6 76.6999 56.0778 76.6999 54.2001C76.6999 52.3223 75.1777 50.8 73.2999 50.8C71.4221 50.8 69.8999 52.3223 69.8999 54.2001C69.8999 56.0778 71.4221 57.6 73.2999 57.6Z" stroke="#88E0FF" stroke-miterlimit="10"/>
<path d="M63.9 74.4C65.7778 74.4 67.3 72.8777 67.3 71C67.3 69.1222 65.7778 67.6 63.9 67.6C62.0222 67.6 60.5 69.1222 60.5 71C60.5 72.8777 62.0222 74.4 63.9 74.4Z" stroke="#88E0FF" stroke-miterlimit="10"/>
<path d="M54.5001 90.9C56.3779 90.9 57.9001 89.3777 57.9001 87.5C57.9001 85.6222 56.3779 84.1 54.5001 84.1C52.6223 84.1 51.1001 85.6222 51.1001 87.5C51.1001 89.3777 52.6223 90.9 54.5001 90.9Z" stroke="#88E0FF" stroke-miterlimit="10"/>
<path d="M44.6998 107.9C46.5776 107.9 48.0998 106.378 48.0998 104.5C48.0998 102.622 46.5776 101.1 44.6998 101.1C42.822 101.1 41.2998 102.622 41.2998 104.5C41.2998 106.378 42.822 107.9 44.6998 107.9Z" stroke="#88E0FF" stroke-miterlimit="10"/>
<path d="M35.1002 124.7C36.978 124.7 38.5002 123.178 38.5002 121.3C38.5002 119.422 36.978 117.9 35.1002 117.9C33.2224 117.9 31.7002 119.422 31.7002 121.3C31.7002 123.178 33.2224 124.7 35.1002 124.7Z" stroke="#88E0FF" stroke-miterlimit="10"/>
<path d="M25.4 141.6C27.2778 141.6 28.8 140.078 28.8 138.2C28.8 136.322 27.2778 134.8 25.4 134.8C23.5222 134.8 22 136.322 22 138.2C22 140.078 23.5222 141.6 25.4 141.6Z" stroke="#88E0FF" stroke-miterlimit="10"/>
<path d="M15.7999 158.3C17.6777 158.3 19.1999 156.778 19.1999 154.9C19.1999 153.022 17.6777 151.5 15.7999 151.5C13.9221 151.5 12.3999 153.022 12.3999 154.9C12.3999 156.778 13.9221 158.3 15.7999 158.3Z" stroke="#88E0FF" stroke-miterlimit="10"/>
<path d="M5.7999 174.9C7.67767 174.9 9.1999 173.378 9.1999 171.5C9.1999 169.622 7.67767 168.1 5.7999 168.1C3.92213 168.1 2.3999 169.622 2.3999 171.5C2.3999 173.378 3.92213 174.9 5.7999 174.9Z" stroke="#88E0FF" stroke-miterlimit="10"/>
<path d="M55.7999 47.9C57.6777 47.9 59.1999 46.3777 59.1999 44.5C59.1999 42.6222 57.6777 41.1 55.7999 41.1C53.9221 41.1 52.3999 42.6222 52.3999 44.5C52.3999 46.3777 53.9221 47.9 55.7999 47.9Z" stroke="#88E0FF" stroke-miterlimit="10"/>
<path d="M46.4 64.8C48.2778 64.8 49.8 63.2778 49.8 61.4C49.8 59.5222 48.2778 58 46.4 58C44.5222 58 43 59.5222 43 61.4C43 63.2778 44.5222 64.8 46.4 64.8Z" stroke="#88E0FF" stroke-miterlimit="10"/>
<path d="M37.0001 81.3C38.8779 81.3 40.4001 79.7778 40.4001 77.9C40.4001 76.0222 38.8779 74.5 37.0001 74.5C35.1223 74.5 33.6001 76.0222 33.6001 77.9C33.6001 79.7778 35.1223 81.3 37.0001 81.3Z" stroke="#88E0FF" stroke-miterlimit="10"/>
<path d="M27.1998 98.2C29.0776 98.2 30.5998 96.6778 30.5998 94.8C30.5998 92.9223 29.0776 91.4 27.1998 91.4C25.322 91.4 23.7998 92.9223 23.7998 94.8C23.7998 96.6778 25.322 98.2 27.1998 98.2Z" stroke="#88E0FF" stroke-miterlimit="10"/>
<path d="M17.6002 115.1C19.478 115.1 21.0002 113.578 21.0002 111.7C21.0002 109.822 19.478 108.3 17.6002 108.3C15.7224 108.3 14.2002 109.822 14.2002 111.7C14.2002 113.578 15.7224 115.1 17.6002 115.1Z" stroke="#88E0FF" stroke-miterlimit="10"/>
<path d="M7.9 131.9C9.77777 131.9 11.3 130.378 11.3 128.5C11.3 126.622 9.77777 125.1 7.9 125.1C6.02223 125.1 4.5 126.622 4.5 128.5C4.5 130.378 6.02223 131.9 7.9 131.9Z" stroke="#88E0FF" stroke-miterlimit="10"/>
<path d="M-1.7001 148.6C0.17767 148.6 1.6999 147.078 1.6999 145.2C1.6999 143.322 0.17767 141.8 -1.7001 141.8C-3.57787 141.8 -5.1001 143.322 -5.1001 145.2C-5.1001 147.078 -3.57787 148.6 -1.7001 148.6Z" stroke="#88E0FF" stroke-miterlimit="10"/>
<path d="M38.9 37.4C40.7778 37.4 42.3 35.8777 42.3 34C42.3 32.1222 40.7778 30.6 38.9 30.6C37.0222 30.6 35.5 32.1222 35.5 34C35.5 35.8777 37.0222 37.4 38.9 37.4Z" stroke="#88E0FF" stroke-miterlimit="10"/>
<path d="M29.5001 54.3C31.3779 54.3 32.9001 52.7778 32.9001 50.9C32.9001 49.0222 31.3779 47.5 29.5001 47.5C27.6223 47.5 26.1001 49.0222 26.1001 50.9C26.1001 52.7778 27.6223 54.3 29.5001 54.3Z" stroke="#88E0FF" stroke-miterlimit="10"/>
<path d="M20.1002 70.8C21.978 70.8 23.5002 69.2778 23.5002 67.4C23.5002 65.5222 21.978 64 20.1002 64C18.2224 64 16.7002 65.5222 16.7002 67.4C16.7002 69.2778 18.2224 70.8 20.1002 70.8Z" stroke="#88E0FF" stroke-miterlimit="10"/>
<path d="M10.2999 87.7C12.1777 87.7 13.6999 86.1778 13.6999 84.3C13.6999 82.4223 12.1777 80.9 10.2999 80.9C8.42213 80.9 6.8999 82.4223 6.8999 84.3C6.8999 86.1778 8.42213 87.7 10.2999 87.7Z" stroke="#88E0FF" stroke-miterlimit="10"/>
<path d="M0.799902 104.5C2.67767 104.5 4.1999 102.978 4.1999 101.1C4.1999 99.2223 2.67767 97.7001 0.799902 97.7001C-1.07787 97.7001 -2.6001 99.2223 -2.6001 101.1C-2.6001 102.978 -1.07787 104.5 0.799902 104.5Z" stroke="#88E0FF" stroke-miterlimit="10"/>
<path d="M20.6002 27.1C22.478 27.1 24.0002 25.5778 24.0002 23.7001C24.0002 21.8223 22.478 20.3 20.6002 20.3C18.7224 20.3 17.2002 21.8223 17.2002 23.7001C17.2002 25.5778 18.7224 27.1 20.6002 27.1Z" stroke="#88E0FF" stroke-miterlimit="10"/>
<path d="M11.1998 44.0001C13.0776 44.0001 14.5998 42.4778 14.5998 40.6001C14.5998 38.7223 13.0776 37.2001 11.1998 37.2001C9.32204 37.2001 7.7998 38.7223 7.7998 40.6001C7.7998 42.4778 9.32204 44.0001 11.1998 44.0001Z" stroke="#88E0FF" stroke-miterlimit="10"/>
<path d="M1.7999 60.5001C3.67767 60.5001 5.1999 58.9778 5.1999 57.1001C5.1999 55.2223 3.67767 53.7001 1.7999 53.7001C-0.0778652 53.7001 -1.6001 55.2223 -1.6001 57.1001C-1.6001 58.9778 -0.0778652 60.5001 1.7999 60.5001Z" stroke="#88E0FF" stroke-miterlimit="10"/>
<path d="M3.1998 17.2C5.07757 17.2 6.5998 15.6778 6.5998 13.8C6.5998 11.9223 5.07757 10.4 3.1998 10.4C1.32204 10.4 -0.200195 11.9223 -0.200195 13.8C-0.200195 15.6778 1.32204 17.2 3.1998 17.2Z" stroke="#88E0FF" stroke-miterlimit="10"/>
</g>
<mask id="mask3_115_3" style="mask-type:luminance" maskUnits="userSpaceOnUse" x="0" y="0" width="1439" height="224">
<path d="M1439 0H0V223.5H1439V0Z" fill="white"/>
</mask>
<g mask="url(#mask3_115_3)">
<path opacity="0.35" d="M1359 151.4C1361.21 151.4 1363 149.609 1363 147.4C1363 145.191 1361.21 143.4 1359 143.4C1356.79 143.4 1355 145.191 1355 147.4C1355 149.609 1356.79 151.4 1359 151.4Z" fill="#00BFFF"/>
<path opacity="0.35" d="M1384.7 151.4C1386.91 151.4 1388.7 149.609 1388.7 147.4C1388.7 145.191 1386.91 143.4 1384.7 143.4C1382.49 143.4 1380.7 145.191 1380.7 147.4C1380.7 149.609 1382.49 151.4 1384.7 151.4Z" fill="#00BFFF"/>
<path opacity="0.35" d="M1410.4 151.4C1412.61 151.4 1414.4 149.609 1414.4 147.4C1414.4 145.191 1412.61 143.4 1410.4 143.4C1408.19 143.4 1406.4 145.191 1406.4 147.4C1406.4 149.609 1408.19 151.4 1410.4 151.4Z" fill="#00BFFF"/>
<path opacity="0.35" d="M1333.3 127.1C1335.51 127.1 1337.3 125.309 1337.3 123.1C1337.3 120.891 1335.51 119.1 1333.3 119.1C1331.09 119.1 1329.3 120.891 1329.3 123.1C1329.3 125.309 1331.09 127.1 1333.3 127.1Z" fill="#00BFFF"/>
<path opacity="0.35" d="M1359 127.1C1361.21 127.1 1363 125.309 1363 123.1C1363 120.891 1361.21 119.1 1359 119.1C1356.79 119.1 1355 120.891 1355 123.1C1355 125.309 1356.79 127.1 1359 127.1Z" fill="#00BFFF"/>
<path opacity="0.35" d="M1384.7 127.1C1386.91 127.1 1388.7 125.309 1388.7 123.1C1388.7 120.891 1386.91 119.1 1384.7 119.1C1382.49 119.1 1380.7 120.891 1380.7 123.1C1380.7 125.309 1382.49 127.1 1384.7 127.1Z" fill="#00BFFF"/>
<path opacity="0.35" d="M1410.4 127.1C1412.61 127.1 1414.4 125.309 1414.4 123.1C1414.4 120.891 1412.61 119.1 1410.4 119.1C1408.19 119.1 1406.4 120.891 1406.4 123.1C1406.4 125.309 1408.19 127.1 1410.4 127.1Z" fill="#00BFFF"/>
<path opacity="0.35" d="M1333.3 102.8C1335.51 102.8 1337.3 101.009 1337.3 98.8C1337.3 96.5909 1335.51 94.8 1333.3 94.8C1331.09 94.8 1329.3 96.5909 1329.3 98.8C1329.3 101.009 1331.09 102.8 1333.3 102.8Z" fill="#00BFFF"/>
<path opacity="0.35" d="M1359 102.8C1361.21 102.8 1363 101.009 1363 98.8C1363 96.5909 1361.21 94.8 1359 94.8C1356.79 94.8 1355 96.5909 1355 98.8C1355 101.009 1356.79 102.8 1359 102.8Z" fill="#00BFFF"/>
<path opacity="0.35" d="M1384.7 102.8C1386.91 102.8 1388.7 101.009 1388.7 98.8C1388.7 96.5909 1386.91 94.8 1384.7 94.8C1382.49 94.8 1380.7 96.5909 1380.7 98.8C1380.7 101.009 1382.49 102.8 1384.7 102.8Z" fill="#00BFFF"/>
<path opacity="0.35" d="M1410.4 102.8C1412.61 102.8 1414.4 101.009 1414.4 98.8C1414.4 96.5909 1412.61 94.8 1410.4 94.8C1408.19 94.8 1406.4 96.5909 1406.4 98.8C1406.4 101.009 1408.19 102.8 1410.4 102.8Z" fill="#00BFFF"/>
<path opacity="0.35" d="M1307.6 78.5C1309.81 78.5 1311.6 76.7091 1311.6 74.5C1311.6 72.2909 1309.81 70.5 1307.6 70.5C1305.39 70.5 1303.6 72.2909 1303.6 74.5C1303.6 76.7091 1305.39 78.5 1307.6 78.5Z" fill="#00BFFF"/>
<path opacity="0.35" d="M1333.3 78.5C1335.51 78.5 1337.3 76.7091 1337.3 74.5C1337.3 72.2909 1335.51 70.5 1333.3 70.5C1331.09 70.5 1329.3 72.2909 1329.3 74.5C1329.3 76.7091 1331.09 78.5 1333.3 78.5Z" fill="#00BFFF"/>
<path opacity="0.35" d="M1359 78.5C1361.21 78.5 1363 76.7091 1363 74.5C1363 72.2909 1361.21 70.5 1359 70.5C1356.79 70.5 1355 72.2909 1355 74.5C1355 76.7091 1356.79 78.5 1359 78.5Z" fill="#00BFFF"/>
<path opacity="0.35" d="M1384.7 78.5C1386.91 78.5 1388.7 76.7091 1388.7 74.5C1388.7 72.2909 1386.91 70.5 1384.7 70.5C1382.49 70.5 1380.7 72.2909 1380.7 74.5C1380.7 76.7091 1382.49 78.5 1384.7 78.5Z" fill="#00BFFF"/>
<path opacity="0.35" d="M1410.4 78.5C1412.61 78.5 1414.4 76.7091 1414.4 74.5C1414.4 72.2909 1412.61 70.5 1410.4 70.5C1408.19 70.5 1406.4 72.2909 1406.4 74.5C1406.4 76.7091 1408.19 78.5 1410.4 78.5Z" fill="#00BFFF"/>
<path opacity="0.35" d="M1307.6 54.2C1309.81 54.2 1311.6 52.4091 1311.6 50.2C1311.6 47.9908 1309.81 46.2 1307.6 46.2C1305.39 46.2 1303.6 47.9908 1303.6 50.2C1303.6 52.4091 1305.39 54.2 1307.6 54.2Z" fill="#00BFFF"/>
<path opacity="0.35" d="M1333.3 54.2C1335.51 54.2 1337.3 52.4091 1337.3 50.2C1337.3 47.9908 1335.51 46.2 1333.3 46.2C1331.09 46.2 1329.3 47.9908 1329.3 50.2C1329.3 52.4091 1331.09 54.2 1333.3 54.2Z" fill="#00BFFF"/>
<path opacity="0.35" d="M1359 54.2C1361.21 54.2 1363 52.4091 1363 50.2C1363 47.9908 1361.21 46.2 1359 46.2C1356.79 46.2 1355 47.9908 1355 50.2C1355 52.4091 1356.79 54.2 1359 54.2Z" fill="#00BFFF"/>
<path opacity="0.35" d="M1384.7 54.2C1386.91 54.2 1388.7 52.4091 1388.7 50.2C1388.7 47.9908 1386.91 46.2 1384.7 46.2C1382.49 46.2 1380.7 47.9908 1380.7 50.2C1380.7 52.4091 1382.49 54.2 1384.7 54.2Z" fill="#00BFFF"/>
<path opacity="0.35" d="M1410.4 54.2C1412.61 54.2 1414.4 52.4091 1414.4 50.2C1414.4 47.9908 1412.61 46.2 1410.4 46.2C1408.19 46.2 1406.4 47.9908 1406.4 50.2C1406.4 52.4091 1408.19 54.2 1410.4 54.2Z" fill="#00BFFF"/>
<path opacity="0.35" d="M1333.3 30C1335.51 30 1337.3 28.2091 1337.3 26C1337.3 23.7909 1335.51 22 1333.3 22C1331.09 22 1329.3 23.7909 1329.3 26C1329.3 28.2091 1331.09 30 1333.3 30Z" fill="#00BFFF"/>
<path opacity="0.35" d="M1359 30C1361.21 30 1363 28.2091 1363 26C1363 23.7909 1361.21 22 1359 22C1356.79 22 1355 23.7909 1355 26C1355 28.2091 1356.79 30 1359 30Z" fill="#00BFFF"/>
<path opacity="0.35" d="M1384.7 30C1386.91 30 1388.7 28.2091 1388.7 26C1388.7 23.7909 1386.91 22 1384.7 22C1382.49 22 1380.7 23.7909 1380.7 26C1380.7 28.2091 1382.49 30 1384.7 30Z" fill="#00BFFF"/>
<path opacity="0.35" d="M1410.4 30C1412.61 30 1414.4 28.2091 1414.4 26C1414.4 23.7909 1412.61 22 1410.4 22C1408.19 22 1406.4 23.7909 1406.4 26C1406.4 28.2091 1408.19 30 1410.4 30Z" fill="#00BFFF"/>
</g>
</svg>
