<svg width="82" height="70" viewBox="0 0 337 288" fill="none" xmlns="http://www.w3.org/2000/svg">
<path d="M11.3 287.6C11 287.9 10.4 288.1 9.7 288.1H2C1.3 288.1 0.8 287.9 0.4 287.6C0.2 287.3 0 286.7 0 286V231.2C0 230.5 0.2 230 0.5 229.6C0.8 229.3 1.3 229.1 2.1 229.1H9.8C10.5 229.1 11.1 229.3 11.4 229.6C11.7 229.9 11.9 230.4 11.9 231.2V286C11.8 286.7 11.6 287.3 11.3 287.6Z" fill="#1576BC"/>
<path d="M74.0998 287.6C73.7998 287.9 73.1998 288.1 72.4998 288.1H64.7998C64.0998 288.1 63.5998 287.9 63.1998 287.6C62.8998 287.3 62.6998 286.8 62.6998 286V264.5C62.6998 264.1 62.5998 263.8 62.3998 263.7C62.1998 263.5 61.8998 263.4 61.4998 263.4H38.2998C37.8998 263.4 37.5998 263.5 37.4998 263.6C37.2998 263.7 37.1998 264 37.1998 264.5V286C37.1998 286.7 36.9998 287.2 36.6998 287.6C36.3998 287.9 35.7998 288.1 35.0998 288.1H27.3998C26.6998 288.1 26.1998 287.9 25.7998 287.6C25.4998 287.3 25.2998 286.8 25.2998 286V231.2C25.2998 230.5 25.4998 230 25.7998 229.6C26.0998 229.3 26.5998 229.1 27.3998 229.1H35.0998C35.7998 229.1 36.3998 229.3 36.6998 229.6C36.9998 229.9 37.1998 230.4 37.1998 231.2V251.4C37.1998 251.8 37.2998 252.1 37.4998 252.2C37.6998 252.4 37.8998 252.5 38.2998 252.5H61.6998C62.0998 252.5 62.3998 252.4 62.5998 252.2C62.7998 252 62.8998 251.8 62.8998 251.4V231.2C62.8998 230.5 63.0998 230 63.3998 229.6C63.6998 229.3 64.1998 229.1 64.9998 229.1H72.6998C73.3998 229.1 73.9998 229.3 74.2998 229.6C74.5998 229.9 74.7998 230.4 74.7998 231.2V286C74.5998 286.7 74.3998 287.3 74.0998 287.6Z" fill="#1576BC"/>
<path d="M129.2 239.6C128.9 239.9 128.4 240.1 127.6 240.1H113.1C112.7 240.1 112.4 240.2 112.3 240.4C112.1 240.6 112 240.8 112 241.2V286C112 286.7 111.8 287.2 111.5 287.6C111.2 287.9 110.6 288.1 109.9 288.1H102.2C101.5 288.1 101 287.9 100.6 287.6C100.3 287.3 100.1 286.8 100.1 286V241.2C100.1 240.8 100 240.5 99.8001 240.4C99.6001 240.2 99.3001 240.1 98.9001 240.1H84.7001C84.0001 240.1 83.5001 239.9 83.1001 239.6C82.8001 239.3 82.6001 238.8 82.6001 238V231.1C82.6001 230.4 82.8001 229.9 83.1001 229.5C83.4001 229.2 83.9001 229 84.7001 229H127.7C128.4 229 128.9 229.2 129.3 229.5C129.6 229.8 129.8 230.3 129.8 231.1V238C129.7 238.8 129.5 239.3 129.2 239.6Z" fill="#1576BC"/>
<path d="M139.6 285.4C139.1 286.5 138.6 287.2 138.1 287.5C137.6 287.8 136.8 288 135.8 288H128.3C127.1 288 126.4 287.6 126.4 286.8C126.4 286.5 126.5 286 126.8 285.4L153 232C153.8 230.3 154.4 229.2 154.9 228.6C155.4 228 156 227.8 156.6 227.8C157.2 227.8 157.7 228.1 158.2 228.6C158.6 229.2 159.3 230.3 160.1 232L186.4 285.4C186.7 286.1 186.8 286.5 186.8 286.8C186.8 287.6 186.2 288 184.9 288H176.9C175.9 288 175.2 287.8 174.7 287.5C174.2 287.2 173.7 286.5 173.2 285.4L156.2 249.6L139.6 285.4Z" fill="#1576BC"/>
<path d="M204.8 287.6C204.5 287.9 203.9 288.1 203.2 288.1H195.5C194.8 288.1 194.3 287.9 193.9 287.6C193.6 287.3 193.4 286.8 193.4 286V231.2C193.4 230.5 193.6 230 193.9 229.6C194.2 229.3 194.7 229.1 195.5 229.1H213.3C221.8 229.1 228.1 230.7 232.2 233.9C236.3 237.1 238.4 241.8 238.4 248.2C238.4 252 237.5 255.2 235.6 257.8C233.7 260.4 231.1 262.4 227.7 263.8L241.3 285.4C241.7 286.1 242 286.7 242 287C242 287.7 241.3 288 240 288H232C230.9 288 230.1 287.8 229.6 287.5C229.1 287.2 228.5 286.5 227.9 285.5L213.5 261.6C213.2 261.1 213 260.7 213 260.3C213 259.7 213.5 259.4 214.5 259.4C218 259 220.9 258 223 256.3C225.2 254.6 226.2 252.2 226.2 249.2C226.2 245.9 225.1 243.5 222.8 241.9C220.5 240.4 217.2 239.6 212.9 239.6H206.3C205.9 239.6 205.6 239.7 205.5 239.8C205.3 239.9 205.2 240.2 205.2 240.7V286C205.3 286.7 205.1 287.3 204.8 287.6Z" fill="#1576BC"/>
<path d="M286.8 277.6C287.1 277.9 287.3 278.4 287.3 279.2V286.1C287.3 286.8 287.1 287.3 286.8 287.7C286.5 288 285.9 288.2 285.2 288.2H251.4C250.7 288.2 250.2 288 249.8 287.7C249.5 287.4 249.3 286.9 249.3 286.1V231.3C249.3 230.6 249.5 230.1 249.8 229.7C250.1 229.4 250.6 229.2 251.4 229.2H285.1C285.8 229.2 286.4 229.4 286.7 229.7C287 230 287.2 230.5 287.2 231.3V238.2C287.2 238.9 287 239.4 286.7 239.8C286.4 240.1 285.8 240.3 285.1 240.3H262.2C261.8 240.3 261.5 240.4 261.4 240.6C261.2 240.8 261.1 241 261.1 241.4V252.1C261.1 252.5 261.2 252.8 261.4 252.9C261.6 253 261.8 253.2 262.2 253.2H282.2C282.9 253.2 283.5 253.4 283.8 253.7C284.1 254 284.3 254.6 284.3 255.3V262.1C284.3 262.8 284.1 263.3 283.8 263.7C283.5 264 282.9 264.2 282.2 264.2H262.2C261.8 264.2 261.5 264.3 261.4 264.4C261.2 264.5 261.1 264.8 261.1 265.3V276.3C261.1 276.7 261.2 277 261.4 277.1C261.6 277.3 261.8 277.4 262.2 277.4H285.2C285.9 277.1 286.5 277.3 286.8 277.6Z" fill="#1576BC"/>
<path d="M309.5 287.6C309.2 287.9 308.6 288.1 307.9 288.1H300.2C299.5 288.1 299 287.9 298.6 287.6C298.3 287.3 298.1 286.8 298.1 286V231.2C298.1 230.5 298.3 230 298.6 229.6C298.9 229.3 299.4 229.1 300.2 229.1H334.3C335 229.1 335.6 229.3 335.9 229.6C336.2 229.9 336.4 230.4 336.4 231.2V238.1C336.4 238.8 336.2 239.3 335.9 239.7C335.6 240 335 240.2 334.3 240.2H311.1C310.7 240.2 310.4 240.3 310.3 240.5C310.1 240.7 310 240.9 310 241.3V253.7C310 254.1 310.1 254.4 310.3 254.5C310.5 254.7 310.7 254.8 311.1 254.8H331.5C332.3 254.8 332.8 255 333.1 255.3C333.4 255.6 333.6 256.2 333.6 256.9V263.7C333.6 264.4 333.4 264.9 333.1 265.3C332.8 265.6 332.2 265.8 331.5 265.8H311.1C310.7 265.8 310.4 265.9 310.3 266.1C310.1 266.3 310 266.5 310 266.9V286C310 286.7 309.9 287.3 309.5 287.6Z" fill="#1576BC"/>
<path d="M200.1 196.3H186V136.2C186 135.1 185.1 134.2 184 134.2L131.3 134C124.1 134 118.9 128.3 118.9 120.4V111.6C118.9 103.8 124 98.2 131.1 98.2L186 98.4001L185.9 49.8H200L200.1 105.5C200.1 107.4 199.4 109.2 198 110.5C196.7 111.8 194.9 112.6 193 112.6L132.9 112.4V120L184 120.2C192.8 120.2 200 127.4 200 136.3V196.3H200.1Z" fill="#1576BC"/>
<path d="M168.8 175.8H129.6C123.8 175.8 119.1 171 119.1 165.1V139.2H168.8C174.6 139.2 179.3 144 179.3 149.9V165C179.3 171 174.6 175.8 168.8 175.8ZM132.9 161.7H165.5V153.3H132.9V161.7Z" fill="#1576BC"/>
<path d="M165.1 196.6H109C101.2 196.6 94.8003 189.3 94.8003 180.4V162.1H108.6V180.4C108.6 181.5 109 182.3 109.3 182.5H164.9C165.1 182.3 165.6 181.5 165.6 180.4V156.5H179.4V180.4C179.3 189.4 172.9 196.6 165.1 196.6Z" fill="#1576BC"/>
<path d="M100.8 152.7C104.445 152.7 107.4 149.745 107.4 146.1C107.4 142.455 104.445 139.5 100.8 139.5C97.1551 139.5 94.2002 142.455 94.2002 146.1C94.2002 149.745 97.1551 152.7 100.8 152.7Z" fill="#36C3F2"/>
<path d="M101.4 106.7C105.045 106.7 108 103.745 108 100.1C108 96.4549 105.045 93.5 101.4 93.5C97.7552 93.5 94.8003 96.4549 94.8003 100.1C94.8003 103.745 97.7552 106.7 101.4 106.7Z" fill="#36C3F2"/>
<path d="M101.4 121.7C105.045 121.7 108 118.745 108 115.1C108 111.455 105.045 108.5 101.4 108.5C97.7552 108.5 94.8003 111.455 94.8003 115.1C94.8003 118.745 97.7552 121.7 101.4 121.7Z" fill="#36C3F2"/>
<path d="M208.7 37.5V41V177.6L220.1 196.6L223.5 190.9L231.5 177.6V41V37.4H208.7V37.5ZM218.8 41H221.6V175.4H218.8V41ZM212.4 41H215.2V175.4H212.4V41ZM222.2 186.3H218.1L213.7 179H226.6L222.2 186.3ZM227.9 175.5H225.1V41H227.9V175.5Z" fill="#1576BC"/>
<path d="M118.9 80.6V46.2C118.9 46.2 118.9 46.1 118.9 46C118.9 35.3 127.6 26.6 138.3 26.6H180.7C191.4 26.6 200.1 35.3 200.1 46V71.6H186V46.1C186 43.2 183.6 40.8 180.7 40.8H138.3C135.4 40.8 133 43.1 133 46V80.3L118.9 80.6Z" fill="#1576BC"/>
<path d="M104.3 88.2H98.2002V32.7C98.2002 14.7 112.4 0 129.9 0H222V19.2H215.9V6.1H129.9C115.8 6.1 104.4 18 104.4 32.7V88.2H104.3Z" fill="#36C3F2"/>
<path d="M178.8 35.3H177.3V93.7H178.8V35.3Z" fill="#1576BC"/>
<path d="M173.4 35.3H171.9V93.7H173.4V35.3Z" fill="#1576BC"/>
<path d="M168 35.3H166.5V93.7H168V35.3Z" fill="#1576BC"/>
<path d="M162.6 35.3H161.1V93.7H162.6V35.3Z" fill="#1576BC"/>
<path d="M157.3 35.3H155.8V93.7H157.3V35.3Z" fill="#1576BC"/>
<path d="M151.9 35.3H150.4V93.7H151.9V35.3Z" fill="#1576BC"/>
<path d="M146.5 35.3H145V93.7H146.5V35.3Z" fill="#1576BC"/>
<path d="M141.1 35.3H139.6V93.7H141.1V35.3Z" fill="#1576BC"/>
<path d="M133 54.5H114L117.9 59.1L113.5 64.7L133 64.5C133 64.5 137.4 58.4 133 54.5Z" fill="#36C3F2"/>
<path d="M231.3 21.5H209V33.8H231.3V21.5Z" fill="#1576BC"/>
<path d="M237.4 25.3H231.3V29.9H237.4V25.3Z" fill="#1576BC"/>
<path d="M239 25.3H236.7V53H239V25.3Z" fill="#1576BC"/>
<path d="M236.9 59C236.8 59 236.8 59 236.9 59C236.8 58.9 236.8 58.9001 236.7 58.9001C236.6 58.9001 236.7 58.8001 236.7 58.7001C236.7 58.6001 236.7 58.5001 236.7 58.4001C236.7 58.3001 236.7 58.2 236.7 58.1C236.7 58 236.7 58.0001 236.7 57.9001C236.7 57.8001 236.7 57.8 236.8 57.8H236.9H242.9H243C243 57.8 243 57.9001 243.1 57.9001C243.1 57.9001 243.1 58 243.1 58.1C243.1 58.2 243.1 58.3001 243.1 58.4001C243.1 58.5001 243.1 58.6001 243.1 58.7001C243.1 58.8001 243.1 58.8001 243.1 58.9001C243.1 59.0001 243.1 59 243 59H242.9H236.9Z" fill="#36C3F2"/>
<path d="M236.9 68.8C236.8 68.8 236.8 68.8 236.9 68.8C236.8 68.7 236.8 68.7 236.7 68.7C236.6 68.7 236.7 68.6 236.7 68.5C236.7 68.4 236.7 68.3 236.7 68.2C236.7 68.1 236.7 68 236.7 67.9C236.7 67.8 236.7 67.8 236.7 67.7C236.7 67.7 236.7 67.6 236.8 67.6H236.9H239.5V65.2H236.9H236.8C236.8 65.2 236.8 65.1 236.7 65.1C236.6 65.1 236.7 65 236.7 64.9C236.7 64.8 236.7 64.7 236.7 64.6C236.7 64.5 236.7 64.4 236.7 64.3C236.7 64.2 236.7 64.2 236.7 64.1C236.7 64.1 236.7 64 236.8 64H236.9H242.9H243C243 64 243 64.1 243.1 64.1C243.1 64.1 243.1 64.2 243.1 64.3C243.1 64.4 243.1 64.5 243.1 64.6C243.1 64.7 243.1 64.8 243.1 64.9C243.1 65 243.1 65 243.1 65.1C243.1 65.2 243.1 65.2 243 65.2C242.9 65.2 242.9 65.2 242.9 65.2H240.6V67.6H242.9H243C243 67.6 243 67.7 243.1 67.7C243.1 67.7 243.1 67.8 243.1 67.9C243.1 68 243.1 68.1 243.1 68.2C243.1 68.3 243.1 68.4 243.1 68.5C243.1 68.6 243.1 68.6 243.1 68.7C243.1 68.8 243.1 68.8 243 68.8H242.9H236.9Z" fill="#36C3F2"/>
<path d="M242.5 77.9001C242.4 77.9001 242.3 77.9001 242.3 77.9001C242.2 77.9001 242.2 77.9001 242.1 77.9001C242.1 77.9001 242 77.9001 242 77.8001V77.7001V76.1001H236.9H236.8C236.8 76.1001 236.8 76.0001 236.7 76.0001C236.6 76.0001 236.7 75.9001 236.7 75.8001C236.7 75.7001 236.7 75.6001 236.7 75.5001C236.7 75.4001 236.7 75.3001 236.7 75.2001C236.7 75.1001 236.7 75.1001 236.7 75.0001C236.7 74.9001 236.7 74.9001 236.8 74.9001H236.9H242V73.3001V73.2001C242 73.2001 242 73.2001 242.1 73.1001C242.1 73.1001 242.2 73.1001 242.3 73.1001C242.4 73.1001 242.4 73.1001 242.5 73.1001C242.6 73.1001 242.7 73.1001 242.7 73.1001C242.8 73.1001 242.8 73.1001 242.9 73.1001C242.9 73.1001 243 73.1001 243 73.2001V73.3001V77.8001V77.9001C243 77.9001 243 77.9001 242.9 78.0001C242.9 78.0001 242.8 78.0001 242.7 78.0001C242.7 77.9001 242.6 77.9001 242.5 77.9001Z" fill="#36C3F2"/>
<path d="M237.2 86.5C237.1 86.5 237 86.6 236.9 86.6C236.8 86.6 236.8 86.6 236.7 86.6C236.7 86.6 236.6 86.5 236.6 86.4C236.6 86.3 236.6 86.2 236.6 86C236.6 85.8 236.6 85.7 236.6 85.6C236.6 85.5 236.6 85.4 236.6 85.4C236.6 85.4 236.6 85.3 236.7 85.3C236.8 85.3 236.8 85.3 236.8 85.3L238.1 84.9V82.5L236.9 82.1C236.9 82.1 236.8 82.1 236.8 82L236.7 81.9C236.7 81.9 236.7 81.8 236.7 81.7C236.7 81.6 236.7 81.5 236.7 81.4C236.7 81.3 236.7 81.1 236.7 81C236.7 80.9 236.7 80.9 236.8 80.8C236.8 80.8 236.9 80.8 237 80.8C237.1 80.8 237.2 80.8 237.3 80.9L242.9 82.8C243 82.8 243 82.8 243 82.9L243.1 83C243.1 83.1 243.1 83.1 243.1 83.2C243.1 83.3 243.1 83.4 243.1 83.6C243.1 83.8 243.1 83.9 243.1 84.1C243.1 84.2 243.1 84.3 243.1 84.4C243.1 84.5 243.1 84.5 243 84.5L242.9 84.6L237.2 86.5ZM241.8 83.6L239.1 82.7V84.5L241.8 83.6Z" fill="#36C3F2"/>
<path d="M236.9 95.6C236.8 95.6 236.8 95.6 236.9 95.6C236.8 95.6 236.8 95.5 236.7 95.5C236.6 95.5 236.7 95.4 236.7 95.3C236.7 95.2 236.7 95.1 236.7 94.9C236.7 94.8 236.7 94.7 236.7 94.6C236.7 94.5 236.7 94.5 236.7 94.4C236.7 94.4 236.7 94.3 236.8 94.3H236.9L238.3 93.7C238.5 93.6 238.6 93.6 238.7 93.5C238.8 93.4 238.9 93.4 239 93.3C239.1 93.2 239.1 93.1 239.2 93C239.3 92.9 239.3 92.8 239.3 92.6V92.2H236.9H236.8C236.8 92.2 236.8 92.1 236.7 92.1C236.6 92.1 236.7 92 236.7 91.9C236.7 91.8 236.7 91.7 236.7 91.6C236.7 91.5 236.7 91.4 236.7 91.3C236.7 91.2 236.7 91.2 236.7 91.1C236.7 91 236.7 91 236.8 91C236.9 91 236.9 91 236.9 91H242.6C242.7 91 242.8 91 242.9 91.1C243 91.2 243 91.3 243 91.4V93C243 93.2 243 93.3 243 93.4C243 93.5 243 93.6 243 93.7C243 94 242.9 94.2 242.8 94.4C242.7 94.6 242.6 94.8 242.5 94.9C242.4 95 242.2 95.1 242 95.2C241.8 95.3 241.6 95.3 241.3 95.3C241.1 95.3 240.9 95.3 240.7 95.2C240.5 95.1 240.4 95.1 240.2 95C240 94.9 239.9 94.8 239.8 94.6C239.7 94.4 239.6 94.3 239.6 94.1C239.6 94.2 239.5 94.3 239.4 94.4C239.3 94.5 239.3 94.6 239.2 94.6C239.1 94.7 239 94.7 238.9 94.8C238.8 94.9 238.6 94.9 238.5 95L237.3 95.5C237.2 95.5 237.1 95.6 237 95.6C236.9 95.6 236.9 95.6 236.9 95.6ZM241.1 93.9C241.3 93.9 241.5 93.9 241.6 93.8C241.7 93.7 241.8 93.6 241.9 93.3C241.9 93.2 241.9 93.2 241.9 93.1C241.9 93 241.9 92.9 241.9 92.8V92.2H240.1V92.9C240.1 93.1 240.1 93.2 240.2 93.4C240.2 93.5 240.3 93.7 240.4 93.7C240.5 93.8 240.6 93.9 240.7 93.9C240.9 93.9 241 93.9 241.1 93.9Z" fill="#36C3F2"/>
<path d="M237.2 103.8C237.1 103.8 237 103.8 237 103.8C236.9 103.8 236.9 103.8 236.8 103.8C236.7 103.8 236.7 103.8 236.7 103.7V103.6V100.4C236.7 100.3 236.7 100.2 236.8 100.1C236.9 100 237 100 237.1 100H242.6C242.7 100 242.8 100 242.9 100.1C243 100.2 243 100.3 243 100.4V103.6V103.7C243 103.7 243 103.7 242.9 103.8C242.9 103.8 242.8 103.8 242.7 103.8C242.6 103.8 242.6 103.8 242.5 103.8C242.4 103.8 242.3 103.8 242.3 103.8C242.2 103.8 242.2 103.8 242.1 103.8C242 103.8 242 103.8 242 103.7C242 103.7 242 103.7 242 103.6V101.3H240.5V103.2V103.3C240.5 103.3 240.5 103.3 240.4 103.4C240.4 103.4 240.3 103.4 240.2 103.4C240.1 103.4 240.1 103.4 240 103.4C239.9 103.4 239.8 103.4 239.8 103.4C239.7 103.4 239.7 103.4 239.7 103.4C239.7 103.4 239.6 103.4 239.6 103.3V103.2V101.3H237.8V103.6V103.7C237.8 103.7 237.8 103.7 237.7 103.8C237.6 103.9 237.6 103.8 237.5 103.8C237.4 103.8 237.3 103.8 237.2 103.8Z" fill="#36C3F2"/>
<path d="M242.5 112C242.4 112 242.3 112 242.3 112C242.2 112 242.2 112 242.1 112C242.1 112 242 112 242 111.9C242 111.8 242 111.9 242 111.8V109.7H240.3V111.6V111.7C240.3 111.7 240.3 111.7 240.2 111.8C240.2 111.8 240.1 111.8 240 111.8C239.9 111.8 239.9 111.8 239.8 111.8C239.7 111.8 239.6 111.8 239.6 111.8C239.5 111.8 239.5 111.8 239.4 111.8C239.4 111.8 239.3 111.8 239.3 111.7C239.3 111.7 239.3 111.7 239.3 111.6V109.7H236.9H236.8C236.8 109.7 236.8 109.6 236.7 109.6C236.7 109.5 236.7 109.5 236.7 109.4C236.7 109.3 236.7 109.2 236.7 109.1C236.7 109 236.7 108.9 236.7 108.8C236.7 108.7 236.7 108.7 236.7 108.6C236.7 108.6 236.7 108.5 236.8 108.5H236.9H242.6C242.7 108.5 242.8 108.5 242.9 108.6C243 108.7 243 108.8 243 108.9V111.9V112C243 112 243 112 242.9 112.1C242.9 112.1 242.8 112.1 242.7 112.1C242.7 112 242.6 112 242.5 112Z" fill="#36C3F2"/>
<path d="M237.2 127.4C237.1 127.4 237 127.5 236.9 127.5C236.8 127.5 236.8 127.5 236.7 127.5C236.7 127.5 236.6 127.4 236.6 127.3C236.6 127.2 236.6 127.1 236.6 126.9C236.6 126.7 236.6 126.6 236.6 126.5C236.6 126.4 236.6 126.3 236.6 126.3C236.6 126.3 236.6 126.2 236.7 126.2C236.8 126.2 236.8 126.2 236.8 126.2L238.1 125.8V123.4L236.9 123C236.9 123 236.8 123 236.8 122.9L236.7 122.8C236.7 122.8 236.7 122.7 236.7 122.6C236.7 122.5 236.7 122.4 236.7 122.3C236.7 122.2 236.7 122 236.7 121.9C236.7 121.8 236.7 121.8 236.8 121.7C236.8 121.7 236.9 121.7 237 121.7C237.1 121.7 237.2 121.7 237.3 121.8L242.9 123.7C243 123.7 243 123.7 243 123.8L243.1 123.9C243.1 124 243.1 124 243.1 124.1C243.1 124.2 243.1 124.3 243.1 124.5C243.1 124.7 243.1 124.8 243.1 125C243.1 125.1 243.1 125.2 243.1 125.3C243.1 125.4 243.1 125.4 243 125.4L242.9 125.5L237.2 127.4ZM241.8 124.5L239.1 123.6V125.4L241.8 124.5Z" fill="#36C3F2"/>
<path d="M237.6 136.1C237.5 136.1 237.4 136.1 237.4 136.1C237.3 136.1 237.3 136.1 237.3 136.1H237.2C237.2 136.1 237.1 136.1 237.1 136C237.1 136 237 135.9 237 135.8C236.9 135.7 236.9 135.6 236.8 135.4C236.7 135.3 236.7 135.1 236.7 134.9C236.7 134.7 236.6 134.5 236.6 134.3C236.6 133.9 236.7 133.5 236.8 133.1C236.9 132.7 237.1 132.5 237.4 132.2C237.7 132 238 131.8 238.4 131.6C238.8 131.4 239.3 131.4 239.8 131.4C240.3 131.4 240.8 131.5 241.2 131.6C241.6 131.7 242 131.9 242.2 132.2C242.4 132.5 242.7 132.8 242.8 133.1C242.9 133.5 243 133.9 243 134.3C243 134.5 243 134.6 243 134.8C243 135 242.9 135.1 242.9 135.3C242.9 135.4 242.8 135.6 242.7 135.7C242.6 135.8 242.6 135.9 242.5 135.9L242.4 136H242.3C242.3 136 242.2 136 242.1 136C242 136 242 136 241.9 136C241.8 136 241.7 136 241.7 136C241.7 136 241.6 136 241.5 136C241.4 136 241.4 136 241.4 135.9C241.4 135.8 241.4 135.9 241.4 135.8C241.4 135.8 241.4 135.7 241.5 135.6C241.6 135.5 241.6 135.4 241.7 135.3C241.8 135.2 241.8 135 241.9 134.9C242 134.7 242 134.5 242 134.3C242 134 241.9 133.8 241.8 133.6C241.7 133.4 241.6 133.2 241.4 133.1C241.2 133 241 132.9 240.7 132.8C240.4 132.7 240.1 132.7 239.8 132.7C239.4 132.7 239.1 132.7 238.8 132.8C238.5 132.9 238.3 133 238.1 133.1C237.9 133.2 237.8 133.4 237.7 133.6C237.6 133.8 237.6 134 237.6 134.3C237.6 134.5 237.6 134.7 237.7 134.9C237.8 135.1 237.8 135.2 237.9 135.3C238 135.4 238 135.5 238.1 135.6C238.2 135.7 238.2 135.7 238.2 135.8V135.9C238.2 135.9 238.2 135.9 238.1 135.9C238 135.9 238 135.9 237.9 135.9C237.9 136.1 237.8 136.1 237.6 136.1Z" fill="#36C3F2"/>
<path d="M237.2 145.7C237.1 145.7 237 145.8 236.9 145.8C236.8 145.8 236.8 145.8 236.7 145.8C236.7 145.8 236.6 145.7 236.6 145.6C236.6 145.5 236.6 145.4 236.6 145.2C236.6 145 236.6 144.9 236.6 144.8C236.6 144.7 236.6 144.6 236.6 144.6C236.6 144.6 236.6 144.5 236.7 144.5C236.8 144.5 236.8 144.5 236.8 144.5L238.1 144.1V141.7L236.9 141.3C236.9 141.3 236.8 141.3 236.8 141.2L236.7 141.1C236.7 141.1 236.7 141 236.7 140.9C236.7 140.8 236.7 140.7 236.7 140.6C236.7 140.5 236.7 140.3 236.7 140.2C236.7 140.1 236.7 140.1 236.8 140C236.8 140 236.9 140 237 140C237.1 140 237.2 140 237.3 140.1L242.9 142C243 142 243 142 243 142.1L243.1 142.2C243.1 142.3 243.1 142.3 243.1 142.4C243.1 142.5 243.1 142.6 243.1 142.8C243.1 143 243.1 143.1 243.1 143.3C243.1 143.4 243.1 143.5 243.1 143.6C243.1 143.7 243.1 143.7 243 143.7L242.9 143.8L237.2 145.7ZM241.8 142.8L239.1 141.9V143.7L241.8 142.8Z" fill="#36C3F2"/>
<path d="M239.9 155.3C239.3 155.3 238.8 155.2 238.4 155.1C238 154.9 237.7 154.7 237.4 154.4C237.1 154.1 236.9 153.8 236.8 153.4C236.7 153 236.6 152.5 236.6 152V150.5C236.6 150.4 236.6 150.3 236.7 150.2C236.8 150.1 236.9 150.1 237 150.1H242.5C242.6 150.1 242.7 150.1 242.8 150.2C242.9 150.3 242.9 150.4 242.9 150.5V152.1C242.9 152.7 242.8 153.1 242.7 153.5C242.6 153.9 242.4 154.2 242.1 154.5C241.8 154.8 241.5 155 241.1 155.1C240.7 155.2 240.4 155.3 239.9 155.3ZM239.9 154C240.2 154 240.5 154 240.7 153.9C241 153.8 241.2 153.7 241.4 153.6C241.6 153.4 241.7 153.2 241.8 153C241.9 152.8 242 152.4 242 152V151.4H237.7V152.1C237.7 152.5 237.7 152.7 237.8 153C237.9 153.3 238 153.4 238.2 153.6C238.4 153.8 238.6 153.9 238.9 154C239.2 153.9 239.5 154 239.9 154Z" fill="#36C3F2"/>
<path d="M237.2 163.6C237.1 163.6 237 163.6 237 163.6C236.9 163.6 236.9 163.6 236.8 163.6C236.7 163.6 236.7 163.6 236.7 163.5V163.4V160.2C236.7 160.1 236.7 160 236.8 159.9C236.9 159.8 237 159.8 237.1 159.8H242.6C242.7 159.8 242.8 159.8 242.9 159.9C243 160 243 160.1 243 160.2V163.4V163.5C243 163.5 243 163.5 242.9 163.6C242.9 163.6 242.8 163.6 242.7 163.6C242.6 163.6 242.6 163.6 242.5 163.6C242.4 163.6 242.3 163.6 242.3 163.6C242.2 163.6 242.2 163.6 242.1 163.6C242 163.6 242 163.6 242 163.5C242 163.5 242 163.5 242 163.4V161.1H240.5V163V163.1C240.5 163.1 240.5 163.1 240.4 163.2C240.4 163.2 240.3 163.2 240.2 163.2C240.1 163.2 240.1 163.2 240 163.2C239.9 163.2 239.8 163.2 239.8 163.2C239.7 163.2 239.7 163.2 239.7 163.2C239.7 163.2 239.6 163.2 239.6 163.1V163V161.1H237.8V163.4V163.5C237.8 163.5 237.8 163.5 237.7 163.6C237.6 163.7 237.6 163.6 237.5 163.6C237.4 163.6 237.3 163.6 237.2 163.6Z" fill="#36C3F2"/>
<path d="M236.9 175.6C236.8 175.6 236.8 175.6 236.9 175.6C236.8 175.6 236.8 175.5 236.7 175.5C236.7 175.5 236.7 175.4 236.7 175.3C236.7 175.2 236.7 175.1 236.7 175C236.7 174.9 236.7 174.8 236.7 174.7C236.7 174.6 236.7 174.6 236.7 174.5C236.7 174.4 236.7 174.4 236.8 174.4C236.9 174.4 236.9 174.4 236.9 174.4H242L236.9 172.6C236.9 172.6 236.8 172.6 236.8 172.5C236.8 172.5 236.8 172.4 236.7 172.4C236.7 172.3 236.7 172.3 236.7 172.2C236.7 172.1 236.7 172 236.7 171.9C236.7 171.8 236.7 171.7 236.7 171.6C236.7 171.5 236.7 171.5 236.7 171.4C236.7 171.4 236.7 171.3 236.8 171.3C236.9 171.3 236.9 171.3 236.9 171.2L242 169.4H236.9H236.8C236.8 169.4 236.8 169.3 236.7 169.3C236.6 169.3 236.7 169.2 236.7 169.1C236.7 169 236.7 168.9 236.7 168.8C236.7 168.7 236.7 168.6 236.7 168.5C236.7 168.4 236.7 168.4 236.7 168.3C236.7 168.3 236.7 168.2 236.8 168.2H236.9H242.5C242.7 168.2 242.8 168.2 242.9 168.3C243 168.4 243 168.5 243 168.7V169.5C243 169.6 243 169.8 243 169.9C243 170 242.9 170.1 242.9 170.2C242.8 170.3 242.8 170.3 242.7 170.4C242.6 170.5 242.5 170.5 242.4 170.5L238.6 171.9L242.4 173.3C242.5 173.3 242.7 173.4 242.7 173.4C242.8 173.5 242.9 173.5 242.9 173.6C243 173.7 243 173.7 243 173.8C243 173.9 243 174 243 174.1V175C243 175.1 243 175.2 243 175.2C243 175.3 242.9 175.3 242.9 175.4C242.9 175.4 242.8 175.5 242.7 175.5C242.6 175.5 242.6 175.5 242.5 175.5H236.9V175.6Z" fill="#36C3F2"/>
<path d="M239.1 183H236.9H236.8C236.8 183 236.8 182.9 236.7 182.9C236.6 182.9 236.7 182.8 236.7 182.7C236.7 182.6 236.7 182.5 236.7 182.4C236.7 182.3 236.7 182.2 236.7 182.1C236.7 182 236.7 182 236.7 181.9C236.7 181.8 236.7 181.8 236.8 181.8C236.9 181.8 236.9 181.8 236.9 181.8H239.1L242.5 180.1C242.6 180 242.7 180 242.8 180C242.9 180 242.9 180 243 180C243 180 243.1 180.1 243.1 180.2C243.1 180.3 243.1 180.4 243.1 180.6C243.1 180.7 243.1 180.9 243.1 181C243.1 181.1 243.1 181.2 243.1 181.2C243.1 181.3 243.1 181.3 243 181.3C243 181.3 242.9 181.3 242.9 181.4L241.3 182.1C241.1 182.2 241 182.2 240.8 182.3C240.6 182.4 240.5 182.4 240.3 182.5C240.5 182.6 240.6 182.6 240.8 182.7C241 182.8 241.1 182.8 241.3 182.9L242.8 183.6C242.9 183.6 242.9 183.6 242.9 183.7L243 183.8C243 183.8 243 183.9 243 184C243 184.1 243 184.2 243 184.3C243 184.5 243 184.6 243 184.7C243 184.8 243 184.9 242.9 184.9C242.9 184.9 242.8 184.9 242.7 184.9C242.6 184.9 242.5 184.8 242.4 184.8L239.1 183Z" fill="#36C3F2"/>
</svg>
