<svg width="160" height="20" viewBox="0 0 160 20" fill="none" xmlns="http://www.w3.org/2000/svg">
<mask id="mask0_305_983" style="mask-type:luminance" maskUnits="userSpaceOnUse" x="0" y="0" width="160" height="20">
<path d="M159.386 0.714294H0V19.2714H159.386V0.714294Z" fill="white"/>
</mask>
<g mask="url(#mask0_305_983)">
<path d="M2.41432 12.6147L2.40003 12.5432L2.37146 12.6147H2.41432Z" fill="#E5DBEA"/>
<path d="M11.9572 11.7L12.6001 13.2143C12.4287 13.1143 12.2715 13.0429 12.1715 13.1C11.6715 13.4286 11.4144 14.1143 10.7144 14.1143C10.6429 14.1143 10.6144 14.3286 10.5572 14.4428C10.3287 14.8428 10.2858 14.3286 10.1572 14.2572C9.60009 13.9143 10.0572 13.7572 10.1572 13.5143C10.1858 13.4572 10.1001 13.2715 10.0287 13.2286C9.87151 13.1286 9.6858 13.0572 9.51437 12.9858C9.54294 13.0858 9.61437 13.2572 9.61437 13.2572C8.95723 13.5715 9.9858 14.5857 9.34294 14.9C9.2858 14.9286 9.22866 15.1143 9.25723 15.1428C9.67151 15.6714 9.22866 15.7714 9.07151 16C9.04294 16.0428 8.91437 16 8.82866 16C8.85723 16.0286 8.8858 16.0714 8.90009 16.0857C9.02866 16.0857 9.14294 16.0857 9.25723 16.0857L9.57151 16.0571C9.51437 16.1571 9.47151 16.3286 9.37151 16.3571C8.50008 16.6428 7.65723 16.9571 6.81437 17.3143C6.51437 17.4428 6.32866 17.7714 6.0858 17.9857C5.9858 18.0714 5.80009 18.0714 5.65723 18.0286C5.5858 18.0143 5.52866 17.8143 5.45723 17.7C5.57151 17.6857 5.6858 17.6714 5.7858 17.6428C5.8858 17.6 5.9858 17.5286 6.0858 17.4857C5.9858 17.4 5.85723 17.2143 5.81437 17.2286C5.57151 17.3428 5.34294 17.5 5.11437 17.6571C5.02866 17.7143 4.97151 17.8143 4.87151 17.8714C4.84294 17.8857 4.75723 17.8143 4.70009 17.7714C4.75723 17.6714 4.7858 17.5286 4.85723 17.4714C5.37151 17.1428 4.60009 17.2571 4.6858 17.0857C4.17151 17.5714 4.20009 14.7714 3.40009 16.5714C3.31437 16.7571 2.71437 16.6143 2.35723 16.6286C2.45723 16.5286 2.61437 16.4428 2.61437 16.3286C2.61437 16.1857 2.50009 16 2.42866 15.8428C2.34294 15.8714 2.20009 15.8857 2.20009 15.9286C2.20009 16.0286 2.27151 16.1428 2.31437 16.2428C2.31437 16.2714 2.35723 16.3286 2.34294 16.3428C2.27151 16.4 2.1858 16.4571 2.11437 16.5143C1.94294 16.2714 1.70009 16.0571 1.61437 15.8C1.3858 15.1286 1.00008 14.5571 0.500082 14.0429C0.428654 13.9715 0.528652 13.6 0.557224 13.6C0.94294 13.6429 1.11437 13.4715 1.21437 13.1143C1.24294 12.9858 1.3858 12.9 1.4858 12.7858C1.50009 12.8572 1.50009 12.9858 1.54294 13.0143C1.62866 13.0715 1.80009 13.1 1.81437 13.0715C1.87151 12.9286 1.84294 12.7286 1.92866 12.6C2.01437 12.4572 2.1858 12.3715 2.32866 12.2572L2.37151 12.6L2.34294 12.6715C2.34294 12.6715 2.22866 12.6715 2.1858 12.6715C2.17151 12.6715 2.17151 12.7286 2.15723 12.7572C2.20009 12.7572 2.27151 12.8 2.27151 12.8L2.34294 12.6715H2.3858V12.6C2.44294 12.4429 2.52866 12.2858 2.60009 12.1429C2.65723 12.0286 2.80009 11.8572 2.85723 11.8858C3.70009 12.2715 3.91437 11.5715 4.30009 11.1429C4.31437 11.1286 4.40009 11.1858 4.45723 11.2C4.41437 11.2429 4.37151 11.2858 4.32866 11.3429C4.30009 11.3715 4.27151 11.4429 4.27151 11.4572C4.31437 11.5 4.37151 11.5143 4.41437 11.5572C4.42866 11.5858 4.40009 11.6429 4.3858 11.6858C4.42866 11.6572 4.4858 11.5858 4.51437 11.5858C4.71437 11.6572 4.41437 10.7143 4.90009 11.4143L5.67151 10.7L5.1858 10.7429L5.4858 10.3286C5.60009 10.1858 5.77151 10.0715 5.85723 9.91433C6.17151 9.32862 6.84294 9.68576 7.2858 9.4429C7.32866 9.41433 7.31437 9.25719 7.35723 9.22862C7.50009 9.11433 7.6858 9.05719 7.80009 8.92862C8.21437 8.48576 7.6858 8.85719 7.67151 8.77148C7.67151 8.7429 7.65723 8.70005 7.67151 8.68576L8.04294 8.30005C8.04294 8.30005 8.14294 8.41433 8.17151 8.48576C8.20009 8.55719 8.17151 8.62862 8.17151 8.70005C8.27151 8.57148 8.40009 8.47148 8.4858 8.32862C8.54294 8.2429 8.52866 8.02862 8.57151 8.02862C8.82866 8.02862 9.04294 7.5429 9.34294 8.00005C9.37151 8.0429 9.42866 8.0429 9.47151 8.07148C9.47151 8.0429 9.47151 8.00005 9.47151 7.97148L9.32866 7.55719C9.47151 7.70005 9.67151 7.81433 9.74294 7.98576C9.80009 8.1429 9.65723 8.38576 9.72866 8.5429C9.7858 8.67148 9.9858 8.77148 10.1429 8.8429C10.3001 8.91433 10.5429 8.88576 10.6429 9.00005C10.7572 9.12862 10.8144 9.17148 10.8287 9.17148L11.6429 11.0715C11.5144 10.9429 11.3858 10.8143 11.3858 10.9429L11.2001 10.8858L11.1715 11.2429C11.4429 11.2429 11.6858 11.5858 11.9287 11.7572L11.9572 11.7ZM5.75723 14.4428C5.5858 14.5 5.35723 14.5143 5.24294 14.6428C5.12866 14.7714 5.10009 15 5.04294 15.1857L5.52866 15.1286L5.75723 14.4428ZM7.0858 12.8715C7.0858 12.8715 7.00009 12.8715 6.97151 12.9L6.07151 13.9572C6.00009 14.0429 5.8858 14.1 5.7858 14.1715L6.31437 14.0572C6.31437 13.5858 6.80009 14.5571 6.77151 13.8572C6.77151 13.5143 6.95723 13.2 7.07151 12.8715H7.0858ZM10.9572 11.6858C10.7715 11.2572 10.6001 11.5572 10.4001 11.6429C9.91437 11.5572 10.6572 12.0286 10.3429 12.0286L11.0001 12.1C11.0001 11.9572 11.0001 11.8143 10.9572 11.6858Z" fill="#E5DBEA"/>
<path d="M12.5429 13.5573C12.4143 13.8288 11.8429 13.543 11.9143 14.1288C11.8715 14.0573 11.8286 13.9716 11.7715 13.9145C11.7715 13.9002 11.6572 13.943 11.6572 13.9716C11.6572 14.6002 12.1 14.2716 12.3143 14.4573L12.4143 14.5287L12.3572 13.9573C12.5 13.6716 12.5715 13.9573 12.6572 14.2288L13 14.143L12.6715 13.3859C12.6715 13.3859 12.5857 13.4716 12.5429 13.5573Z" fill="#E5DBEA"/>
<path d="M11.5714 14.3429C11.0143 14.4143 10.6429 14.6286 11.3857 15.3143C11.2286 14.9143 11.2 14.5714 11.7429 14.4714C11.6857 14.4286 11.6143 14.3429 11.5857 14.3429H11.5714Z" fill="#E5DBEA"/>
<path d="M11.4002 15.3281L11.3859 15.3138L11.4002 15.3424V15.3281Z" fill="#E5DBEA"/>
<path d="M11.543 15.6717L11.4001 15.3431L11.4287 15.7146L11.543 15.6717Z" fill="#E5DBEA"/>
<path d="M10.2001 15.0148C10.2001 15.0148 10.1716 15.1148 10.1573 15.172L10.8859 15.3148C10.8859 15.3148 11.0144 15.1434 11.0144 15.1291C10.7287 14.7434 10.4716 14.9577 10.2001 15.0291V15.0148Z" fill="#E5DBEA"/>
<path d="M10.4572 8.21441C10.4572 8.21441 10.5572 8.17156 10.5858 8.17156L10.5001 7.97156L10.4572 8.21441Z" fill="#E5DBEA"/>
<path d="M142.429 13.9432L142.214 14.8717L141.814 14.1003C141.814 14.1003 141.671 14.0289 141.6 14.0003C141.6 14.1003 141.571 14.2146 141.586 14.3146C141.586 14.686 141.643 15.0574 141.629 15.4289C141.629 15.5003 141.429 15.586 141.314 15.6717C141.086 14.2289 141.057 16.1431 140.8 15.7431C140.514 15.3003 139.771 15.6574 139.586 14.9289C139.5 14.6146 139.486 13.9146 138.829 14.2289C138.871 14.1146 138.914 14.0003 138.943 13.8718C139.043 13.4003 138.771 13.9146 138.7 13.7861C138.429 13.2289 138.057 13.7861 137.743 13.7861C137.657 13.7861 137.543 13.7003 137.5 13.6146C137.471 13.5575 137.571 13.4289 137.6 13.3289C137.129 13.9575 136.614 13.5718 136.186 13.4289C135.871 13.3146 135.657 12.8718 135.429 12.5718C135.4 12.5432 135.414 12.4861 135.4 12.4289C135.214 12.5289 134.871 12.6432 134.871 12.7146C134.871 13.2003 134.471 13.1861 134.286 13.4146C134.014 13.0718 133.443 13.4718 133.243 12.7432C133.057 12.0861 132.386 11.9003 131.714 12.3003C131.686 12.0718 131.714 11.7861 131.614 11.6289C131.371 11.2432 131.043 10.9289 131.614 10.4432C131.643 10.4146 131.571 10.2289 131.543 10.1289L131.486 10.3718L131.457 10.4432C130.957 9.77177 130.971 10.5432 130.929 10.8003C130.757 11.9289 129.943 10.4718 129.743 11.3718C129.686 11.3289 129.6 11.3003 129.571 11.2289C129.471 10.9718 129.357 10.9289 129.2 11.0861C129.157 11.1146 129.057 11.0575 128.986 11.0289C128.929 11.0003 128.886 10.9575 128.829 10.9146L129 10.8575L129.143 10.8003C129.143 10.8003 129.086 10.7146 129.057 10.7003C128.871 10.6432 128.686 10.5861 128.5 10.5432C128.114 10.4718 128.443 11.5432 127.857 11.1575L127.157 10.6861C127.243 10.6146 127.371 10.5718 127.4 10.4861C127.657 9.70034 126.843 9.7432 126.771 9.20034C126.757 9.0432 126.771 8.88606 126.786 8.72891L126.243 9.37177C126.529 9.50034 126.457 9.61463 126.229 9.81463C126.057 9.95749 125.186 9.85749 125.114 9.57177C125 9.05749 124.871 9.68606 124.786 9.60034C124.557 9.38606 124.343 9.1432 124.1 8.95749C123.986 8.87177 123.7 8.82891 123.671 8.87177C122.943 10.3718 122.843 9.11463 122.443 8.71463C122.2 8.47177 121.729 8.27177 121.457 8.41463C120.986 8.65749 121.1 7.78606 120.743 8.02891L120.529 8.18606C120.529 8.05749 120.429 7.85749 120.457 8.11463C120.5 8.58606 119.914 8.21463 120.057 8.62891C119.957 8.60034 119.543 8.98606 119.857 8.40034C119.514 8.20034 119.171 7.85749 118.8 7.8432C118.314 7.8432 117.814 8.17177 117.343 8.32891C117.271 8.35749 117.186 8.32891 117.1 8.31463C117.186 8.1432 117.271 7.98606 117.343 7.80034C117.4 7.6432 117.429 7.48606 117.471 7.31463C117.386 7.41463 117.286 7.48606 117.229 7.60034C116.957 8.15749 116.857 6.82891 116.571 7.51463C116.514 7.67177 116.4 7.80034 116.314 7.92891C116.443 7.97177 116.571 8.0432 116.7 8.0432C116.771 8.0432 116.829 7.58606 116.943 7.97177C117.029 8.30034 116.771 8.27177 116.629 8.27177C116.257 8.27177 115.714 8.38606 115.543 8.15749C115.086 7.51463 114.471 8.0432 114.014 7.62891C114.014 7.62891 113.971 7.65749 113.943 7.68606C114 7.78606 114.043 7.90034 114.114 8.00034C114.229 8.17177 114.643 8.05749 114.4 8.5432C114.386 8.58606 114.286 8.60034 114.243 8.57177C114.186 8.51463 114.143 8.38606 114.086 8.35749C113.843 8.27177 113.671 7.98606 113.329 8.28606C112.871 8.67177 112.486 7.45749 111.886 7.91463C111.629 8.11463 111.329 8.02891 111.029 7.75749C110.9 7.6432 110.543 7.91463 110.314 8.0432C110.071 8.18606 109.857 8.40034 109.614 8.55749C109.6 8.55749 109.443 8.27177 109.357 8.11463C109.2 8.45749 108.914 8.08606 108.871 8.12891C108.457 8.6432 107.829 8.42891 107.357 8.8432C106.857 9.27177 106.071 9.31463 105.4 9.47177C104.814 9.60034 105.614 8.9432 105.257 9.07177C104.714 9.27177 104.229 9.58606 103.729 9.91463C103.7 9.92891 103.7 10.0003 103.686 10.0575C103.686 10.0432 103.643 10.0146 103.643 10.0003C103.643 9.88606 103.586 9.7432 103.629 9.68606C103.7 9.58606 103.814 9.5432 103.914 9.47177C103.686 9.3432 103.429 9.10034 103.229 9.12891C102.971 9.15749 103 9.02891 102.986 8.8432C103.214 8.77177 103.6 8.75749 103.629 8.61463C103.771 7.81463 104.557 8.60034 104.743 8.00034C104.786 8.07177 104.843 8.1432 104.871 8.22891C104.871 8.25749 104.843 8.32891 104.814 8.32891C104.729 8.3432 104.643 8.32891 104.571 8.3432C104.543 8.3432 104.543 8.4432 104.543 8.50034L105.171 8.35749C105.171 8.35749 105.243 8.27177 105.271 8.22891L105.343 8.48606C105.729 8.22891 105.1 7.48606 105.657 7.30034C105.114 7.3432 104.514 7.25749 104.029 7.45749C103.529 7.65749 102.686 7.70034 103 8.85749C102.4 8.75749 103.086 9.3432 102.786 9.57177C102.443 9.8432 102.329 9.61463 102.086 9.45749C102.014 9.41463 101.771 9.5432 101.771 9.60034C101.843 10.5718 100.771 9.8432 100.7 10.6003C100.586 10.5575 100.557 11.0003 100.343 10.5432C100.129 10.1003 99.7429 10.5432 99.4572 10.6146C99.0286 10.7432 98.9429 11.2146 98.9857 11.7289C98.9857 11.7718 98.7857 11.8718 98.7572 11.8432C98.5714 11.6575 98.4 11.4432 98.2286 11.2432C98.3714 11.1146 98.4 10.9432 98.1714 10.8718C98.0714 10.8432 97.9572 10.9718 97.8572 11.0289L97.5286 10.2718C97.4429 10.0861 97.3286 9.92891 97.2286 9.75749C97.2286 9.87177 97.2 10.0432 97.2572 10.1003C97.6572 10.5432 97.0143 10.6718 97.1429 11.0146C97.3429 11.5146 96.8714 11.3289 96.7857 11.4003C96.5429 11.5718 96.1572 11.7146 95.9286 11.1718C95.9714 11.3289 96.0857 11.5289 96.0572 11.6289C96.0143 11.7718 95.8429 11.8432 95.7286 11.9575C95.8286 11.9289 95.9143 11.8861 96.0143 11.8718C96.0714 11.8718 96.1429 11.8718 96.2 11.8861V11.9861C95.8 11.9861 96.2572 12.7861 95.7714 12.6718C95.7 12.6575 95.6429 12.5146 95.5714 12.4289L95.8143 12.3575L95.9286 12.3289C95.6429 12.1432 95.3572 11.9575 95.0572 11.8003C95.0143 11.7861 94.9143 11.9575 94.8429 12.0432L94.9572 12.1146C94.8572 12.2575 94.7143 12.3861 94.6429 12.5575C94.6 12.6861 94.6857 12.9861 94.6429 13.0003C94.4286 13.0575 94.4286 12.9432 94.2857 12.6861C93.8143 11.8146 93.8143 13.2003 93.3714 13.0146C93.3572 13.0146 93.3143 13.1289 93.2714 13.1861C93.2 13.1146 93.1143 13.0432 93.0572 12.9432C93.0429 12.9146 93.1143 12.7861 93.1714 12.7575C93.3143 12.6861 93.4572 12.6575 93.6 12.6003C93.4429 12.2003 93.1714 12.2861 93.0429 12.4575C92.6 13.0289 92.1286 12.2861 91.6857 12.4289C91.5857 12.4575 91.5143 12.5575 91.4429 12.6289L91.7 12.7575C91.7 12.7575 91.7857 12.8146 91.8143 12.8575L91.1429 13.1861C91.0714 13.2289 90.9714 13.2432 90.9286 13.3003C90.9 13.3289 90.9572 13.5003 90.9857 13.5146C91.0714 13.5432 91.1572 13.5146 91.2572 13.5146C91.1429 13.5575 91.0286 13.6289 90.9143 13.6432C90.6 13.7003 90.3143 13.7003 90.3572 13.1575C90.2286 13.1575 90.1 13.1718 89.9714 13.1575C89.9286 13.1575 89.9 13.0718 89.8572 13.0289C89.9286 13.2146 89.7714 13.5575 90.1429 13.5575C90.1429 13.5575 90.2 13.8718 90.2286 14.0432L89.7572 13.9146C89.7572 13.9146 89.8429 13.8003 89.8572 13.7432C89.8572 13.7146 89.8572 13.6432 89.8572 13.6146L89.5429 13.1146C89.5429 13.2289 89.5429 13.4575 89.5143 13.4575C89.0572 13.4575 88.9143 14.3289 88.3857 14.0146C88.0286 13.8003 88.2286 14.4003 88 14.2432C88.1 14.3717 88.2143 14.6289 88.3 14.6289C88.6714 14.6431 88.5 14.9431 88.5 15.0717C88.5 15.1574 88.3143 15.286 88.2143 15.286C88.1 15.286 87.9429 15.1574 87.8857 15.0289C87.7429 14.7289 87.6572 14.4003 87.5429 14.0718C87.5714 14.3003 87.6572 14.5574 87.6 14.7717C87.5429 15.0146 87.3857 15.186 87.2572 14.7431C87.2286 14.6717 87.0429 14.6431 86.9143 14.6003C87.0143 14.5574 87.1286 14.5431 87.2286 14.4717C87.3 14.4146 87.4 14.2575 87.3857 14.2289C87.2572 14.0432 87.1143 13.8861 86.9714 13.7146C86.9714 13.8003 86.9857 13.9146 86.9572 13.9861C86.8857 14.1432 86.7714 14.2718 86.6857 14.4289C86.5857 14.0146 86.1572 14.686 86.0714 14.1432C86.0572 14.0432 85.8714 13.9718 85.7572 13.8861C85.7572 13.9718 85.7429 14.0575 85.7572 14.1289C85.7572 14.1575 85.8429 14.1718 85.8714 14.2146C85.9714 14.4146 86.1572 14.7146 85.8286 14.7717C85.5572 14.8003 85.2572 14.6431 84.9572 14.586C84.8 14.5574 84.5857 14.5146 84.5 14.6003C84.4286 14.686 84.2143 15.0431 84.6429 15.086V15.2289C84.4572 15.2003 84.2429 15.2289 84.1 15.1289C83.8429 14.9431 83.6572 15.2003 83.6714 15.286C84.1714 17.0003 82.4857 15.8289 82.3 16.6146C82.2714 16.586 82.2286 16.5717 82.2286 16.5431C82.2143 16.4003 82.1714 16.2574 82.2 16.1289C82.2572 15.9003 82.3572 15.686 82.4429 15.4717C82.4143 15.4717 82.3572 15.4717 82.3572 15.486C82.3286 16.2146 80.9714 15.2574 81.3286 16.5146C81.3572 16.6289 81.3 16.8574 81.2429 16.886C80.9714 17.0003 80.6857 17.0431 80.4143 17.1146C80.5143 16.9431 80.5857 16.7003 80.7286 16.6146C81.0429 16.4289 81.0286 16.186 80.9143 15.886C80.8429 15.6717 80.7429 15.4717 80.6429 15.2717L80.6857 16.1003C80.6857 16.1003 80.6714 16.1574 80.6572 16.1574C80.6286 16.1574 80.5714 16.1574 80.5714 16.1289C80.4 15.7431 80.3 15.4574 79.9572 16.0146C79.7 16.4289 79.6143 16.0574 79.6 15.7574V15.7289L79.6572 15.0146L80.3714 15.2431C80.3714 15.2431 80.3572 15.3717 80.3429 15.4289L80.5143 15.3574C80.4572 15.2431 80.3857 15.1431 80.3572 15.0289C80.3 14.7717 80.2714 14.5003 80.2429 14.2432C80.3 14.2432 80.3572 14.2146 80.4 14.2432C80.4857 14.3003 80.5714 14.386 80.6572 14.4574C80.5714 14.3431 80.5143 14.1718 80.4143 14.1289C80.2857 14.0861 80.0572 14.0861 80.0143 14.1718C79.9143 14.3431 79.9 14.7717 79.8572 14.7717C79.3714 14.7431 79.8286 14.2575 79.6 14.0575C79.3286 13.8146 79.6429 14.7003 79.3429 14.2432C79.1857 14.0146 79.2429 13.7432 78.8286 13.7718C78.2143 13.8003 78.1572 14.0718 78.4143 14.6431C78.5 14.8289 78.6429 14.986 78.7714 15.1574C78.8429 15.0574 78.9286 14.9717 79 14.8717C79 14.8574 78.9429 14.7574 78.9 14.7003L78.5572 14.3431C78.5572 14.3431 78.7429 14.2003 78.7572 14.2289C78.9 14.386 79.1 14.5574 79.1429 14.7431C79.2286 15.1146 78.9143 15.686 79.5714 15.7289V15.7574C79.5 16.1289 79.2143 15.8717 79.1286 15.8289C78.1857 15.4289 78.6572 16.3431 78.5 16.6717L78.4572 16.7717C78.2143 16.4717 77.7857 16.7146 77.7143 16.6574C77.2572 16.3003 76.2572 17.086 76.2572 15.8289C76.0286 17.1003 75.9572 15.4289 75.7572 15.7717C75.7572 15.786 75.6429 15.7574 75.6429 15.7717C75.6286 15.8717 75.5857 16.0574 75.6143 16.0574C76.2286 16.3289 75.2 16.5574 75.6286 16.8146C75.3429 16.8717 75.1429 16.686 74.9 16.5431C74.5 16.3289 73.9429 16.3289 73.4857 16.4289C73.0572 16.5146 73.9143 16.8289 73.4286 17.2289C72.6 17.9146 72.7857 16.5289 72.2857 16.686C72.3857 16.186 71.9 16.7146 71.9 16.4003C71.8572 16.5003 71.8286 16.6574 71.7714 16.686C71.4429 16.8289 71.5286 16.1717 71.1 16.3003C70.6572 16.4289 70.1429 16.2003 69.6714 16.286C69.1714 16.3717 69.9 16.586 69.6714 16.7717C69.6143 16.8146 69.6143 16.9146 69.5714 16.986C69.3572 16.5289 68.8572 16.986 68.6714 16.7003C68.3143 16.1289 68 16.0574 67.6857 16.5717C67.6429 16.6431 67.5286 16.7003 67.4572 16.7003C67.3714 16.7003 67.3143 16.586 67.2429 16.5289C67.3143 16.5289 67.4 16.5289 67.4572 16.486C67.5 16.4574 67.5286 16.3431 67.5143 16.3146C67.3143 15.9717 67.1143 15.3431 66.9143 15.3431C66.5429 15.3431 66.8857 14.586 66.5857 14.9717C66.3857 15.2431 66.4572 15.786 66.4143 16.2146V16.2717C66.1572 16.186 65.9 15.986 65.6857 16.3574C65.6857 16.2574 65.7572 16.1003 65.7143 16.0574C65.6429 15.9717 65.5 15.9003 65.4143 15.9289C64.8 16.1431 64.4857 15.7431 64.2429 15.2431C63.7572 15.8717 63.3572 15.0146 62.9 15.2431C62.8857 15.2431 62.8714 15.286 62.8714 15.3146C62.0857 14.5574 61 15.086 60.1429 14.6289C59.8 14.4431 59.3857 14.3003 58.9857 14.3146C58.6714 14.3146 58.3286 14.586 58.0143 14.7717C57.9429 14.8146 57.9143 14.986 57.8714 15.086C57.8 14.8574 57.2714 15.0146 57.5429 14.5003C57.5714 14.4574 57.4572 14.3289 57.4143 14.2432C57.3857 14.286 57.3429 14.3146 57.3286 14.3717L57.1857 14.7431C57.1286 14.6146 57.0143 14.4717 57.0429 14.3574C57.0714 14.2003 57.0857 14.0003 57.3714 14.0289C57.8857 14.0718 57.7714 13.8289 57.4857 13.6003C57.2429 14.1146 57.2429 13.5432 57.1286 13.5146C56.5143 13.3861 55.9143 13.2146 55.3143 13.0718L53.7857 12.7146C53.6286 13.6861 53.2286 12.6432 52.9857 12.9575L52.9143 12.9289C53.2572 11.8718 52.4286 12.2432 52.1143 12.0289C52.0857 12.0003 51.9429 12.1289 51.8857 12.2146C51.8572 12.2575 51.8572 12.4003 51.8857 12.4146C51.9714 12.4718 52.0857 12.5003 52.2 12.5432L51.6 12.6718V11.4289L51.3572 12.1146C51.3572 12.1146 51.2572 12.0718 51.2429 12.0432C51.0714 11.5432 51.0857 11.5718 50.6143 11.8003C50.4572 11.8718 50.2429 11.6432 50.0429 11.6432C49.4143 11.6146 48.8 11.6432 48.1857 11.6432C48.1286 11.6432 48.0714 11.7432 48.0143 11.8003L48.2429 12.0861C48.2429 12.0861 48.1572 12.2003 48.1 12.2432C47.7286 12.5003 47.4572 12.3432 47.2143 12.0432C47.4429 12.1575 47.4286 12.0432 47.5857 11.8003C47.7286 11.5861 48.0714 11.5575 48.3286 11.4575C48.4 11.4289 48.4714 11.4861 48.5572 11.5003C48.5572 11.4003 48.5714 11.2861 48.5572 11.1861C48.5143 10.6861 48.0857 11.2718 47.9714 10.9575C47.8429 11.0575 47.5714 10.3575 47.5714 11.1289C47.4714 11.1289 47.2857 11.1861 47.2572 11.1289C46.7857 9.80034 45.4714 10.6146 44.7143 9.88606C44.4714 9.65749 43.8714 10.0861 43.4429 10.2146C43.5286 10.6861 43.2429 10.5432 43.1143 10.5003C42.7429 10.4146 43.6143 9.97177 43.0857 10.0003C42.5714 10.0289 42.4857 10.6575 42.8572 11.3003C42.9 11.3718 42.9143 11.4861 42.9 11.5718C42.9 11.6146 42.8143 11.6432 42.7572 11.6861L42.7 11.4432C42.7 11.4432 42.6714 11.3718 42.6572 11.3432C42.6429 11.3861 42.6 11.4146 42.6 11.4575L42.5572 11.9432L42.1572 11.2718C41.9286 10.9003 42.1572 11.6575 41.9714 11.4146C41.9429 11.3718 41.8429 11.4146 41.7857 11.4432C42.0286 11.8003 41.3429 11.4289 41.6143 11.8003C41.6429 11.8432 41.6857 11.8575 41.7143 11.9003L41.4857 11.9718C41.6 11.0146 40.9857 11.9432 40.7429 11.5718C40.5572 11.2861 39.8286 11.7432 39.5143 11.5003C38.9857 11.1146 38.4857 11.6575 38.0429 11.4146C37.8429 11.3146 37.6143 11.1718 37.4429 10.8146C37.2 10.3432 37.1714 11.2575 36.8286 11.3432C36.2429 11.4861 36.9286 10.8003 36.6286 10.9146C35.9572 11.1575 36.7857 10.7146 36.5857 10.7432C36.4857 10.7432 36.3714 10.7718 36.2857 10.7146C36.1714 10.6289 36.0857 10.4718 36 10.3432C35.9286 10.4575 35.8 10.5861 35.8143 10.6718C35.8429 10.8718 35.9429 11.0432 36.0143 11.2289C35.5429 11.1432 34.9429 11.2575 34.6 10.9146C34.1286 10.4289 33.8714 10.3718 33.6143 11.0575C33.3429 10.4003 33.0286 11.6003 32.6 10.9718C32.4143 10.7003 31.6572 11.1289 31.1572 11.2432C31.1 11.2432 31.0429 11.2146 31 11.1861C31.2714 11.1861 30.6 10.5861 31.1429 10.7718C31.1857 10.7718 31.2429 10.6718 31.2857 10.6146C31.2143 10.5861 31.1286 10.5003 31.0857 10.5289C30.9286 10.6289 30.7714 10.7575 30.6572 10.9146C30.6286 10.9575 30.7 11.1432 30.7286 11.2575C30.4429 11.1718 30.1714 11.1289 29.8857 11.0718C29.7143 11.0432 29.5286 11.0146 29.3572 11.0432L27.3572 11.4146C26.7572 11.5003 26.1429 11.4718 25.5286 11.5146C25.1429 11.5289 24.7572 11.5861 24.3714 11.6575C24 11.7146 23.5857 11.6575 23.2572 11.8432C22.4429 12.2861 21.5572 12.3575 20.6857 12.3289C20.1857 12.3146 19.7 12.6289 19.2572 12.3718C18.7143 12.0718 18.8143 13.0432 18.5 12.7861C17.8143 12.2289 17.6143 13.5003 16.8572 13.0718C16.6 12.9289 16.2857 12.4003 16.0857 12.6003C15.8 12.9003 15.5429 12.7003 15.2572 12.6861C14.9857 12.6861 14.7286 12.9432 14.4857 12.8718C14.0571 12.7289 13.6429 12.4289 13.2143 12.2003C13.2 12.2003 13.1429 12.2289 13.1571 12.2432C13.3857 13.4003 12.9571 13.0575 12.5571 12.8289L11.9143 11.3146C12.1 11.4432 12.2714 11.4718 12.4857 11.2289C12.9714 10.6718 13.8428 11.4575 14.2571 10.7289C14.2571 10.7289 14.4429 10.8718 14.4572 10.8432C14.6 10.6718 14.8857 10.4003 14.8429 10.3003C14.6857 9.90034 14.5 10.3003 14.3143 10.3003C14.1143 10.3575 13.9286 10.4003 14 10.0289C14.0286 9.87177 14.0286 9.70034 14.0286 9.5432C13.5857 9.8432 12.8429 9.60034 12.6429 10.3432C12.6143 10.4432 12.4714 10.5003 12.3857 10.5861C12.3429 10.5003 12.3 10.4146 12.2428 10.3575C12.1571 10.2718 12.0428 10.1718 11.9428 10.1289C11.9 10.1146 11.7571 10.2575 11.7714 10.2861C12.0286 11.0289 11.8286 10.8289 11.6143 10.6289L10.8 8.72891C10.8 8.72891 10.6429 8.31463 10.7857 8.42891C10.7286 8.35749 10.6714 8.28606 10.6 8.2432L10.5143 8.0432C10.5143 7.95749 10.5429 7.88606 10.5714 7.81463C10.6857 7.55749 11.2857 7.48606 10.7714 6.97177C10.7143 6.91463 10.7 6.77177 10.7 6.67177C10.7 6.62891 10.8 6.60034 10.8571 6.57177C10.8571 6.62891 10.8571 6.70034 10.8714 6.75749C11.0714 7.31463 11.1714 6.42891 11.3571 6.75749C11.4571 6.9432 11.5429 7.28606 11.6286 7.30034C12 7.35749 12 7.12891 11.8714 6.77177C11.7143 6.35749 11.7571 6.37177 12.4143 6.30034C12.5143 6.30034 12.5143 5.8432 12.6571 5.77177C12.9286 5.61463 13.2429 5.25749 13.6 5.72891C13.6 5.7432 13.7 5.68606 13.7286 5.70034C13.9857 5.87177 13.3571 4.85749 13.9714 5.48606C13.9857 5.50034 14.3143 5.2432 14.4143 5.0432C14.8714 4.22891 14.7286 5.61463 15.0429 5.28606C15.1 5.67177 15.1572 5.81463 15.3143 5.3432C15.3286 5.30034 15.5714 5.32891 15.6857 5.35749C15.7286 5.37177 15.7572 5.51463 15.7857 5.60034C15.6857 5.60034 15.6 5.57177 15.5 5.58606C15.4572 5.58606 15.4286 5.62891 15.4 5.65749C15.5857 5.78606 15.7714 6.02891 15.9429 6.01463C16.6286 6.00034 17.3 5.88606 17.9857 5.82891C18.1286 5.82891 18.2143 5.6432 17.9429 5.62891C17.8572 5.62891 17.7572 5.60034 17.7 5.62891C17.4286 5.77177 17.1 6.02891 17.0286 5.4432C17 5.25749 17.6572 5.11463 17.6857 4.87177C17.8286 3.95749 18.9857 5.30034 18.9572 4.18606C18.9572 4.11463 18.9857 4.02891 19 3.95749C18.9143 3.95749 18.8143 3.95749 18.7572 3.98606C18.3857 4.30034 18.4 4.30034 17.9 3.8432C18.3143 3.78606 18.7714 3.82891 19.1143 3.6432C19.6714 3.35749 19.1572 4.28606 19.5 4.02891C19.6714 3.90034 19.7143 3.55749 19.8857 3.38606C20.0286 3.2432 20.2714 3.27177 20.4714 3.21463C20.4 3.41463 20.3286 3.60034 20.2714 3.80034C20.2714 3.82891 20.3143 3.88606 20.3429 3.92891C20.4714 3.81463 20.6429 3.55749 20.7286 3.60034C21.4714 3.91463 21.6286 3.1432 21.9714 2.80034C22.5857 2.11463 25.1714 2.22891 25.6714 3.02891C26.1 3.70034 25.6714 2.68606 25.8857 2.90034C26.4143 3.4432 26.6429 2.68606 26.6429 2.51463C26.6 1.51463 27.1714 2.41463 27.3143 2.2432C27.6429 1.85749 28.0714 2.01463 28.4572 1.9432C28.5143 1.9432 28.6286 1.9432 28.6429 1.98606C28.9572 3.01463 29.3 1.17177 29.6143 2.01463C29.7857 1.22891 30.6143 2.91463 30.6714 1.68606C30.6429 2.50034 31.4429 2.00034 31.6286 2.48606C31.5572 2.48606 31.4429 2.45749 31.4286 2.48606C31.3857 2.58606 31.3429 2.75749 31.3857 2.81463C31.5 2.97177 31.6714 3.08606 31.8143 3.22891C31.7714 3.11463 31.7286 3.00034 31.7 2.88606C31.7 2.88606 31.7714 2.81463 31.8 2.81463C32.0857 2.80034 32.4286 2.67177 32.6429 2.81463C33.0857 3.08606 32.9857 3.41463 32.5572 3.6432C32.5857 3.70034 32.6 3.80034 32.6286 3.80034L33.4857 3.70034L33.4286 3.17177C33.4143 3.00034 33.3 2.72891 33.3714 2.65749C33.6429 2.35749 33.9429 1.77177 34.3286 2.55749C34.3286 2.55749 34.4572 2.51463 34.5143 2.48606L34.8857 2.30034C34.8286 2.40034 34.7714 2.48606 34.7286 2.58606C34.6857 2.72891 34.6 2.97177 34.6429 3.01463C34.8143 3.17177 35.0286 3.27177 35.2286 3.40034L34.8429 2.9432L34.7143 2.81463L34.7857 2.75749C35.2 3.20034 35.6857 3.02891 36.1714 2.97177L36.3 2.7432C36.3 2.7432 36.3714 2.70034 36.3857 2.65749C36.7 2.35749 37 2.0432 37.3286 1.75749C37.4286 1.67177 37.6 1.65749 37.7286 1.61463C37.6572 2.05749 38.4 1.61463 38.2286 2.20034C38.2 2.31463 38.3286 2.50034 38.4 2.6432C38.4143 2.50034 38.4286 2.35749 38.4572 2.21463C38.4857 2.11463 38.5286 1.92891 38.5714 1.92891C39 1.92891 39.4429 1.92891 39.8714 1.98606C39.8143 2.12891 39.7143 2.27177 39.7 2.41463C39.6714 2.57177 39.7143 2.7432 39.7429 2.91463C39.7429 2.92891 39.7857 2.9432 39.8143 2.97177C39.8572 2.87177 39.8857 2.67177 39.9286 2.67177C40.1857 2.67177 40.1857 3.2432 40.6 3.02891C40.8572 2.90034 41.2286 2.41463 41.1572 2.07177C41.1572 2.01463 41.2143 1.88606 41.2429 1.87177C41.5714 1.80034 42.1143 1.58606 42.2143 1.72891C42.5 2.17177 42.8714 1.55749 43.1 1.90034C43.1714 2.00034 43.2857 2.0432 43.3857 2.10034L43.0572 2.45749C43.0572 2.3432 43.0572 2.2432 43.0572 2.12891C43.0572 2.07177 42.9857 1.97177 42.9714 1.97177C42.8286 2.0432 42.7 2.11463 42.5572 2.20034C42.5857 2.2432 42.6143 2.30034 42.6572 2.32891C42.7143 2.37177 42.7857 2.40034 42.8572 2.4432C42.8286 2.48606 42.8 2.57177 42.7714 2.57177C42.6857 2.58606 42.5714 2.60034 42.4857 2.57177C42.3714 2.52891 42.2714 2.4432 42.1714 2.38606L41.9857 3.02891L42.4286 3.17177C42.5572 3.22891 42.8 3.31463 42.8 3.35749C42.7429 3.78606 42.6 3.3432 42.5 3.38606C42.4429 3.41463 42.3857 3.45749 42.3429 3.50034C42.5143 3.58606 42.6714 3.75749 42.8429 3.77177C43.4143 3.81463 43.9857 3.80034 44.5714 3.80034C44.5857 3.80034 44.6286 3.68606 44.6143 3.65749C44.5714 3.5432 44.5286 3.40034 44.4429 3.35749C44 3.10034 44.5572 2.6432 44.3143 2.35749L44.8 2.72891L44.5429 3.00034C44.5429 3.00034 44.5572 3.05749 44.5714 3.07177C44.6429 3.02891 44.7572 3.01463 44.7857 2.9432C44.8572 2.80034 44.9 2.62891 44.9286 2.47177C44.9572 2.35749 44.9572 2.2432 44.9714 2.12891C45.0143 2.18606 45.0572 2.25749 45.1143 2.30034C45.5857 2.70034 46.0429 3.12891 46.4857 3.57177C46.9857 2.1432 47.0714 3.57177 47.3286 3.70034C47.8857 3.9432 47.5143 3.3432 47.6714 3.25749C48.2857 2.91463 48.8714 3.28606 49.4429 3.31463C50.0143 3.32891 50.6143 3.11463 51.1429 3.45749C51.3 3.55749 51.4143 3.70034 51.5572 3.82891C51.4857 3.88606 51.3714 4.00034 51.3286 3.98606C51.2286 3.91463 51.1429 3.80034 51.0572 3.70034L50.9 4.20034C51.2 4.11463 51.5 3.98606 51.8 3.95749C51.9714 3.95749 52.1572 4.28606 52.1857 4.35749C52.4572 4.85749 52.7714 3.90034 52.9714 4.35749C52.9857 4.40034 53.0714 4.38606 53.1286 4.40034C53.0714 4.45749 53.0286 4.51463 52.9714 4.55749C52.8572 4.62891 52.7286 4.67177 52.6143 4.7432C52.6 4.7432 52.6572 4.91463 52.6857 5.00034C52.8286 4.92892 52.9857 4.87177 53.1143 4.77177C53.2572 4.67177 53.3572 4.51463 53.5 4.42891C53.5286 4.41463 53.6857 4.6432 53.7143 4.68606C54.0286 5.12891 53.5286 4.71463 53.5286 4.88606C53.5286 5.00034 53.5286 5.20034 53.6 5.21463C53.7857 5.27177 54.0286 5.21463 54.1714 5.31463C54.3 5.41463 54.3286 5.68606 54.3572 5.88606C54.3714 6.00034 54.3143 6.1432 54.2857 6.28606C54.2857 6.28606 54.3572 6.32892 54.4 6.32892L55.0286 6.25749L54.6286 6.48606C54.6286 6.48606 54.5857 6.55749 54.5714 6.60034C54.7714 6.65749 54.9572 6.72891 55.1572 6.77177C55.2143 6.77177 55.2714 6.72891 55.3286 6.70034C54.8429 6.65749 56.1857 5.77177 55.1429 5.95749C55.1143 5.95749 54.8286 5.80034 55.1143 5.6432C55.1857 5.60034 55.3429 5.67177 55.3714 5.62891C55.6429 5.17177 54.6 4.87177 55.3 4.48606C55.5857 4.32891 55.6286 4.95749 55.5429 5.35749C55.5429 5.38606 55.6 5.42891 55.6286 5.47177C55.6857 5.40034 55.7572 5.32891 55.8143 5.25749C55.8714 5.17177 55.9143 5.07177 55.9714 4.97177C56.0286 5.15749 56.1 5.3432 56.1286 5.5432C56.1286 5.60034 56.0286 5.70034 55.9714 5.78606C56 5.78606 56.0429 5.82891 56.0572 5.81463L56.2714 5.47177L56.4572 5.11463C56.5572 5.20034 56.6572 5.30034 56.7572 5.37177C57.1 5.61463 57.4143 6.01463 57.8429 5.3432C57.9143 5.2432 58.2572 5.31463 58.4429 5.38606C58.5286 5.41463 58.5286 5.65749 58.5714 5.81463C58.4572 5.7432 58.3429 5.65749 58.2143 5.62891C58.1286 5.61463 57.9714 5.65749 57.9429 5.72891C57.8286 6.05749 57.1857 6.07177 57.4857 6.6432C57.6 6.85749 57.6572 6.75749 57.7143 6.60034C57.7429 6.51463 57.7143 6.41463 57.7572 6.3432C57.9857 5.72891 58.3572 6.25749 58.6572 6.1432C59.1143 5.98606 59.3 6.10034 58.8 5.71463L58.8143 5.62891C59.0286 5.62891 59.2286 5.62891 59.4429 5.67177C59.4714 5.67177 59.4572 5.87177 59.4429 5.98606C59.4429 6.02891 59.3857 6.08606 59.3429 6.12891C59.4 6.12891 59.4572 6.15749 59.5 6.12891C60.0429 5.72891 60.3429 5.92891 60.4714 6.57177C60.4714 6.62891 60.4429 6.68606 60.4286 6.75749L60.2714 6.60034C60.2714 6.60034 60.2286 6.51463 60.2 6.47177C60.1 6.58606 59.9572 6.67177 59.9286 6.80034C59.9 6.91463 60.0143 7.0432 60.0714 7.15749C60.0714 7.08606 60.0714 6.9432 60.0714 6.9432C60.2572 6.90034 60.4429 6.87177 60.6286 6.85749C60.6286 6.85749 60.6572 7.00034 60.6286 7.02891C60.5429 7.1432 60.2429 7.05749 60.4286 7.38606L60.1572 7.57177L60.6286 7.87177C60.6714 7.62891 60.6429 7.27177 60.7714 7.15749C61.1286 6.81463 61.5286 6.42892 61.9143 6.32892C62.2 6.2432 62.0429 6.67177 61.9143 6.90034L61.9857 6.95749C62.3429 6.1432 62.8572 7.22891 63.2143 6.60034C63.2143 6.60034 63.3 6.62891 63.3429 6.65749C63.1572 7.12891 63.9286 6.4432 63.6286 7.0432C63.8 7.11463 63.9572 7.22891 64.1429 7.25749C64.7 7.35749 65.2714 7.41463 65.8286 7.48606C66.2572 7.55749 66.6714 7.72891 67.0857 7.70034C68.1714 7.65749 69.1143 7.60034 70.0572 8.37177C70.3857 8.62891 71.0286 8.0432 71.4714 8.15749C71.8 8.2432 72.2286 7.72891 72.4714 8.41463C72.9429 9.6432 73.2714 8.07177 73.7429 8.22891C74.1714 8.37177 74.6714 8.0432 75.1286 8.10034C75.5857 8.15749 76.0714 8.32891 76.3572 9.00034C76.3572 9.02891 76.4429 9.02891 76.5 9.02891C76.5 8.95749 76.5 8.90034 76.5 8.82891L76.3857 8.42891C76.5572 8.45749 76.7286 8.45749 76.8857 8.51463C76.9286 8.52891 76.9572 8.72891 76.9857 8.82891C77.0143 8.6432 77.1143 8.42891 77.0714 8.28606C76.8 7.4432 77.5714 8.40034 77.4714 7.87177C77.9143 7.8432 78.3714 7.81463 78.8286 7.72891C79.1 7.68606 78.6857 8.02891 79.0143 8.12891C79.6429 8.31463 80.0286 7.78606 80.5286 7.6432C80.8 7.57177 81.0572 7.12891 81.4 7.60034C81.7857 6.8432 81.6714 8.10034 81.9286 7.85749C82.0143 7.77177 82.1286 7.6432 82.1286 7.51463C82.1286 7.35749 81.6143 7.32891 81.8714 7.21463C82.4 6.98606 83.0286 6.92891 83.6286 7.32891C83.7286 7.38606 83.8 7.48606 83.8857 7.57177C83.8572 7.47177 83.8286 7.37177 83.8 7.28606L83.7286 6.87177C83.8 6.98606 83.8714 7.08606 83.9429 7.18606C84.0572 7.32891 84.0572 7.75749 84.3143 7.50034C84.4286 7.37177 84.4 7.0432 84.5 6.88606C84.5714 6.77177 84.7714 6.78606 84.9286 6.7432L84.9 7.3432C84.8 7.40034 84.7 7.42891 84.6143 7.50034C84.5572 7.55749 84.5143 7.65749 84.4714 7.7432L85.6857 7.62891C85.6857 7.62891 85.7429 7.50034 85.7714 7.42891L85.4 7.2432C85.4286 7.88606 85.2 7.51463 85.0286 7.32891C85.0857 7.01463 85.3 6.51463 85.4429 6.81463C85.6429 7.20034 85.9 7.02891 85.9714 7.05749C86.4286 7.18606 85.9714 6.68606 86.1286 6.42891C86.5143 5.7432 86.7143 6.80034 87 6.57177C87.0714 6.51463 87.2 7.02891 87.2143 6.7432C87.2143 6.47177 87.3714 6.47177 87.4143 6.3432C87.5714 5.80034 87.6572 5.42892 88.2857 5.91463C88.4714 6.05749 88.9286 5.50034 89.2857 5.38606C89.8 5.21463 90.3429 4.72891 90.9 5.57177C90.9143 5.60034 91.0143 5.57177 91.0714 5.57177C90.9572 4.80034 91.2857 5.21463 91.6 5.25749C91.9 5.30034 91.9857 4.68606 92.4429 4.62891C93.3429 4.50034 94.2429 4.22891 95.1 3.88606C95.5429 3.71463 96.1286 4.12891 96.4572 3.52891C96.4572 3.52891 96.5572 3.62891 96.5857 3.61463C96.6857 3.58606 96.7857 3.48606 96.8857 3.48606C97.2857 3.48606 97.7 3.47177 98.1 3.48606C98.3714 3.50034 98.1 3.08606 98.4714 3.0432C99.4429 2.90034 100.443 2.57177 101.429 2.30034C101.914 2.17177 102.386 2.02891 102.9 1.92891L104.257 1.65749C104.257 2.01463 104.571 1.88606 104.586 1.8432C104.943 0.900343 105.857 2.18606 106.3 1.37177C106.343 1.30034 106.8 1.42891 107.014 1.55749C107.386 1.80034 107.657 1.58606 107.929 1.42891C108.786 0.914629 109.743 0.986057 110.7 1.05749C111.2 1.08606 111.714 1.00034 112.229 0.986057C112.271 0.986057 112.357 1.0432 112.371 1.10034C112.429 1.30034 112.457 1.51463 112.5 1.72891C112.871 1.51463 112.457 1.22891 112.543 0.986057C112.543 0.957486 112.543 0.928915 112.543 0.914629L113.086 1.38606C113.114 1.25749 113.129 1.02891 113.186 1.01463C113.543 0.928915 113.871 0.786057 114.3 0.8432C114.857 0.914629 115.414 0.786057 116.014 0.914629C117.071 1.20034 118.2 1.11463 119.286 1.21463C120.214 1.3432 121.229 1.37177 122.029 1.78606C122.571 2.08606 123.071 1.72891 123.514 2.05749C123.757 2.2432 124.043 2.60034 124.243 2.5432C124.786 2.37177 124.886 2.91463 125.171 3.10034C125.914 3.55749 126.857 2.97177 127.571 3.55749C127.771 3.72891 128.214 3.55749 128.557 3.50034C128.871 3.4432 128.257 4.0432 128.829 3.92891C129.8 3.75749 130.757 4.07177 131.414 4.75749C131.757 5.10034 131.886 5.1432 132.229 4.85749C132.257 4.97177 132.271 5.20034 132.329 5.20034C132.814 5.25749 133.314 5.22891 133.771 5.3432C134.486 5.51463 135.214 5.70034 135.886 5.98606C137.2 6.55749 138.414 7.3432 139.843 7.48606C139.586 8.21463 140.443 7.27177 140.271 7.88606C140.271 7.91463 140.457 7.98606 140.557 8.0432L140.471 7.81463C140.471 7.81463 140.457 7.71463 140.471 7.70034C140.5 7.67177 140.557 7.6432 140.586 7.65749L141.443 8.27177C141.443 8.27177 141.514 8.32891 141.543 8.32891C142.029 8.31463 142.514 8.25749 142.986 8.18606C143.014 8.18606 143.071 7.98606 143.086 7.98606C143.214 8.01463 143.443 8.08606 143.443 8.12891C143.386 8.42891 143.471 8.52891 143.586 8.55749L142.329 14.0575L142.429 13.9432ZM29.0714 3.18606L29.8 3.25749L30.0286 3.0432C29.7572 2.78606 29.4857 2.32891 29.2286 2.3432C28.5143 2.35749 29.6429 3.01463 29.0714 3.18606ZM21.7572 6.6432L21.9143 6.52891C22.1714 6.97177 22.5429 6.50034 22.8286 6.72891L22.9572 6.57177C22.7143 6.27177 22.4286 6.18606 21.9143 6.52891L21.8857 6.48606C21.8857 6.48606 21.8857 6.45749 21.8857 6.47177L21.7429 6.6432H21.7572ZM17.2572 9.91463C17.3714 10.1146 17.5714 10.2718 17.7286 10.4432L17.9857 9.71463C17.8286 9.65749 17.6143 9.52891 17.4 9.51463C17.3429 9.51463 17.2143 9.8432 17.2572 9.91463ZM15.4286 9.48606C15.4572 9.25749 15.5714 8.88606 15.5143 8.8432C14.9429 8.42891 14.7857 9.67177 14.1571 9.1432L14.0429 9.37177C14.5714 10.0718 14.9572 8.81463 15.4143 9.48606H15.4286ZM15.9 10.8861C15.8286 10.8289 15.7143 10.6861 15.7 10.7003C15.5857 10.8003 15.5 10.9289 15.4 11.0575L16.0286 11.5575L16.1 11.3003C16.0143 11.2575 15.9 11.2432 15.8286 11.1861C15.6 10.9861 16.2572 11.1861 15.9 10.9003V10.8861ZM16.5286 10.0575C16.6572 10.0003 16.7 9.75749 16.7857 9.60034C16.4143 9.72891 16.0286 9.8432 15.5572 10.0003V10.3003C15.8714 10.2146 16.2143 10.1861 16.5286 10.0575ZM20.1857 11.1575C20.0143 11.1146 19.8286 11.1432 19.6572 11.1432L19.8857 11.2718L20.0143 11.3432C19.9286 11.4003 19.8572 11.4718 19.7714 11.5146C19.7143 11.5289 19.6429 11.4861 19.5714 11.4575C19 11.2575 18.4143 10.8718 17.8857 11.3432C17.5143 11.2289 17.2429 11.2861 17.2429 11.8146C17.3572 11.7718 17.5 11.7575 17.6 11.6861C17.7143 11.6003 17.7857 11.4575 17.8714 11.3289C17.9429 11.4575 18.3143 11.1861 18.1429 11.6289C18.7286 11.6575 19.3143 11.6575 19.9 11.7718C20.0429 11.8003 19.9143 11.2861 20.1429 11.6575C20.1857 11.6003 20.2714 11.5432 20.2714 11.4718C20.2714 11.3575 20.2143 11.1432 20.1857 11.1289V11.1575ZM23.7143 10.5432C23.4143 10.5432 23.1143 10.5432 22.8143 10.5861C22.7857 10.5861 22.7429 10.7289 22.7572 10.8003C22.7714 10.8861 22.8286 11.0003 22.8857 11.0575C23.0143 11.1718 23.1429 11.2718 23.2714 11.3718C23.2857 11.3146 23.3429 11.2146 23.3286 11.2003C22.6429 10.4146 23.4143 10.7432 23.6 10.6289L23.7143 10.5289V10.5432ZM23.2714 8.17177C23.2714 8.17177 23.3714 8.27177 23.4143 8.31463C23.4286 8.12891 23.4572 7.92891 23.4572 7.7432C23.4572 7.7432 23.3286 7.68606 23.2714 7.68606C23.1714 7.68606 23.0857 7.7432 22.9857 7.75749C22.9857 7.75749 22.9572 7.6432 22.9286 7.58606C23.0143 7.58606 23.1 7.58606 23.1857 7.5432C23.7429 7.30034 24.0286 7.30034 23.6 8.10034C23.5857 8.12891 23.6 8.2432 23.6429 8.25749C23.7 8.30034 23.8286 8.3432 23.8429 8.31463C23.9429 8.12891 24.0143 7.91463 24.0857 7.71463C23.8429 7.6432 23.9572 6.92891 23.4572 7.20034C23.2572 7.31463 22.9429 7.12891 22.6857 7.15749C22.4714 7.18606 22.1572 7.20034 22.3429 7.65749C21.5143 7.10034 20.9429 8.20034 20.1429 7.92891C20.0286 7.88606 19.8572 8.07177 19.7429 8.20034C19.7 8.2432 19.7143 8.4432 19.7572 8.51463C19.8572 8.65749 19.9857 8.75749 20.1 8.88606C19.8857 8.88606 19.6714 8.85749 19.4714 8.87177C19.3 8.87177 19.1286 8.9432 18.9572 8.97177C18.9714 9.02891 18.9857 9.11463 19.0143 9.12891C19.1857 9.17177 19.3572 9.22891 19.5143 9.22891C19.6429 9.22891 19.7714 9.20034 19.9 9.17177C19.9286 9.17177 19.9572 9.17177 19.9857 9.20034C19.9429 9.27177 19.8572 9.38606 19.8714 9.40034C20.0143 9.58606 19.3714 9.41463 19.8 9.70034C19.5143 9.81463 19.5286 10.0289 19.7 10.3003C19.7286 10.3575 19.8572 10.3575 19.9286 10.3432C20.1 10.2861 20.2714 10.2003 20.4286 10.1146C20.3857 10.2146 20.3572 10.3289 20.2857 10.4003C20.1429 10.5289 19.9714 10.6146 19.8286 10.7289C19.9857 10.7432 20.1714 10.8289 20.3 10.7575C20.4572 10.6718 20.6286 10.5003 20.7 10.3146C20.9857 9.5432 20.2143 9.85749 20.0857 9.48606C20.8429 9.67177 20.4286 8.62891 20.8857 8.3432C21.3 8.08606 21.7572 8.18606 22.1572 7.98606C22.2 7.95749 22.3143 8.02891 22.3572 8.08606C22.3857 8.12891 22.3857 8.25749 22.3572 8.30034C22.3143 8.3432 22.2286 8.38606 22.1714 8.35749C21.5572 8.05749 21.6572 9.21463 21.1 9.02891C21.1143 9.08606 21.1286 9.18606 21.1572 9.20034C21.2143 9.22891 21.3286 9.27177 21.3714 9.22891C21.6 8.97177 21.6429 9.18606 21.6857 9.41463C21.4572 9.61463 21.3286 9.77177 21.7857 9.8432C21.8143 9.8432 21.8143 10.1861 21.8714 10.3718C21.9 10.5003 21.9857 10.6146 22.0429 10.7289C22.1143 10.6575 22.2429 10.5575 22.2286 10.5289C22.0572 10.1575 21.8857 9.80034 21.7 9.42892C22 9.55749 21.5857 8.85749 22.0143 9.0432C22.2429 9.1432 22.5429 8.92892 22.8 8.82891C22.8143 8.82891 22.8 8.61463 22.7572 8.52891C22.4857 7.98606 23.4143 8.60034 23.0714 8.01463L23.2857 8.17177H23.2714ZM24.8572 9.47177C24.7286 9.47177 24.6 9.4432 24.4857 9.4432C24.3143 9.45749 24.1429 9.50034 23.9572 9.52891C23.8 9.21463 24.3857 8.71463 23.7286 8.51463C23.7286 8.68606 24 8.95749 23.6286 9.00034C23.5857 9.00034 23.6 9.35749 23.5857 9.5432C23.7 9.51463 23.7857 8.98606 23.9572 9.5432C24.0572 9.71463 24.1572 9.87177 24.2286 10.0432C24.2572 10.1003 24.1714 10.2146 24.1429 10.3003L24.8143 9.65749C24.8143 9.65749 24.8429 9.5432 24.8572 9.48606V9.47177ZM26.1857 9.10034L25.9 9.38606L25.5714 9.77177C25.3429 9.05749 25.2572 9.92891 25.0857 9.77177C25.2143 9.92891 25.4429 10.0718 25.4714 10.2432C25.5286 10.5146 26 10.5003 25.7572 10.9003C25.7286 10.9432 25.6429 10.9146 25.5857 10.9289C25.6143 10.9575 25.6429 11.0146 25.6714 11.0289C25.7429 11.0432 25.8286 11.0718 25.8857 11.0432C26.2572 10.8432 25.7857 10.6003 25.8572 10.4146C25.7857 10.0718 25.8429 10.0003 26.0714 10.0575C26.4857 10.1575 26.7714 9.65749 26.8 9.42892C26.8572 8.92892 26.2714 9.70034 26.2 9.08606L26.1857 9.10034ZM27.7714 9.28606C27.4572 8.98606 27.7714 10.4146 27.2 9.61463L27.3572 10.7146L27.8857 9.62891C27.8857 9.62891 27.8857 9.40034 27.7714 9.28606ZM29.8143 7.90034C29.8572 7.61463 30.2286 8.20034 30.1857 7.68606C30.3429 7.30034 30.9286 8.81463 30.8857 7.48606C30.8857 7.31463 30.9857 7.12891 31.0429 6.95749C30.8572 6.88606 30.6572 6.8432 30.4714 6.72891C30.3714 6.67177 30.2857 6.5432 30.2143 6.41463C30.1 6.22891 30.0143 5.90034 29.9 5.88606C29.6 5.82892 29.2143 5.78606 29 5.95749C28.6 6.31463 27.9714 5.57177 27.7286 6.3432C27.4714 5.85749 27.1143 6.18606 26.8143 6.12891L26.9857 5.75749C26.8 5.80034 26.6 5.81463 26.4286 5.91463C26.3857 5.9432 26.4286 6.2432 26.4857 6.37177C26.7 6.87177 26.1 6.52891 26.1572 6.85749L26.0429 6.88606L26.0714 6.51463C26.0714 6.51463 26.0857 6.41463 26.0714 6.37177C26.0572 6.32891 26 6.2432 25.9857 6.25749C25.4429 6.51463 25.1572 7.40034 24.3857 7.0432C24.2714 6.98606 24.1857 6.87177 24.0714 6.78606L24.2714 7.92891C24.3714 7.30034 24.7286 8.01463 24.9 7.81463C24.9429 7.75749 24.9857 7.65749 24.9714 7.58606C24.9714 7.52891 24.8572 7.50034 24.8 7.45749L25.1857 7.28606L25.0572 7.8432L24.9714 8.11463L25.4572 7.92891C25.4286 7.8432 25.3857 7.75749 25.3714 7.65749C25.3714 7.5432 25.3714 7.42891 25.3714 7.31463L25.6 7.3432C25.4714 7.85749 25.9857 7.87177 26.0857 8.20034C26.1143 8.28606 26.1286 8.45749 26.1 8.47177C26.0143 8.52891 25.8857 8.5432 25.7857 8.57177L27.1143 8.68606L27.2143 8.52891C26.8572 8.07177 27.6429 8.1432 27.4143 7.77177C27.3857 7.71463 27.2857 7.70034 27.2286 7.65749C27.2857 7.58606 27.3429 7.45749 27.4143 7.4432L29.2429 7.20034C29.2 7.37177 28.9 7.61463 29.3572 7.61463C29.5 7.61463 29.6572 7.78606 29.8 7.88606L29.8143 7.90034ZM33.6286 9.7432C33.6 9.51463 33.6286 9.27177 33.5429 9.07177C33.3857 8.62891 33.3286 9.20034 33.2 9.1432C32.7857 8.12891 32.0572 9.47177 31.5857 8.78606C31.5572 8.82891 31.5429 8.88606 31.5 8.90034C31.3572 9.00034 31.2143 9.08606 31.0572 9.15749C31.0572 9.15749 30.9429 8.95749 30.9286 8.85749C30.8714 8.3432 30.1857 8.8432 30.2429 8.15749C30.2 8.18606 30.1572 8.20034 30.1286 8.2432C30.1 8.30034 30.0857 8.41463 30.1 8.42891C30.4429 8.68606 30.1286 8.85749 30.0429 9.00034C29.9286 9.21463 29.6857 9.37177 30.0857 9.50034C30.2714 9.55749 30.4572 9.61463 30.6143 9.71463C30.8143 9.8432 31.1429 10.1718 31.1714 10.1289C31.4857 9.7432 31.7429 10.3718 31.7429 10.3289C31.9857 9.47177 32.5572 9.25749 33.1714 9.1432C33.0572 9.20034 33.3286 9.70034 32.9572 9.45749C32.8857 9.41463 32.7714 9.45749 32.6714 9.48606V9.58606C32.7714 9.58606 32.8857 9.62891 32.9714 9.58606C33.1429 9.51463 33.3143 9.42891 33.4857 9.38606C33.5 9.38606 33.5572 9.62891 33.6 9.75749L33.6286 9.7432ZM33.9286 6.15749C33.6857 6.11463 33.4 5.95749 33.2143 6.0432C33.0714 6.11463 33.1429 6.35749 33.4286 6.3432C33.6572 6.32891 33.2143 6.88606 33.6429 6.82891C33.8714 6.80034 33.5857 6.31463 33.9429 6.15749H33.9286ZM36.8572 5.67177L36.6286 5.87177C36.3429 6.11463 35.6857 5.77177 35.8143 6.65749C35.8143 6.75749 35.4 6.05749 35.4714 6.75749C35.4857 6.92891 35.9 7.22891 36.2286 7.01463C36.3143 7.62891 35.4857 6.8432 35.6572 7.58606C35.6 7.55749 35.4857 7.5432 35.4857 7.51463C35.4857 6.42891 34.8143 6.30034 34.1714 6.1432C34.1286 6.1432 34.0714 6.25749 34.0286 6.32892C34.0286 6.32892 34.0572 6.40034 34.0714 6.41463C34.4286 6.72891 34.8286 6.97177 35.1143 7.35749C35.3286 7.6432 35.4 8.11463 35.5 8.50034C35.5 8.5432 35.3286 8.75749 35.2572 8.7432C35.0429 8.71463 34.8286 8.4432 34.6143 8.75749C34.8429 8.8432 35.0714 8.9432 35.3 8.98606C35.5286 9.02891 35.7714 8.98606 36 8.98606C35.8857 9.37177 36.5857 9.3432 36.2572 9.82891C36.6286 9.72891 36.3143 9.32891 36.4429 9.1432C36.5286 9.01463 36.7429 8.9432 36.4429 8.87177C36.3857 8.87177 36.2857 9.1432 36.2572 9.12891C36.1 9.0432 36.1286 8.52891 35.8 8.81463C35.9286 8.3432 35.4 7.55749 36.2286 7.4432C36.3857 7.42891 36.6143 7.68606 36.6429 7.30034C36.6429 7.22891 36.3714 7.11463 36.2286 7.02891L36.1286 6.65749C36.2 6.71463 36.2714 6.77177 36.3572 6.81463C36.4429 6.85749 36.6 6.88606 36.6 6.88606L36.8429 5.68606L36.8572 5.67177ZM38 8.01463C38.3714 7.9432 38.7429 7.81463 39.1286 7.81463C39.6857 7.81463 40.2572 7.32891 40.8286 7.75749C40.9 7.81463 41.1286 7.58606 41.2857 7.48606C41.3429 7.4432 41.3714 7.35749 41.4 7.30034L41.1714 7.22891C40.8 7.12891 40.4429 6.9432 40.0714 6.95749C39.7857 6.97177 39.8286 6.75749 39.7286 6.61463C39.6714 6.52891 39.5 6.55749 39.6 6.58606L38.9857 7.02891C38.9857 7.02891 38.9 6.97177 38.9 6.95749C38.9143 6.85749 38.9286 6.75749 38.9857 6.68606C39.0429 6.61463 39.1286 6.58606 39.2 6.5432C39.1286 6.51463 39.0286 6.42892 38.9714 6.47177C38.8857 6.52891 38.8429 6.67177 38.7714 6.7432C38.6143 6.90034 38.4429 7.05749 38.2714 7.15749C38.2429 7.17177 38.1 6.90034 38.0286 6.75749C38.0143 6.72891 38.0286 6.61463 38.0572 6.60034C38.0857 6.57177 38.1572 6.60034 38.2 6.62891C38.3 6.71463 38.2714 7.20034 38.4143 6.91463C38.5714 6.62891 38.4572 6.11463 38.4143 5.71463C38.4143 5.67177 38.0572 5.58606 38.0143 5.65749C37.5143 6.4432 38.1 7.22891 38 8.02891V8.01463ZM40.1572 10.5003C40.1714 10.1003 40.3286 9.62891 39.8429 9.40034C39.5714 9.27177 39.3714 8.68606 39.1429 8.70034C38.7572 8.72891 39.3286 9.12891 39.1143 9.3432C38.9572 9.18606 38.7857 9.05749 38.6572 8.88606C38.6 8.81463 38.6572 8.61463 38.6572 8.47177C38.2572 8.5432 38.6143 9.45749 38.0429 9.32891C38.0429 9.37177 38.0429 9.4432 38.0429 9.45749C38.3857 9.81463 38.7286 9.97177 39.1143 9.48606C39.2714 9.90034 39.4714 10.1718 39.8714 9.87177C39.9 9.85749 40.0143 9.95749 40.0143 10.0146C40.0143 10.7289 39.5143 10.1575 39.3429 10.4861C39.3 10.5718 39.1286 10.5289 39.0143 10.5575C39.2 10.6146 39.3857 10.7432 39.5857 10.7289C39.7857 10.7289 40.1429 10.5861 40.1572 10.5003ZM42.4857 9.82891C42.4572 9.7432 42.4143 9.62891 42.3714 9.5432C42.3572 9.51463 42.2714 9.48606 42.2429 9.51463C41.8143 9.80034 41.3286 9.5432 41.1572 9.30034C40.8143 8.78606 40.6429 9.57177 40.4 9.37177L40.1857 9.81463C40.3714 9.81463 40.5429 9.80034 40.7286 9.81463C41.1429 9.81463 41.3286 10.1861 41.4286 10.6289C41.4286 10.6718 41.2857 10.8003 41.2143 10.8861C41.3286 10.8861 41.4714 10.9146 41.5714 10.8575C41.7857 10.7146 41.2286 10.2861 41.6429 10.3003C41.9 10.3146 42.3857 10.2718 42.4714 9.8432L42.4857 9.82891ZM46.4857 7.8432C46.4857 7.8432 46.5572 7.75749 46.5857 7.71463H46.4286L45.7143 7.67177C45.7143 7.55749 45.7143 7.37177 45.7572 7.35749C45.9 7.30034 46.0572 7.27177 46.2 7.25749C46.2714 7.25749 46.3429 7.32891 46.4 7.37177C46.4 7.31463 46.4429 7.22891 46.4286 7.20034C46.3857 7.10034 46.3 6.95749 46.2429 6.95749C45.8429 7.0432 45.4857 6.48606 45.0429 6.90034C45.0286 6.91463 44.7429 6.57177 44.5857 6.37177C44.5857 6.35749 44.5857 6.27177 44.6143 6.2432C44.6714 6.15749 44.7429 6.07177 44.8143 5.97177L44.4429 6.10034C44.6857 6.28606 43.9143 6.61463 44.4714 6.75749C43.9143 7.10034 44.7286 7.32891 44.5429 7.30034C44.1714 7.22891 43.8429 6.85749 43.6714 7.32891L42.9857 7.7432C42.9857 7.7432 43.0286 7.80034 43.0429 7.81463C43.8286 8.21463 43.8143 8.08606 44.0429 8.01463C44.7429 7.78606 45.4143 7.82891 45.9857 8.4432C46.1714 8.6432 45.9857 7.70034 46.4714 7.80034L46.4857 7.8432ZM47.0714 7.87177C47.0714 7.87177 47.0714 7.78606 47.0714 7.71463L46.3 8.01463L46.7572 8.70034L47.0714 7.88606V7.87177ZM49.3714 4.20034L48.8857 3.50034C48.8572 3.62891 48.8429 3.75749 48.8 3.88606C48.7857 3.9432 48.7286 3.98606 48.6857 4.02891C48.6857 3.97177 48.6857 3.90034 48.6714 3.88606C48.4714 3.70034 48.2714 3.51463 48.0429 3.35749C48.0143 3.3432 47.9 3.4432 47.8429 3.51463C47.8286 3.52891 47.8857 3.67177 47.9 3.67177C48.4286 3.50034 48.4572 3.98606 48.4857 4.31463C48.5143 4.68606 48.7286 4.78606 48.9286 4.77177C49.0572 4.77177 49.1714 4.47177 49.3714 4.21463V4.20034ZM49.7714 8.5432C49.4286 7.9432 49.2429 8.41463 49.0143 8.62891C48.9714 8.67177 48.8143 8.50034 48.7 8.45749C48.6429 8.4432 48.5572 8.51463 48.4857 8.55749C48.6857 9.12891 49.0714 8.77177 49.4 8.72891C49.5 8.71463 49.5857 8.6432 49.7714 8.5432ZM54.8 9.7432C54.8 9.7432 54.7429 9.81463 54.7143 9.8432L54.9143 10.1432L55.4143 9.95749L54.5143 9.00034L54.2572 9.38606L54.1572 9.5432C54.1572 9.5432 54.0857 9.42891 54.0429 9.37177C53.8714 9.18606 53.7143 8.95749 53.5143 8.82891C53.4572 8.80034 53.1572 9.0432 53.1429 9.17177C53 10.2432 52.7857 9.41463 52.6143 9.27177C52.5286 9.20034 52.5 9.05749 52.4286 8.9432C52.4429 9.1432 52.4 9.48606 52.4857 9.52891C52.8572 9.70034 53.0143 10.3003 53.5572 10.1289C53.6714 10.0861 53.9286 10.2718 53.9286 10.3575C53.8 11.7718 54.6572 10.6575 55 10.8289C55.0286 10.7575 55.0714 10.6718 55.0572 10.6146C55.0429 10.4861 54.9857 10.3718 54.9429 10.2432C54.9143 10.3146 54.9143 10.4003 54.8714 10.4575C54.5714 10.8861 54.5714 10.4289 54.4429 10.3146C54.4143 10.2861 54.3143 10.3718 54.2572 10.4003C54.4286 10.0146 54.2143 9.92892 53.9857 9.8432C53.9286 9.82891 53.9 9.72891 53.8572 9.67177L54.8572 9.51463C54.8572 9.60034 54.8429 9.68606 54.8143 9.75749L54.8 9.7432ZM56.0857 10.9718H55.9714C55.9714 10.9718 55.8714 10.8289 55.8857 10.7432C55.8857 10.6432 55.1 10.5575 55.8857 10.4575C56.1572 10.4289 56.3143 10.2718 56.3572 9.9432C56.1143 9.9432 55.8429 9.85749 55.6143 9.9432C55.4857 9.98606 55.3143 10.2718 55.3 10.4432C55.2572 10.8718 55.4857 11.0432 55.9572 10.9861L55.9857 11.0289C55.9857 11.0289 55.9286 11.0575 56.0857 10.9718ZM60.0429 8.00034C59.5429 7.80034 59.3143 7.67177 59.0572 7.61463C58.9714 7.60034 58.8286 7.77177 58.7143 7.87177C58.8 8.02891 58.8714 8.31463 58.9714 8.31463C59.2286 8.31463 59.4857 8.18606 60.0429 8.01463V8.00034ZM60.1 12.0003L59.1 10.8146L58.4429 11.6432V11.7432C58.7857 11.7861 59.1286 11.8146 59.4572 11.8718C59.5143 11.8718 59.5572 12.0289 59.5857 12.1289C59.6 12.2146 59.5857 12.3146 59.5857 12.4146L59.3 12.3861V12.9003L60.0857 12.0003H60.1ZM62.0429 12.4861C61.9 11.3718 61.2572 12.8289 60.9857 12.3146C60.8 12.6432 60.5143 12.9575 60.4572 13.3003C60.4143 13.5575 60.7714 12.8432 60.8857 13.3003L61.6143 12.8432L61.5572 12.7146C61.7286 12.6289 62.0572 12.5003 62.0429 12.4718V12.4861ZM63.7714 12.1289C63.4572 12.0432 63.1572 11.9432 62.8429 11.8575C62.8 11.8575 62.7286 11.9432 62.5429 12.1003C62.8857 12.3432 63.1429 12.5432 63.4286 12.6575C63.4714 12.6718 63.6572 12.3146 63.7714 12.1289ZM68.2714 14.0432C68.2714 13.7575 68.3 13.4432 68.2143 13.1861C67.9714 12.3146 67.4143 13.0289 66.8 12.8432C66.9714 13.1003 67.1286 13.2146 67.1286 13.3432C67.1286 13.5718 66.7 12.9289 66.8286 13.5432C66.8286 13.5575 67.0143 13.5432 67.1143 13.5003C67.3 13.4289 67.4714 13.3289 67.6572 13.2432C67.3429 13.8575 68.2 13.6289 68.0857 14.1003C68.1572 14.0861 68.2714 14.0575 68.2714 14.0432ZM70.1714 9.7432C70.1714 9.8432 70.3143 9.9432 70.3857 10.0146C70.6429 9.91463 71.0714 9.81463 71.0714 9.7432C71.0714 9.07177 70.5 9.8432 70.4 9.3432C70.3286 9.47177 70.1857 9.60034 70.1857 9.7432H70.1714ZM70.1286 12.4146C69.8143 12.4575 70.4572 11.9432 70.0286 12.0575C69.8143 12.1146 69.6143 12.3146 69.4286 12.4718C69.2143 12.6718 69.0286 12.9146 68.8286 13.1432C69.0857 13.3289 69.3143 13.5575 69.6 13.6718C69.7143 13.7146 69.9143 13.5289 70.1143 13.4146C69.9286 13.3003 69.8 13.2146 69.6572 13.1432L69.3 12.9718L69.8143 12.5003H69.9C69.9143 13.1003 70.1572 12.5575 70.1857 12.5289C70.4 12.3289 70.2714 12.3861 70.1286 12.4003V12.4146ZM71.8286 12.0146C71.4572 11.3432 71.3714 12.2575 71.0714 12.2289C70.8857 12.2289 70.6714 12.5718 70.4572 12.7575C71 12.8432 71.4714 12.7146 71.7286 12.0575C71.7286 12.0289 71.8 12.0289 71.8286 12.0146ZM74.0286 15.3003L72.9286 14.5431C73.2 14.8431 72.8286 15.1431 72.8714 15.2289C73.0572 15.5003 73.5 15.0003 73.6857 15.5003L74.0286 15.3146V15.3003ZM75.2429 14.7574C75.2714 14.586 75.4 14.3574 75.3429 14.2432C75.0286 13.5575 74.3714 14.1718 73.9857 13.7432C73.9857 13.7432 73.9286 13.7861 73.9 13.8146L74.0572 13.9861C73.7714 13.7146 73.5429 13.9432 73.4143 14.1861C73.3572 14.286 73.2857 14.7431 73.6429 14.7289C73.8714 14.7289 73.8143 14.5717 73.7857 14.3717C73.7714 14.2718 73.9714 14.1146 74.0714 13.9861C74.2429 14.1003 74.5572 14.2289 74.5429 14.3289C74.5 15.086 75.0714 14.7003 75.3 14.9289C75.2857 14.8717 75.2429 14.8003 75.2572 14.7431L75.2429 14.7574ZM79.4429 12.8718C78.2714 13.2575 78.2572 12.9432 78.5 12.4575C78.5143 12.4146 78.2714 12.0861 78.2 12.1003C77.6 12.2146 78.3857 12.9289 77.9572 13.1432C78.2857 13.6432 78.5857 13.3289 79.4572 12.8718H79.4429ZM79.9286 9.30034L80.8 9.2432C80.5572 9.07177 80.3286 8.8432 80.0714 8.7432C79.9429 8.70034 79.7857 8.88606 79.6429 8.95749C79.8286 8.3432 79.3429 8.47177 79.1572 8.28606C79.0714 8.20034 78.7857 8.20034 78.7714 8.27177C78.4857 9.11463 79.2286 9.01463 79.4714 9.40034C79.5143 9.47177 79.7714 9.3432 79.9286 9.30034ZM81.4286 12.5003C81.0143 12.3289 80.5714 12.0432 80.2572 12.6718L80.1857 12.8289C80.5714 12.9003 80.9714 12.9861 81.3572 13.0146C81.3857 13.0146 81.4429 12.5003 81.4286 12.5003ZM81.0429 8.82891C81.1714 8.7432 81.2714 8.58606 81.3857 8.4432C81.0857 8.40034 80.7714 8.3432 80.5 8.30034C80.4286 8.68606 81 8.20034 80.7429 8.75749C80.8429 8.78606 80.9714 8.85749 81.0429 8.81463V8.82891ZM83.1 14.1289C83.1 14.1289 83.1857 14.0432 83.2286 14.0003C82.8143 13.9432 82.4143 13.9003 82 13.8432C81.9714 13.8432 81.9286 14.0003 81.9143 14.0432C82.3714 15.2289 82.6857 13.6003 83.1 14.1146V14.1289ZM83.4143 14.6289C83.4143 14.6289 83.1 14.5431 82.8857 14.486C82.8429 14.5431 82.7429 14.7003 82.7429 14.7146C82.9429 14.9574 83.1714 15.186 83.3857 15.4289C83.4 15.1574 83.4572 14.886 83.4143 14.6289ZM82.8286 7.61463C82.2714 7.6432 82.6 8.05749 82.6857 8.28606C82.6857 8.72891 82.8714 8.8432 83.1286 8.81463L83.0429 8.67177C82.9429 8.4432 83.0143 8.4432 83.1572 8.52891C83.1143 8.18606 82.5714 8.08606 82.8286 7.61463ZM89.3714 5.95749C89.3 5.85749 89.0714 5.9432 88.8 5.9432C88.7429 6.18606 88.5429 6.52891 88.6286 6.71463C88.8 7.10034 88.8143 6.5432 88.9 6.60034C89.0143 6.65749 89.3429 6.65749 89.1143 6.98606C89.6286 7.47177 89.4572 6.75749 89.5429 6.61463C89.6143 6.48606 89.4857 6.1432 89.3572 5.97177L89.3714 5.95749ZM92.7429 7.85749C92.6286 7.82891 92.4714 7.72891 92.3857 7.78606C92.2143 7.90034 92.0714 8.08606 91.9143 8.2432L92.2286 8.55749L92.7429 7.85749ZM93.7286 9.30034C93.4572 9.11463 93.1572 8.95749 92.8714 8.87177C92.8143 8.85749 92.7143 9.1432 92.6286 9.30034L93.6286 9.85749C93.6714 9.6432 93.7714 9.31463 93.7286 9.30034ZM98.5143 8.75749C98 8.75749 98.5286 8.11463 98.3714 8.18606C97.6143 8.47177 98.3714 8.87177 98.4572 9.22891C98.4572 9.28606 98.5286 9.32891 98.5572 9.38606C98.6857 9.17177 98.8572 9.0432 98.8429 8.90034C98.8286 8.68606 98.6857 8.77177 98.5143 8.75749ZM98.9286 7.50034C98.9286 7.50034 98.8714 7.4432 98.8572 7.45749C98.5286 7.60034 98.2143 7.75749 97.7857 7.9432L97.7572 7.88606C97.7572 7.88606 97.7572 7.8432 97.7572 7.87177V7.95749H97.7857C97.8429 8.02891 97.9143 8.15749 97.9286 8.1432C98.2429 8.02891 98.5429 7.91463 98.8286 7.75749C98.8857 7.72891 98.8857 7.58606 98.9143 7.50034H98.9286ZM99.0857 4.62891L98.3572 4.60034L98.1429 4.9432L98.9429 5.40034C98.7429 5.05749 98.6429 4.75749 99.0857 4.62891ZM100.757 4.48606C100.757 4.48606 100.586 4.60034 100.6 4.62891C100.671 4.88606 100.771 5.12891 100.857 5.37177C101 5.31463 101.314 5.70034 101.271 5.30034C101.243 5.00034 100.929 4.71463 100.771 4.47177L100.757 4.48606ZM103.4 5.58606L102.957 6.52891C103.057 6.55749 103.214 6.62891 103.257 6.58606C103.471 6.31463 103.7 6.07177 103.843 5.7432C103.886 5.62891 103.657 5.55749 103.4 5.58606ZM109.986 4.75749C109.8 4.62891 109.629 4.42891 109.514 4.47177C109.314 4.5432 109.157 4.7432 108.971 4.90034C109.229 5.10034 109.471 5.25749 109.743 4.97177L109.971 4.77177L109.986 4.75749ZM110.029 4.21463C110.129 4.95749 110.614 4.77177 111.086 4.8432L111.343 4.70034C110.957 4.47177 110.586 4.2432 110.186 4.02891C110.157 4.02891 110.029 4.15749 110.043 4.21463H110.029ZM110.243 6.1432C110.386 6.3432 110.557 6.51463 110.8 6.80034C110.871 6.51463 111 6.2432 110.943 6.17177C110.829 6.00034 110.614 5.90034 110.429 5.82891C110.386 5.81463 110.229 6.11463 110.243 6.1432ZM111.814 7.37177C111.386 7.17177 110.971 6.97177 110.529 6.77177L110.4 7.42891L111.771 7.47177C111.771 7.47177 111.8 7.41463 111.814 7.38606V7.37177ZM117.214 5.02891C117.057 4.81463 116.929 4.52891 116.729 4.41463C116.614 4.3432 116.386 4.52891 116.214 4.60034C116.414 4.85749 116.386 5.51463 116.943 5.2432L117.214 5.02891ZM120.086 7.00034C120.129 6.58606 119.9 7.11463 119.686 6.67177C119.686 7.05749 119.743 7.2432 119.686 7.28606C119.586 7.37177 119.457 7.38606 119.329 7.42891L119.714 7.88606C119.829 7.58606 120.029 7.28606 120.057 6.98606L120.086 7.00034ZM136.414 12.5575L135.729 12.0575L135.386 12.1146C135.557 12.3718 135.686 12.6718 135.914 12.8718C135.971 12.9146 136.243 12.6575 136.429 12.5432L136.414 12.5575Z" fill="#E5DBEA"/>
<path d="M120.071 8.57144V8.62858C120.071 8.62858 120.086 8.57144 120.071 8.57144Z" fill="#E5DBEA"/>
<path d="M56.0002 11.0002C56.0002 11.0002 55.943 11.0288 56.1002 10.9431H55.9859L56.0144 11.0002H56.0002Z" fill="#E5DBEA"/>
<path d="M33.2143 9.10016V9.11444L33.2286 9.10016H33.2143Z" fill="#E5DBEA"/>
<path d="M97.7716 7.85715V7.94286H97.8001L97.7716 7.87143V7.85715Z" fill="#E5DBEA"/>
<path d="M21.9 6.48578L21.7571 6.64292L21.9143 6.52864L21.8857 6.48578H21.9Z" fill="#E5DBEA"/>
<path d="M17.8715 11.3285H17.8857V11.3142L17.8715 11.3285Z" fill="#E5DBEA"/>
<path d="M44.0571 11.1995C44.0571 11.1995 44 11.2995 43.9714 11.2995C43.8714 11.271 43.7714 11.2424 43.6571 11.1995C43.7429 11.1567 43.8143 11.1281 43.9 11.0853C43.9429 11.0567 44.0143 10.971 44.0143 10.9424C43.9857 10.8281 43.9286 10.7138 43.8857 10.6138C43.8714 10.6567 43.8429 10.6995 43.8286 10.7424L43.7714 10.9424C43.5714 10.8995 43.3571 10.8424 43.1571 10.771C43.1143 10.771 43.1 10.6995 43.0571 10.6567C43.0286 10.7567 43 10.8424 43 10.9424C43 10.9995 43.0571 11.1138 43.0714 11.1138C43.6143 10.9424 43.6714 11.5281 43.7857 11.9281C43.9286 12.4281 44.3429 12.0424 44.5143 12.3424L44.7286 12.0567L44.9857 11.3138C44.6857 11.2853 44.3857 11.2138 44.0714 11.2138L44.0571 11.1995Z" fill="#E5DBEA"/>
<path d="M14.0285 13.1147C13.9428 13.1147 13.8571 13.1147 13.8 13.0718C13.4285 12.8004 13.2285 13.7004 12.8 13.0432C12.7285 12.9432 12.6857 12.9147 12.6285 12.929L12.9428 13.6861C13.2285 13.6147 13.5285 13.5432 13.8 13.4575C13.9 13.429 13.9571 13.229 14.0285 13.1147Z" fill="#E5DBEA"/>
<path d="M45.5144 11.8423C45.5144 11.8423 45.4572 11.9423 45.4429 11.9423C45.3714 11.9423 45.2857 11.9138 45.2143 11.8995C45.2143 11.8709 45.2286 11.8281 45.2572 11.7995C45.6143 11.4566 45.7 11.3138 45.1857 11.6138C44.8143 11.8281 45.4143 10.9709 44.9714 11.2852L44.7143 12.0281C45.0429 12.8566 45.6144 12.0281 46.0287 12.1852L46.1287 11.8281L46.0429 11.7281C45.8714 11.9138 45.6716 10.9852 45.5144 11.8281V11.8423Z" fill="#E5DBEA"/>
<path d="M16.4143 5.09973C16.8286 5.01402 17.2 4.75687 17.7714 4.54259C16.9857 4.4283 16.4 4.38544 15.8143 4.35687C15.7572 4.35687 15.6714 4.75687 15.6857 4.77116C15.9286 4.91402 16.2 5.14259 16.4143 5.09973Z" fill="#E5DBEA"/>
<path d="M47.1286 11.5143C46.8857 11.4857 46.5286 11.2572 46.3857 11.6715C46.2286 12.1572 46.0857 10.9572 46.0428 11.7572L46.1286 11.8572C46.3571 12.6572 46.7571 12.4 47.1857 11.9857C47.1714 11.8143 47.1857 11.5286 47.1286 11.5143Z" fill="#E5DBEA"/>
<path d="M35.1286 1.55736C34.8571 0.757368 34.3714 1.90022 33.9857 1.48593L33.6286 1.70022C33.9143 1.82879 34.2 2.04308 34.4857 2.04308C34.7286 2.04308 35.2571 1.94308 35.1286 1.57165V1.55736Z" fill="#E5DBEA"/>
<path d="M51.5428 13.3004C51.6286 13.3719 51.8714 13.1719 52.0428 13.1004L51.6 12.629V12.2433L51.0428 12.5861C51.2143 12.829 51.3428 13.129 51.5571 13.3004H51.5428Z" fill="#E5DBEA"/>
<path d="M68.5286 16.8139L68.2571 16.3853C68.0857 16.5424 67.7714 16.3996 67.7428 16.8281C67.7 17.6567 68.5143 16.5567 68.5143 17.2424C68.6143 17.1139 69.1143 17.0139 68.5286 16.8139Z" fill="#E5DBEA"/>
<path d="M36.4857 1.97126C36.4857 1.97126 36.4571 1.81412 36.4143 1.78554C36.3143 1.7284 36.1857 1.67126 36.1143 1.69983C36.0143 1.75697 35.9714 1.89983 35.9 2.01412C35.9571 2.01412 36.0429 1.98554 36.0571 2.01412C36.1 2.08554 36.1286 2.18554 36.1286 2.27126C36.1286 2.34269 36.1286 2.45697 36.0857 2.47126C35.7714 2.67126 36.0857 2.75697 36.1286 2.89983L36.2571 2.67126L36.3429 2.58554C36.4 2.38554 35.9429 1.97126 36.4857 1.97126Z" fill="#E5DBEA"/>
<path d="M36.3429 2.60043L36.2571 2.68615C36.2571 2.68615 36.3286 2.64329 36.3429 2.60043Z" fill="#E5DBEA"/>
<path d="M55.4572 13.5714L55.3286 13.9714C55.3857 14.2 55.3714 14.5857 55.6714 14.4286C55.8572 14.3143 55.9429 13.9143 56.0714 13.6429C55.8429 13.7429 55.5857 14.0857 55.4572 13.5714Z" fill="#E5DBEA"/>
<path d="M135.786 13.1431C135.7 13.2574 135.657 13.3146 135.657 13.3146C135.914 13.6431 136.171 13.9574 136.443 14.2717C136.443 14.2717 136.657 14.1431 136.643 14.1003C136.586 13.5003 135.786 13.886 135.786 13.1431Z" fill="#E5DBEA"/>
<path d="M95.5429 12.5279C95.3571 12.7422 95.2 12.9993 95.0286 13.2422L95.4286 13.285L95.8857 12.7993C95.7571 12.6993 95.5571 12.4993 95.5286 12.5279H95.5429Z" fill="#E5DBEA"/>
<path d="M81.4857 16.1136L81.5571 16.8278L82.0714 16.6136L82.3 16.8136C82.2 16.5993 82.1571 16.3278 82 16.185C81.9 16.0707 81.6714 16.1278 81.4857 16.0993V16.1136Z" fill="#E5DBEA"/>
<path d="M104.072 10.2143C103.972 10.2715 103.914 10.4715 103.843 10.6143C104.029 10.6143 104.229 10.6858 104.414 10.6286C104.486 10.6143 104.486 10.3572 104.529 10.1858C104.372 10.1858 104.2 10.1429 104.072 10.2143Z" fill="#E5DBEA"/>
<path d="M118.871 8.08531C118.629 8.14245 118.186 8.37103 118.186 8.3996C118.271 9.05674 118.743 7.98531 118.871 8.5996L119.014 8.37103C118.957 8.25674 118.9 8.07103 118.871 8.08531Z" fill="#E5DBEA"/>
<path d="M64.7571 16.1286C64.5286 16.4286 64.5286 16.9571 64.0571 17.0143C64.3571 17.2 64.5428 17.1143 64.6286 16.7429C64.8286 16.2429 64.8857 16.6143 64.9857 16.8C65.4286 16.3286 64.6714 16.4286 64.7571 16.1286Z" fill="#E5DBEA"/>
<path d="M17.0857 4.34214L17.8715 3.81357C17.7572 3.785 17.5857 3.69929 17.5715 3.72786C17.4572 3.985 16.8 3.72786 17.0857 4.35643V4.34214Z" fill="#E5DBEA"/>
<path d="M55.3286 13.3571C55.2714 13.2856 55.2143 13.1856 55.1429 13.1571C55.1143 13.1571 54.9714 13.2856 54.9714 13.3428C55 13.6571 55.0572 13.9714 55.1143 14.2856L55.3286 13.9714C55.1429 13.7856 55.0286 13.6142 55.3286 13.3714V13.3571Z" fill="#E5DBEA"/>
<path d="M55.3143 13.9708H55.3286V13.9565L55.3143 13.9708Z" fill="#E5DBEA"/>
<path d="M97.7715 10.7716C97.6572 10.543 97.5143 10.5573 97.5572 10.7716C97.6143 10.9859 97.7286 11.2002 97.8429 11.4002C97.8572 11.4287 98 11.3859 98.0714 11.3716L97.8572 10.943L97.7572 10.7573L97.7715 10.7716Z" fill="#E5DBEA"/>
<path d="M92.1572 13.9997L93.1286 13.8283L93.4 13.6426C93.0286 13.6854 92.6714 13.7283 92.3 13.7854C92.2429 13.7854 92.2143 13.9283 92.1572 13.9997Z" fill="#E5DBEA"/>
<path d="M30.6144 7.64266C30.8858 7.1998 30.2715 7.47123 30.243 7.02837C30.2144 6.47123 29.8144 6.1998 29.543 6.97123L30.1144 7.52837C30.2858 7.57123 30.5715 7.71409 30.6144 7.64266Z" fill="#E5DBEA"/>
<path d="M27.6 6.7283C27.5429 7.05687 27.7714 6.98544 27.9429 7.0283L28.4572 6.7283C28.2286 6.64258 27.9857 6.55687 27.7429 6.49973C27.7 6.49973 27.6143 6.64258 27.6 6.7283Z" fill="#E5DBEA"/>
<path d="M157.171 11.9859C157.529 12.343 157.357 12.943 156.843 12.7573C156.571 12.6573 156.386 12.7573 156.171 12.7145C156.086 12.7145 155.971 12.9145 155.871 13.0288C156.371 13.3145 156.114 13.5288 155.814 13.6573C155.529 13.8002 155.229 13.9573 155.743 14.2859C155 14.2859 155.1 15.2716 154.5 15.4716C154.471 14.8716 153.986 15.443 153.829 15.1716C153.7 14.9573 154.471 14.7573 153.829 14.5573C153.9 14.5144 153.986 14.4573 154.057 14.4287L154.8 14.2859C154.8 14.2859 154.8 14.143 154.8 14.0573L153.629 14.1002L153.843 14.543C153.443 14.6859 153.029 14.8287 152.629 14.7859C151.886 14.6716 151.186 14.743 150.5 14.943C150.3 15.0144 150.214 15.2002 150.071 14.9002C150.071 14.8716 149.529 14.7287 149.943 15.2144C150.1 15.4002 150.229 15.4144 150.371 15.4859C150.429 15.5144 150.5 15.5144 150.571 15.5287C150.5 15.5716 150.429 15.6573 150.371 15.643C149.343 15.4573 148.371 15.3859 147.4 15.9002C147.4 15.9002 147.329 15.8716 147.329 15.843C147.271 15.5002 147.114 15.4287 146.843 15.6144C146.814 15.643 146.771 15.6573 146.729 15.6716C147.129 15.6573 147.143 15.9716 147.171 16.2859L147.9 16.0859C147.786 16.4716 147.514 16.6573 147.157 16.6144C146.986 16.5859 146.829 16.3716 146.657 16.3287C146.014 16.2002 145.386 16.0573 144.771 15.8859C144.786 16.043 144.886 16.243 144.829 16.343C144.543 16.7859 144.429 16.1287 144.357 16.2002C143.886 16.6144 143.9 16.6287 143.929 15.8716C143.929 15.7859 143.614 15.6002 143.6 15.6287C143.214 16.043 143 15.3002 142.671 15.5287C142.629 15.5573 142.586 15.6287 142.557 15.6287C142.514 15.6287 142.457 15.5859 142.429 15.543L142.214 15.143L142.429 14.2145C142.757 14.4144 143.086 14.643 143.443 14.843L144.429 14.643C143.843 14.4716 143.257 14.2859 142.7 14.0859C142.629 14.0573 142.529 14.1716 142.429 14.2288L143.686 8.72875C143.829 8.77161 144.029 8.72875 144.114 8.84304C144.157 8.90018 144.271 8.84304 144.343 8.84304L144.171 8.67161L143.986 8.44304C143.986 8.44304 144.1 8.38589 144.157 8.38589C144.286 8.38589 144.414 8.42875 144.543 8.44304C144.2 9.62875 145.1 8.75732 145.286 9.12875C145.414 9.35732 145.729 9.42875 145.971 9.54304C146.086 9.60018 146.214 9.58589 146.343 9.60018C146.343 9.51447 146.286 9.38589 146.314 9.35732C146.386 9.27161 146.5 9.17161 146.571 9.18589C146.743 9.22875 146.914 9.32875 147.086 9.32875C147.857 9.32875 148.643 9.31447 149.357 9.32875C149.6 9.34304 149.843 9.44304 150.114 9.37161C150.886 9.22875 151.571 9.31447 152.329 9.62875C152.329 9.51447 152.286 9.3859 152.3 9.28589C152.329 9.12875 152.4 8.88589 152.457 8.90018C152.571 8.92875 152.7 9.17161 152.814 9.17161C153.086 9.20018 153.457 9.52875 153.643 8.97161C153.657 8.90018 153.986 9.02875 153.986 9.01447C153.986 8.52875 154.071 8.55732 154.229 9.01447C154.671 8.71447 154.9 9.31447 155.043 9.67161C155.229 10.1573 155.414 10.1288 155.671 10.043L155.714 10.1716C155.6 10.2573 155.457 10.3002 155.343 10.4002C155.229 10.5002 155.143 10.6573 155.043 10.7573C155.157 10.8288 155.257 10.9288 155.371 10.943C155.5 10.9573 155.629 10.9288 155.757 10.9145C155.629 10.9716 155.5 11.0002 155.4 11.1002C154.957 11.4573 155.5 11.8859 155.5 12.2716C155.729 12.2288 155.914 12.1002 156.143 12.0716C156.5 12.0002 157.029 11.7859 157.229 11.9859H157.171ZM144.729 13.7288C144.471 13.543 144.243 13.3288 143.971 13.1716C143.886 13.1145 143.729 13.2145 143.586 13.243L144.414 13.9002L144.729 13.7288ZM144.629 15.1287L143.8 14.9144L143.729 15.1859C143.657 15.6144 143.686 15.5144 143.957 15.2573C144.357 14.8859 143.971 15.7859 144.314 15.5859C144.457 15.5002 144.529 15.2859 144.643 15.1287H144.629ZM146.786 14.6002C146.729 14.4716 146.686 14.2716 146.6 14.2288C146.486 14.1859 146.314 14.3002 146.186 14.2859C146.043 14.2716 145.9 14.1716 145.771 14.1002C145.886 14.0573 146.157 14.0859 145.914 13.8145C145.8 13.6716 145.629 13.6002 145.471 13.5002L145.529 14.0288C145.457 14.1002 145.371 14.2859 145.286 14.2859C144.814 14.3144 144.514 14.443 144.857 15.043C144.9 15.1287 145 15.243 145.043 15.2287C145.214 15.1573 145.371 15.0287 145.529 14.9287C145.529 14.9144 145.514 14.8859 145.486 14.8716L145.243 14.643H145.671C146.043 14.6573 146.414 14.6144 146.786 14.5859V14.6002ZM147.886 14.1859C147.471 13.9859 147.086 13.643 146.686 13.6288C145.929 13.6145 146.543 13.743 146.714 13.8716C146.529 14.3002 147.1 13.8716 147.057 14.2288L147.886 14.1859Z" fill="#E5DBEA"/>
<path d="M156.314 9.0712C156.314 9.0712 156.271 9.1712 156.257 9.21406C156.557 9.45692 156.886 9.69977 157.2 9.92834L157.043 9.44263L156.3 9.05692L156.314 9.0712Z" fill="#E5DBEA"/>
</g>
</svg>
