<svg width="31" height="58" viewBox="0 0 41 68" fill="none" xmlns="http://www.w3.org/2000/svg">
<mask id="mask0_305_1031" style="mask-type:luminance" maskUnits="userSpaceOnUse" x="0" y="0" width="41" height="68">
<path d="M41 0H0V67.9099H41V0Z" fill="white"/>
</mask>
<g mask="url(#mask0_305_1031)">
<path d="M39.1908 2.86755L39.287 2.90605L39.2293 2.82906L39.1908 2.86755Z" fill="#E5DBEA"/>
<path d="M34.1476 11.6831H31.934C32.1457 11.5676 32.3189 11.4521 32.2997 11.3174C32.165 10.6822 31.4528 10.1047 31.8377 9.41177C31.8762 9.33477 31.6452 9.20003 31.549 9.10379C31.2025 8.68031 31.857 8.89205 32.0302 8.79581C32.8002 8.43008 32.6847 8.9498 32.9157 9.14229C32.9734 9.18078 33.2429 9.20003 33.3199 9.14229C33.5509 9.04604 33.7241 8.89205 33.9359 8.77656C33.8011 8.77656 33.5509 8.75731 33.5509 8.73806C33.5701 7.96811 31.7415 8.44933 31.7607 7.66013C31.7607 7.58313 31.5682 7.42914 31.5297 7.44839C30.6443 7.58313 30.7983 7.08266 30.6251 6.81318C30.5866 6.75543 30.7213 6.65919 30.779 6.58219C30.7213 6.58219 30.6443 6.58219 30.6443 6.62069C30.5673 6.73618 30.4903 6.85168 30.4326 6.98642L30.2593 7.31365C30.1823 7.19815 30.0091 7.06341 30.0283 6.96717C30.2208 5.94698 30.5096 4.94604 30.6828 3.92585C30.7405 3.57937 30.4903 3.1944 30.4711 2.80942C30.4711 2.67468 30.6058 2.50144 30.7598 2.38595C30.8368 2.3282 31.1063 2.4052 31.2795 2.42444C31.2218 2.53994 31.1255 2.63618 31.087 2.77092C31.0485 2.88642 31.0485 3.02116 31.0293 3.1559C31.2025 3.13665 31.5105 3.1174 31.5297 3.05966C31.5875 2.77092 31.5875 2.46294 31.6067 2.15496C31.6067 2.03947 31.549 1.92397 31.5682 1.80848C31.5682 1.76998 31.7222 1.75073 31.7992 1.71223C31.8762 1.82773 32.011 1.94322 32.011 2.05872C31.9725 2.73243 32.4537 1.98172 32.5692 2.15496C32.4344 1.40425 35.495 3.17515 34.1283 1.36575C33.9743 1.17327 34.6096 0.76904 34.879 0.461058C34.9175 0.5958 34.879 0.788289 34.9945 0.865284C35.1485 0.961528 35.4373 0.980777 35.6875 1.03852C35.726 0.961528 35.8222 0.826786 35.7837 0.807537C35.6682 0.749791 35.495 0.730542 35.341 0.692044C35.3025 0.692044 35.2063 0.672796 35.2063 0.653547C35.2063 0.557303 35.2063 0.461058 35.2063 0.345565C35.5912 0.345565 36.034 0.326317 36.3805 0.422561C37.3044 0.672796 38.2091 0.730542 39.1715 0.672796C39.287 0.672796 39.6335 0.961528 39.6143 0.980777C39.2678 1.23101 39.3255 1.48125 39.6335 1.75073C39.749 1.84697 39.7297 2.00097 39.7875 2.13571C39.6912 2.09721 39.5565 2.03947 39.4988 2.05872C39.3833 2.09721 39.21 2.21271 39.2293 2.23196C39.364 2.3667 39.595 2.46294 39.672 2.57844C39.7682 2.73243 39.7297 2.90567 39.749 3.0789L39.3448 2.92491L39.287 2.86717C39.287 2.86717 39.3833 2.79017 39.4025 2.73243C39.4025 2.73243 39.3448 2.69393 39.3255 2.65543C39.287 2.67468 39.1908 2.71318 39.1908 2.73243L39.287 2.86717L39.2485 2.90567L39.3255 2.94416C39.441 3.0789 39.5565 3.2329 39.6528 3.36764C39.7297 3.48313 39.826 3.67562 39.749 3.71412C38.7096 4.15684 39.364 4.71506 39.595 5.23477C39.595 5.25402 39.4795 5.29252 39.4218 5.33102C39.4025 5.27327 39.3833 5.21552 39.3448 5.15778C39.3255 5.11928 39.2678 5.06153 39.2485 5.06153C39.1715 5.06153 39.0945 5.11928 39.0368 5.11928C38.9983 5.11928 38.9405 5.06153 38.902 5.02304C38.902 5.08078 38.9598 5.15778 38.902 5.17703C38.6903 5.29252 39.98 5.54275 38.8443 5.58125L39.133 6.56294L39.4025 6.13947L39.672 6.58219C39.7682 6.75543 39.7875 6.92867 39.9222 7.08266C40.4227 7.62163 39.595 8.00661 39.6143 8.48783C39.6143 8.54557 39.8067 8.58407 39.826 8.64182C39.8837 8.81506 39.826 8.98829 39.9222 9.14229C40.211 9.68125 40.0762 9.06529 40.1917 9.10379C40.2302 9.10379 40.288 9.10379 40.3072 9.14229L40.5382 9.62351C40.442 9.62351 40.3265 9.662 40.2302 9.64276C40.134 9.64276 40.057 9.58501 39.9607 9.56576C40.057 9.7005 40.1147 9.85449 40.2302 9.96999C40.3072 10.047 40.5767 10.124 40.5574 10.1625C40.4227 10.3935 40.9039 10.7399 40.1725 10.8362C40.1147 10.8362 40.0762 10.8939 40.0185 10.9132C40.057 10.9132 40.0955 10.9517 40.1532 10.9517L40.7307 10.9902C40.4805 11.0672 40.2302 11.2019 39.98 11.1827C39.749 11.1827 39.5373 10.9709 39.3063 10.9517C39.1138 10.9517 38.8828 11.0864 38.7096 11.2019C38.5363 11.3174 38.4401 11.5484 38.2476 11.5869C38.0359 11.6446 37.9396 11.6639 37.9396 11.6831H35.1678C35.3988 11.6446 35.6297 11.5676 35.4565 11.5099L35.6297 11.3559L35.2063 11.1827C35.0715 11.4521 34.5133 11.5291 34.1668 11.7024L34.1476 11.6831ZM34.6866 4.59956C34.7443 4.40707 34.879 4.21459 34.8213 4.04135C34.7635 3.86811 34.4941 3.71412 34.3401 3.54088L34.0513 4.00285L34.6866 4.59956ZM35.5913 6.60144C35.5913 6.60144 35.649 6.52444 35.6297 6.48595L35.033 5.13853C34.9753 5.02304 34.9945 4.88829 34.9753 4.7728L34.7251 5.29252C35.264 5.562 33.8204 5.44651 34.6481 5.81224C35.0523 5.98548 35.2833 6.33196 35.5913 6.58219V6.60144ZM34.7058 10.7207C35.341 10.7207 35.0523 10.432 35.0523 10.2202C35.418 9.81599 34.4363 10.2972 34.6096 9.98923L34.1668 10.5859C34.3401 10.6244 34.5133 10.7207 34.6866 10.7207H34.7058Z" fill="#E5DBEA"/>
<path d="M31.5296 11.4904C31.2601 11.2401 31.9338 10.7974 31.1639 10.6049C31.2793 10.6049 31.3948 10.6049 31.5103 10.5664C31.5296 10.5664 31.5488 10.4317 31.5103 10.4317C30.7211 10.143 30.8944 10.7397 30.5671 10.8744L30.4131 10.9514L31.1639 11.1439C31.4526 11.4134 31.0484 11.3749 30.6826 11.3364L30.6056 11.7214H31.7028C31.7028 11.7214 31.6451 11.5866 31.5488 11.4904H31.5296Z" fill="#E5DBEA"/>
<path d="M31.087 10.1633C31.2795 9.56658 31.2795 9.08536 30.0091 9.50884C30.5866 9.54733 31.0293 9.68208 30.856 10.2788C30.933 10.2403 31.087 10.221 31.087 10.1633Z" fill="#E5DBEA"/>
<path d="M29.4894 9.48845H29.9707L29.5087 9.35373V9.48845H29.4894Z" fill="#E5DBEA"/>
<path d="M31.0868 8.44895C31.0868 8.44895 30.9906 8.37196 30.9329 8.31421L30.3169 8.98792C30.3169 8.98792 30.4516 9.2189 30.4709 9.19965C31.1061 9.10341 30.9906 8.73768 31.0868 8.44895Z" fill="#E5DBEA"/>
<path d="M35.6683 26.6194C35.0716 26.8889 34.3594 26.6001 34.7829 26.1382C35.0139 25.8879 34.9754 25.6955 35.0716 25.4837C35.1294 25.3875 34.8791 25.2527 34.7829 25.1372C33.6665 26.0419 34.2247 23.9438 33.1275 24.8293C33.3007 24.1363 31.9533 24.117 31.8186 23.5588C32.627 23.5588 31.9533 23.0969 32.3575 22.9429C32.6848 22.8274 32.781 23.5781 33.166 22.9814C33.2045 23.0584 33.2815 23.1354 33.2815 23.2124V23.9246C33.2815 23.9246 33.4932 23.9246 33.6087 23.9246L33.8012 22.7889L33.166 22.9621C33.089 22.5771 32.858 22.1729 32.9543 21.7879C33.1275 21.0757 33.166 20.3828 32.8195 19.7283C32.7233 19.5358 32.4538 19.4781 32.858 19.3048C32.8773 19.3048 33.0505 18.7658 32.4345 19.2085C32.2036 19.3626 32.1843 19.4973 32.0881 19.6513C32.0496 19.7091 32.0496 19.7861 32.0496 19.8438C31.9918 19.7861 31.8763 19.7091 31.8763 19.6513C32.0688 18.6696 32.1266 17.7071 31.2411 16.8602C31.2411 16.8602 31.2604 16.7832 31.2989 16.7832C31.7416 16.6677 31.8186 16.5137 31.5298 16.2827C31.4913 16.2442 31.4721 16.2249 31.4336 16.1865C31.5298 16.5522 31.1064 16.6292 30.6829 16.7062L31.0871 17.3606C30.5482 17.3029 30.2594 17.0719 30.2594 16.7254C30.2594 16.5522 30.5289 16.3789 30.5482 16.225C30.6251 15.609 30.6829 14.9738 30.7406 14.3578C30.5482 14.4156 30.2979 14.5311 30.1439 14.4926C29.4895 14.3001 30.3172 14.0691 30.2017 14.0113C29.528 13.6456 29.5087 13.6649 30.5289 13.5301C30.6444 13.5301 30.8176 13.1836 30.7791 13.1644C30.1439 12.8949 31.0486 12.5292 30.6444 12.2597C30.5867 12.2212 30.4904 12.2019 30.4712 12.1634C30.4712 12.125 30.4904 12.048 30.5482 12.0095L31.0101 11.7207H32.2998L31.7993 12.8372L32.319 13.7419L32.5693 11.9325C32.5693 11.9325 32.396 11.7785 32.2998 11.7015L39.9031 11.6245C39.9031 11.7785 40.0186 11.971 39.9031 12.1057C39.8453 12.1634 39.9416 12.2789 39.9801 12.3559C40.0378 12.2789 40.0763 12.2019 40.1341 12.125L40.3651 11.8747C40.3651 11.8747 40.4805 11.9902 40.4998 12.048C40.519 12.1827 40.5383 12.3367 40.5383 12.4714C38.9021 12.3944 40.2688 13.1451 39.8261 13.4339C39.5374 13.6264 39.5374 13.9728 39.4604 14.2616C39.4219 14.3963 39.4604 14.5311 39.4796 14.6658C39.5759 14.6273 39.7491 14.5696 39.7876 14.5888C39.9223 14.6465 40.0763 14.7428 40.0763 14.839C40.0763 15.0315 39.9608 15.2433 39.9801 15.4357C40.0956 16.3019 40.3458 17.1681 40.3266 18.0343C40.3266 18.3231 40.2111 18.6311 40.3266 18.939C40.6345 19.8246 40.4036 20.71 39.9608 21.5955C40.1148 21.5955 40.2881 21.557 40.4228 21.5955C40.6345 21.6339 40.9618 21.7494 40.9425 21.8072C40.904 21.9612 40.596 22.0767 40.5575 22.2307C40.4613 22.5771 39.9608 22.9814 40.6538 23.2701C40.7308 23.3086 40.4998 23.6743 40.5383 23.6743C41.1928 23.7706 41.135 23.8668 40.4998 23.9631C40.8463 24.5598 39.9608 24.7138 39.4411 24.7908C38.7482 24.9062 38.7289 25.118 38.7289 25.426H38.5364C38.4787 25.2912 38.4594 25.118 38.3632 24.9832C38.2669 24.8293 38.1129 24.7138 37.9782 24.579C37.8627 24.6945 37.7087 24.7908 37.651 24.9062C37.574 25.041 37.5932 25.195 37.5547 25.3297C37.5162 25.195 37.5355 25.0217 37.4392 24.9062C37.0735 24.3673 36.3805 24.887 35.8608 24.81C35.8801 25.041 35.9571 25.272 35.9186 25.503C35.8608 25.8879 35.9571 26.4654 35.6298 26.6194H35.6683ZM33.5702 13.9151C33.7627 13.6264 33.9744 13.3376 34.1092 13.0489C34.1477 12.9526 33.9937 12.8179 33.9167 12.6832L33.243 13.6456L33.551 13.9151H33.5702ZM31.6838 14.0883L31.7608 13.2414H31.3951C30.7984 13.2414 30.9524 13.2414 31.3566 13.4531C31.9533 13.7611 30.6636 13.5879 31.0101 13.8573C31.1641 13.9728 31.4721 14.0113 31.7031 14.0691L31.6838 14.0883ZM32.858 16.0902C33.012 16.0132 33.2815 15.9362 33.32 15.8592C33.3585 15.7437 33.1852 15.5897 33.1852 15.455C33.1852 15.301 33.2815 15.1663 33.3585 15.0123C33.4547 15.1278 33.474 15.3973 33.782 15.1085C33.9359 14.9545 33.9744 14.7813 34.0707 14.608L33.397 14.762C33.2815 14.7043 33.0313 14.6658 32.9928 14.5696C32.8388 14.1076 32.5885 13.8573 31.8763 14.3001C31.7801 14.3578 31.6453 14.4926 31.6646 14.5118C31.7993 14.6658 32.0111 14.7813 32.1843 14.916C32.2036 14.916 32.242 14.8968 32.242 14.8775L32.473 14.5888L32.5693 15.0123L32.858 16.0902ZM33.6087 17.1104C33.8012 16.6869 34.2054 16.2442 34.1284 15.84C34.0322 15.0893 33.9359 15.7245 33.8205 15.8977C33.2237 15.7822 33.8782 16.2827 33.397 16.3019L33.6087 17.1104Z" fill="#E5DBEA"/>
<path d="M39.7685 26.4662C39.7685 26.4662 39.653 26.3892 39.5953 26.3507L38.3248 27.1784H39.0178L39.7685 26.4662Z" fill="#E5DBEA"/>
<path d="M6.64073 24.3109L6.69848 24.2339L6.60223 24.2531L6.64073 24.3109Z" fill="#E5DBEA"/>
<path d="M16.3999 32.2606L15.6877 34.3588C15.6107 34.1085 15.5144 33.8968 15.3604 33.8583C14.5712 33.7236 13.6665 34.2048 12.9736 33.5696C12.8966 33.5118 12.6848 33.6851 12.5308 33.7236C11.9534 33.8968 12.3576 33.3578 12.3191 33.1653C12.0881 32.2991 12.6848 32.5879 12.9928 32.4339C13.0698 32.3954 13.1468 32.1452 13.1276 32.0489C13.0698 31.7987 12.9543 31.5677 12.8581 31.3175C12.8003 31.4329 12.7233 31.6832 12.7041 31.6639C11.7801 31.3752 11.8379 33.3001 10.9332 33.0113C10.8562 32.9921 10.6252 33.1076 10.606 33.1653C10.529 34.07 9.99 33.7428 9.62427 33.839C9.54728 33.839 9.47028 33.6851 9.39329 33.6081C9.39329 33.6658 9.37404 33.7428 9.39329 33.7621C9.50878 33.8775 9.64352 33.9738 9.75902 34.0893L10.0862 34.3588C9.93225 34.3973 9.73977 34.5128 9.62427 34.4743C8.50784 33.9738 7.39141 33.3963 6.23648 32.9536C5.83225 32.7996 5.33178 32.9536 4.88906 32.8766C4.71582 32.8574 4.54258 32.6649 4.44634 32.4916C4.40784 32.4146 4.54258 32.1644 4.60033 31.9912C4.71582 32.0874 4.83132 32.1837 4.96606 32.2606C5.1008 32.3376 5.25479 32.3569 5.40878 32.3954C5.40878 32.2221 5.44728 31.9142 5.40878 31.8949C5.0623 31.7602 4.71582 31.6832 4.35009 31.6062C4.21535 31.5677 4.06136 31.6062 3.92662 31.5677C3.88812 31.5677 3.88812 31.3944 3.84962 31.3175C4.00362 31.279 4.15761 31.1635 4.29235 31.202C5.08155 31.3945 4.2731 30.7592 4.52333 30.6822C3.58014 30.6245 6.31347 28.0452 3.83038 28.9498C3.56089 29.0461 3.15667 28.3339 2.81019 28.0067C2.98343 28.0067 3.21441 28.0837 3.34916 27.9874C3.50315 27.8527 3.56089 27.5639 3.65714 27.3522C3.56089 27.2944 3.4069 27.1597 3.3684 27.1982C3.27216 27.2944 3.23366 27.4677 3.17592 27.6024C3.15667 27.6409 3.11817 27.7179 3.11817 27.7179C2.98343 27.7179 2.86793 27.6794 2.75244 27.6602C2.82944 27.2752 2.82944 26.8325 3.00268 26.5052C3.4454 25.6583 3.65714 24.7536 3.71488 23.7912C3.71488 23.6564 4.17685 23.4062 4.1961 23.4447C4.48484 23.8489 4.81207 23.8489 5.23554 23.6179C5.38953 23.5217 5.60127 23.5794 5.77451 23.5794C5.71676 23.6757 5.60127 23.7912 5.62052 23.8489C5.63977 23.9837 5.77451 24.1761 5.79376 24.1761C5.98624 24.0799 6.14024 23.8874 6.33272 23.8489C6.54446 23.8104 6.77545 23.8874 7.00643 23.9259L6.73695 24.2916L6.6407 24.3301C6.6407 24.3301 6.54446 24.2146 6.48671 24.1761C6.48671 24.1761 6.40972 24.2146 6.39047 24.2339C6.40972 24.2916 6.44822 24.3879 6.46747 24.3879L6.6407 24.3301L6.6792 24.3686L6.73695 24.2916C6.94869 24.2146 7.16042 24.1376 7.37216 24.0991C7.52615 24.0606 7.81488 24.0221 7.83413 24.0991C8.23836 25.2541 9.06606 24.7921 9.81676 24.7344C9.85526 24.7344 9.87451 24.8691 9.89376 24.9268C9.81676 24.9268 9.73977 24.9268 9.64352 24.9461C9.58578 24.9461 9.48953 24.9846 9.48953 25.0038C9.48953 25.0808 9.52803 25.1578 9.50878 25.2348C9.50878 25.2733 9.41254 25.2926 9.35479 25.3311C9.43178 25.3311 9.54728 25.3311 9.56653 25.3696C9.68202 25.6198 10.2787 24.4264 10.067 25.5621L11.4144 25.6198L10.9332 25.1963L11.5877 25.0808C11.8379 25.0423 12.0881 25.0808 12.3191 25.0038C13.1468 24.7151 13.4355 25.6775 14.0708 25.8315C14.1477 25.8315 14.2632 25.6775 14.3402 25.6775C14.5712 25.6775 14.8022 25.793 15.0332 25.793C15.8224 25.7353 14.9754 25.6198 15.0524 25.5236C15.0717 25.4851 15.0909 25.4273 15.1294 25.4273L15.8224 25.3888C15.8224 25.4851 15.8224 25.6006 15.7646 25.6968C15.7262 25.793 15.6492 25.8508 15.5722 25.9278C15.7839 25.9085 15.9956 25.8893 16.1881 25.8315C16.3036 25.793 16.4961 25.5813 16.5154 25.6006C16.7656 25.8123 17.3816 25.5236 17.2853 26.255C17.2853 26.3128 17.3238 26.3705 17.3431 26.4475C17.3815 26.409 17.42 26.3898 17.4393 26.332L17.6703 25.793C17.6703 26.0625 17.7665 26.3513 17.6703 26.5822C17.5933 26.794 17.2468 26.9095 17.1698 27.1212C17.0928 27.2944 17.2083 27.5832 17.2853 27.7949C17.3816 28.0259 17.6318 28.1799 17.6318 28.4109C17.6318 28.6419 17.6318 28.7381 17.651 28.7574L16.7656 31.3944C16.7656 31.1442 16.7463 30.894 16.6308 31.0287L16.4961 30.7977L16.1496 31.1442C16.4191 31.3752 16.3421 31.9527 16.4384 32.3376L16.3999 32.2606ZM7.93038 29.2193C7.69939 29.1038 7.48765 28.9114 7.25667 28.9114C7.02568 28.9114 6.7947 29.1231 6.54446 29.2386L7.04493 29.6428L7.91113 29.2001L7.93038 29.2193ZM10.6252 28.9883C10.6252 28.9883 10.5482 28.9114 10.4905 28.9114L8.68108 29.0653C8.52709 29.0653 8.3731 29.0268 8.21911 29.0076L8.81582 29.4118C9.25854 28.9691 8.81582 30.3358 9.43178 29.6621C9.73977 29.3348 10.221 29.2193 10.6252 29.0076V28.9883ZM15.4182 31.3367C15.6299 30.74 15.1872 30.894 14.9177 30.7977C14.5327 30.2973 14.8215 31.4137 14.5135 31.125L15.0909 31.7602C15.2064 31.6062 15.3604 31.4907 15.4182 31.3175V31.3367Z" fill="#E5DBEA"/>
<path d="M15.3221 34.6669C14.9371 34.8209 14.6484 34.0125 14.1864 34.6669C14.2057 34.5514 14.2441 34.4359 14.2441 34.3205C14.2441 34.3012 14.1094 34.2435 14.0709 34.2627C13.4934 34.9172 14.2441 34.9557 14.2826 35.3406L14.3211 35.5139L14.7831 34.8787C15.1873 34.7054 15.0141 35.0712 14.8409 35.4176L15.2643 35.6486L15.6108 34.6092C15.6108 34.6092 15.4568 34.6092 15.3221 34.6669Z" fill="#E5DBEA"/>
<path d="M13.6281 34.5699C12.9929 34.1657 12.4539 33.9924 12.5502 35.3591C12.7619 34.8201 13.0507 34.4352 13.6859 34.8202C13.6859 34.7239 13.6859 34.5892 13.6281 34.5507V34.5699Z" fill="#E5DBEA"/>
<path d="M12.3767 35.8598L12.55 35.3978L12.242 35.7828L12.3767 35.8598Z" fill="#E5DBEA"/>
<path d="M11.6647 33.9542C11.6647 33.9542 11.53 34.0312 11.4722 34.0697L12.0689 34.8974C12.0689 34.8974 12.3577 34.8589 12.3577 34.8204C12.4347 34.1851 11.9727 34.1467 11.6647 33.9542Z" fill="#E5DBEA"/>
<path d="M34.2244 38.9204C34.1859 39.5941 33.4737 39.9791 33.2043 39.3438C33.0695 38.9974 32.8193 38.9011 32.6653 38.6894C32.5883 38.5931 32.3188 38.6894 32.1263 38.7086C32.5113 40.21 30.5479 38.4391 30.9136 39.9213C30.2399 39.3438 29.547 40.4988 28.8733 40.287C29.2967 39.5941 28.4305 39.9021 28.4883 39.4593C28.5268 39.1129 29.393 39.4593 28.931 38.7856C29.0273 38.7856 29.1427 38.7856 29.239 38.8241L30.0282 39.2283C30.0282 39.2283 30.1437 39.0744 30.1822 38.9781L29.0273 38.1312L28.9118 38.7856C28.4498 38.6316 27.8916 38.5931 27.5258 38.3044C26.8329 37.7462 26.0822 37.3227 25.1967 37.3035C24.9465 37.3035 24.754 37.496 24.7348 37.0532C24.7348 37.0147 24.215 36.5913 24.4268 37.3805C24.5038 37.6692 24.6385 37.7462 24.754 37.9194C24.8118 37.9772 24.8695 38.0157 24.9465 38.0542C24.8503 38.0734 24.7155 38.1504 24.6578 38.1119C23.6568 37.4382 22.6174 36.8607 21.2892 37.3035C21.2892 37.3035 21.2315 37.2457 21.2315 37.2072C21.2892 36.7452 21.1352 36.6105 20.7695 36.7645C20.7118 36.7837 20.6733 36.7837 20.6155 36.803C21.0775 36.8992 20.9812 37.3227 20.885 37.7269L21.7897 37.6692C21.501 38.1312 21.116 38.2852 20.7503 38.1312C20.5578 38.0542 20.4808 37.7269 20.3075 37.6307C19.6531 37.265 18.9794 36.957 18.3057 36.6105C18.3057 36.8222 18.3442 37.111 18.248 37.2265C17.8052 37.7462 17.8437 36.88 17.7475 36.957C17.093 37.419 17.1123 37.4575 17.324 36.4565C17.3433 36.341 17.016 36.0523 16.9968 36.0715C16.4771 36.5528 16.3616 35.5518 15.9188 35.8213C15.8611 35.8598 15.8033 35.9368 15.7649 35.9368C15.7071 35.9368 15.6494 35.8791 15.6301 35.8021L15.4376 35.2631L15.8418 34.0504L16.9775 34.9936L18.2095 34.8974C17.5357 34.5509 16.8813 34.2044 16.1883 33.8964C16.1113 33.8579 15.9573 33.9927 15.8226 34.0504L18.2672 26.8514C18.4789 26.9283 18.7677 26.8899 18.8832 27.0631C18.9409 27.1401 19.1141 27.1016 19.2296 27.1208L18.9987 26.8706L18.7484 26.5434C18.7484 26.5434 18.9409 26.4856 19.0179 26.5049C19.2104 26.5434 19.4028 26.6011 19.5761 26.6589C18.9024 28.1603 20.346 27.2363 20.577 27.7753C20.731 28.1218 21.1545 28.295 21.4817 28.526C21.6357 28.6222 21.8282 28.6415 22.0014 28.6992C22.0014 28.5837 21.9822 28.4105 22.0014 28.372C22.1362 28.295 22.3094 28.1795 22.4249 28.2373C22.6751 28.3335 22.8869 28.5453 23.1564 28.6222C24.292 28.9687 25.4855 29.1997 26.5634 29.7002C26.9291 29.8734 27.2371 30.1237 27.6798 30.2199C28.9118 30.4509 29.8935 31.2016 30.7404 32.1255C30.8174 31.9908 30.8559 31.7983 30.9521 31.7213C31.1061 31.5673 31.4141 31.3363 31.4719 31.3941C31.6258 31.5288 31.6258 31.8753 31.7798 32.01C32.1456 32.318 32.3573 33.011 33.0888 32.5875C33.185 32.5298 33.493 32.9725 33.5122 32.9532C33.9742 32.472 34.0512 32.5683 33.8395 33.1842C34.7249 33.2805 34.4362 34.1467 34.2437 34.6279C33.9935 35.2823 34.2244 35.4556 34.5902 35.6481L34.5132 35.8213C34.3014 35.7636 34.1089 35.6866 33.878 35.6673C33.6662 35.6673 33.4352 35.7058 33.2043 35.7251C33.262 35.8983 33.3005 36.0908 33.3967 36.2063C33.5122 36.3603 33.6855 36.4373 33.8202 36.5528C33.647 36.495 33.4545 36.3795 33.262 36.3603C32.4535 36.3218 32.6653 37.2457 32.2996 37.6307C32.569 37.7654 32.8578 37.8424 33.108 38.0157C33.5122 38.3044 34.1859 38.6124 34.1667 38.9781L34.2244 38.9204ZM18.8447 33.7617C18.5752 33.4537 18.3249 33.1265 18.017 32.8762C17.9207 32.78 17.6897 32.8762 17.5165 32.8955L18.4019 33.9349L18.8254 33.7617H18.8447ZM18.3634 35.5903L17.4203 35.1668L17.2663 35.5133C17.0738 36.0715 17.1315 35.9368 17.5165 35.6481C18.0747 35.2246 17.401 36.3603 17.8437 36.1485C18.0362 36.0523 18.171 35.7828 18.3442 35.6096L18.3634 35.5903ZM21.0967 35.4171C21.0775 35.2246 21.0967 34.9551 21.0005 34.8781C20.885 34.7819 20.6348 34.8781 20.4808 34.8204C20.3075 34.7434 20.1728 34.5894 20.0381 34.4739C20.2113 34.4354 20.5385 34.5316 20.3075 34.1274C20.192 33.9157 19.9996 33.7809 19.8456 33.6269L19.7686 34.3199C19.6723 34.3969 19.4991 34.6279 19.3836 34.6086C18.7869 34.5509 18.4019 34.6471 18.6522 35.5133C18.6907 35.6288 18.7677 35.8213 18.8254 35.8021C19.0564 35.7443 19.2681 35.6096 19.4798 35.5133C19.4798 35.4941 19.4798 35.4556 19.4606 35.4363L19.2296 35.0899L19.7493 35.2053L21.0967 35.4363V35.4171ZM22.5597 35.2246C22.1554 34.8396 21.7897 34.2622 21.2892 34.1082C20.3653 33.8387 21.0775 34.2237 21.2507 34.4354C20.885 34.9359 21.7319 34.5701 21.5395 35.0129L22.5597 35.2246Z" fill="#E5DBEA"/>
<path d="M36.3995 35.4355C36.3995 35.4355 36.2455 35.474 36.1685 35.4933L36.3803 37.1102L36.7652 36.5327L36.3803 35.4355H36.3995Z" fill="#E5DBEA"/>
<path d="M2.86799 58.7859V58.7089L2.81024 58.7667L2.86799 58.7859Z" fill="#E5DBEA"/>
<path d="M13.9553 60.5376L14.5328 62.6742C14.3403 62.5009 14.1671 62.3662 14.0516 62.4239C13.4164 62.7319 13.0122 63.5789 12.2037 63.4056C12.1267 63.4056 12.0497 63.6559 11.9727 63.7714C11.6455 64.2141 11.6647 63.5404 11.53 63.4056C10.9333 62.7897 11.4915 62.7319 11.6455 62.4432C11.684 62.3854 11.607 62.116 11.5492 62.039C11.376 61.8465 11.1835 61.731 10.991 61.577C11.0103 61.7117 11.068 61.962 11.068 61.962C10.2596 62.193 11.299 63.7906 10.4906 64.0216C10.4136 64.0408 10.3173 64.2718 10.3366 64.3103C10.7408 65.1188 10.2018 65.1188 9.97084 65.369C9.93234 65.4268 9.77835 65.3305 9.68211 65.292C9.70136 65.3305 9.73985 65.4075 9.7591 65.4075C9.89384 65.446 10.0478 65.4653 10.1826 65.4845L10.5483 65.5422C10.4521 65.6577 10.3751 65.8695 10.2596 65.8695C9.20089 66.0042 8.1037 66.0812 7.04502 66.293C6.67929 66.3699 6.39056 66.7357 6.04408 66.9089C5.90934 66.9667 5.6976 66.9089 5.52436 66.8127C5.44737 66.7742 5.42812 66.4854 5.37037 66.3122C5.50511 66.3122 5.63985 66.37 5.7746 66.3507C5.90934 66.3507 6.04408 66.2929 6.15957 66.2545C6.06333 66.1005 5.94783 65.8117 5.89009 65.831C5.58211 65.8887 5.27413 66.0042 4.96615 66.1197C4.85065 66.1582 4.75441 66.2737 4.63892 66.293C4.60042 66.293 4.52342 66.1775 4.46568 66.1005C4.54267 65.985 4.61967 65.8117 4.73516 65.7732C5.40887 65.5422 4.48492 65.4075 4.61967 65.215C3.90746 65.6385 4.56192 62.0775 3.23375 64.0793C3.09901 64.2911 2.44455 63.8869 2.02107 63.7714C2.15582 63.6751 2.3483 63.6366 2.3868 63.4826C2.4253 63.2901 2.32906 63.0207 2.29056 62.7897C2.19431 62.7897 2.02107 62.7512 2.00183 62.7897C1.98258 62.9244 2.04032 63.0784 2.05957 63.2324C2.05957 63.2709 2.07882 63.3671 2.05957 63.3671C1.96333 63.4249 1.84783 63.4634 1.75159 63.5019C1.61684 63.1361 1.38586 62.7512 1.34736 62.4047C1.23187 61.4615 0.923886 60.5953 0.481163 59.7484C0.423416 59.6329 0.615904 59.1901 0.635153 59.2094C1.05863 59.4211 1.28961 59.2479 1.46285 58.8437C1.5206 58.6897 1.71309 58.6319 1.82858 58.5357C1.82858 58.6512 1.80933 58.7859 1.84783 58.8437C1.92482 58.9399 2.11732 59.0554 2.13657 59.0169C2.23281 58.8437 2.23281 58.5934 2.3483 58.4587C2.48305 58.3047 2.69478 58.2662 2.86802 58.1892V58.6319L2.81028 58.7089C2.81028 58.7089 2.69478 58.6704 2.61779 58.6512C2.61779 58.6512 2.57929 58.7282 2.57929 58.7667C2.61779 58.8052 2.69478 58.8822 2.71403 58.8629L2.81028 58.7282H2.86802V58.6512C2.98352 58.4779 3.09901 58.3239 3.2145 58.1699C3.31075 58.0545 3.48399 57.8812 3.54173 57.939C4.40793 58.7089 4.79291 57.9005 5.29338 57.477C5.31262 57.477 5.38962 57.554 5.44737 57.6117C5.38962 57.6502 5.33187 57.6887 5.29338 57.7465C5.25488 57.785 5.19713 57.862 5.21638 57.8812C5.25488 57.9582 5.33187 57.9967 5.35112 58.0737C5.35112 58.1122 5.31262 58.1699 5.29338 58.2277C5.35112 58.2084 5.42812 58.1314 5.46661 58.1507C5.67835 58.3047 5.50511 56.9958 5.92859 58.0545L6.92953 57.4192L6.37131 57.3038L6.79478 56.8803C6.94877 56.7263 7.16051 56.63 7.276 56.4568C7.71873 55.7831 8.41168 56.4568 8.95065 56.2643C9.0084 56.2451 9.0084 56.0333 9.06614 55.9948C9.23938 55.8793 9.45112 55.8601 9.60511 55.7253C10.1441 55.2826 9.48962 55.6099 9.48962 55.4944C9.48962 55.4559 9.48962 55.3981 9.48962 55.3789L9.97084 54.9939C9.97084 54.9939 10.0671 55.1864 10.0863 55.2826C10.0863 55.3789 10.0863 55.4751 10.0863 55.5714C10.2211 55.4366 10.3751 55.3211 10.4713 55.1671C10.5483 55.0709 10.5483 54.8014 10.5868 54.8014C10.8755 54.8591 11.1643 54.2817 11.453 54.9554C11.4722 55.0131 11.53 55.0324 11.5877 55.0901C11.5877 55.0516 11.607 54.9939 11.5877 54.9554L11.4722 54.3779C11.6262 54.5897 11.838 54.8014 11.8957 55.0324C11.9535 55.2634 11.761 55.5329 11.8187 55.7446C11.8572 55.9371 12.0882 56.1103 12.2422 56.2451C12.4154 56.3798 12.6849 56.3991 12.8004 56.5723C12.9159 56.7648 12.9737 56.8418 12.9929 56.8418L13.7051 59.5366C13.5704 59.3249 13.4356 59.1324 13.4164 59.3056L13.2046 59.1901L13.1276 59.6521C13.4549 59.7099 13.6859 60.2296 13.9553 60.5183V60.5376ZM6.33281 62.3084C6.12107 62.3277 5.85159 62.2699 5.6976 62.3854C5.54361 62.5009 5.46661 62.8089 5.35112 63.0207L5.92859 63.1169L6.33281 62.3084ZM8.1422 60.73C8.1422 60.73 8.04596 60.6915 8.00746 60.73L6.79478 61.7695C6.67929 61.8657 6.54455 61.9042 6.42906 61.962L7.06427 62.0005C7.16051 61.3845 7.52624 62.8089 7.62248 61.9042C7.68023 61.4615 7.94971 61.115 8.1422 60.73ZM12.7812 60.2488C12.6272 59.6329 12.3769 59.9986 12.146 60.0563C11.607 59.8253 12.3962 60.6145 12.0305 60.5568L12.7812 60.807C12.7812 60.6338 12.8389 60.4221 12.7812 60.2681V60.2488Z" fill="#E5DBEA"/>
<path d="M14.3982 63.1177C14.2057 63.4449 13.5897 62.9252 13.5897 63.7144C13.5512 63.5989 13.5127 63.4834 13.455 63.3871C13.455 63.3679 13.3202 63.3871 13.3202 63.4256C13.2432 64.2726 13.8014 63.9261 14.0324 64.2148L14.1479 64.3496V63.5796C14.3597 63.2332 14.4174 63.6181 14.4751 64.0031H14.8986L14.6099 62.9252C14.6099 62.9252 14.4944 63.0022 14.4367 63.1177H14.3982Z" fill="#E5DBEA"/>
<path d="M13.147 63.9254C12.4925 63.9254 12.0113 64.0408 12.7813 65.1573C12.6658 64.5991 12.6658 64.1178 13.3202 64.1178C13.2625 64.0409 13.2047 63.9254 13.147 63.9254Z" fill="#E5DBEA"/>
<path d="M12.8003 65.1758L12.781 65.1565L12.8003 65.195V65.1758Z" fill="#E5DBEA"/>
<path d="M12.9158 65.658L12.8003 65.196V65.6772H12.9158V65.658Z" fill="#E5DBEA"/>
<path d="M11.4336 64.4262C11.4336 64.4262 11.3759 64.5417 11.3566 64.6187L12.2036 65.0037C12.2036 65.0037 12.3961 64.8112 12.3768 64.7919C12.1073 64.2145 11.7609 64.407 11.4336 64.4262Z" fill="#E5DBEA"/>
<path d="M30.0282 56.5717C30.3362 57.1492 30.0282 57.8806 29.5277 57.4764C29.2582 57.2647 29.0273 57.3224 28.7963 57.2262C28.7 57.1877 28.546 57.4379 28.4305 57.5534C29.47 58.5929 27.1601 58.1886 28.1996 59.2281C27.4296 59.1126 27.5258 60.46 26.9484 60.6525C26.8906 59.844 26.4479 60.5562 26.2554 60.1713C26.1014 59.8633 26.9099 59.69 26.2169 59.3628C26.2939 59.3243 26.3709 59.2473 26.4479 59.2281L27.2179 59.1318C27.2179 59.1318 27.2179 58.9393 27.2179 58.8431L25.9667 58.7661L26.2169 59.3821C25.7935 59.4976 25.3892 59.7863 24.985 59.7285C24.215 59.6323 23.4643 59.69 22.8099 60.152C22.6174 60.2868 22.5789 60.5562 22.3479 60.1905C22.3479 60.152 21.7512 60.075 22.2902 60.6332C22.5019 60.845 22.6366 60.8257 22.7906 60.9027C22.8484 60.922 22.9254 60.9027 23.0024 60.922C22.9446 60.999 22.8869 61.1145 22.8291 61.1145C21.7704 61.076 20.731 61.1722 19.9996 62.2309C19.9996 62.2309 19.9226 62.2309 19.9033 62.1924C19.7108 61.7689 19.5183 61.7304 19.3451 62.0769C19.3258 62.1154 19.2873 62.1539 19.2681 62.1924C19.6338 62.0384 19.7878 62.4426 19.9418 62.8276L20.5578 62.3079C20.577 62.8468 20.4038 63.1741 20.0573 63.2511C19.8841 63.2896 19.6723 63.0586 19.4798 63.0586C18.8254 63.0971 18.1901 63.1933 17.5357 63.2703C17.6319 63.4628 17.8052 63.6745 17.8052 63.8093C17.7474 64.483 17.3432 63.7323 17.3047 63.8478C17.0737 64.5985 17.1122 64.5985 16.7465 63.6553C16.708 63.5398 16.323 63.4628 16.3038 63.5013C16.169 64.175 15.5916 63.3858 15.3991 63.8478C15.3798 63.9055 15.3798 64.021 15.3413 64.0403C15.3028 64.0595 15.2258 64.0403 15.1681 64.0018L14.7639 63.636L14.4366 62.3849L15.7263 62.5774L16.554 61.8459C15.8995 61.9037 15.2451 61.9614 14.6099 62.0576C14.5329 62.0576 14.4944 62.2694 14.4366 62.3849L12.4925 55.0318C12.685 54.9933 12.8582 54.8008 13.0315 54.8971C13.1085 54.9356 13.2047 54.8008 13.3009 54.7623L13.0122 54.6661L12.6657 54.5121C12.6657 54.5121 12.762 54.3581 12.839 54.3389C12.993 54.2619 13.1662 54.2234 13.3202 54.1849C13.6089 55.8018 14.1671 54.2619 14.6099 54.6083C14.8986 54.8201 15.3028 54.7431 15.6301 54.7623C15.784 54.7623 15.938 54.6853 16.092 54.6276C16.0343 54.5314 15.9188 54.3966 15.938 54.3389C15.9958 54.2041 16.0728 54.0116 16.169 53.9924C16.4 53.9346 16.6695 53.9924 16.8812 53.9346C17.8629 53.6267 18.8254 53.1839 19.8456 53.0299C20.192 52.9722 20.5578 53.0299 20.9042 52.8567C21.9052 52.3947 22.9831 52.4717 24.0418 52.799C24.0226 52.645 23.9648 52.4717 23.9841 52.337C24.0226 52.1252 24.1188 51.7788 24.1958 51.7788C24.369 51.798 24.5615 52.0868 24.7348 52.106C25.1582 52.1637 25.6587 52.6257 25.9667 51.875C26.0052 51.7788 26.4672 51.9713 26.4672 51.952C26.5442 51.2976 26.6596 51.336 26.8136 51.952C27.4873 51.5478 27.7183 52.414 27.8531 52.9337C28.0071 53.6074 28.2573 53.6267 28.623 53.5882L28.6615 53.7806C28.4883 53.8576 28.2958 53.8961 28.1418 53.9924C27.9878 54.0886 27.8531 54.2619 27.6991 54.4159C27.8338 54.5121 27.9493 54.6661 28.0841 54.7238C28.2381 54.7816 28.4113 54.7623 28.5653 54.7816C28.4113 54.8201 28.2188 54.8393 28.0841 54.9356C27.5066 55.3398 28.1033 55.9943 28.0648 56.514C28.315 56.4755 28.5653 56.3792 28.8348 56.3985C29.2582 56.3985 29.9127 56.3022 30.0859 56.6102L30.0282 56.5717ZM16.4577 60.537C16.1113 60.4215 15.7648 60.2868 15.4183 60.229C15.3028 60.2098 15.1873 60.4022 15.0718 60.4985L16.246 60.9027L16.4577 60.537ZM17.0545 62.3271L16.169 62.4619L16.2268 62.8276C16.3808 63.4051 16.3423 63.2511 16.477 62.8276C16.6695 62.1731 16.7657 63.4821 16.9775 63.0778C17.0737 62.9046 17.0352 62.5966 17.0545 62.3464V62.3271ZM18.9216 60.7295C18.8061 60.5947 18.6906 60.3445 18.5751 60.3253C18.4404 60.3253 18.3249 60.5177 18.1709 60.5562C18.0169 60.5947 17.8437 60.5177 17.6704 60.4985C17.7667 60.383 18.0554 60.2868 17.6704 60.0558C17.4779 59.9403 17.2855 59.9403 17.0737 59.8825L17.3817 60.5177C17.3432 60.6332 17.3432 60.9027 17.2662 60.9605C16.8042 61.2299 16.5925 61.5187 17.2085 62.1154C17.2854 62.1924 17.4394 62.3079 17.4779 62.2694C17.6127 62.0961 17.6897 61.8844 17.8052 61.6727C17.7859 61.6727 17.7667 61.6342 17.7474 61.6149L17.4009 61.4609L17.8244 61.2684L18.9024 60.7487L18.9216 60.7295ZM19.8648 59.7863C19.3836 59.69 18.8254 59.3821 18.4019 59.5168C17.6127 59.7863 18.3056 59.7093 18.5366 59.8055C18.5366 60.4215 18.9408 59.6708 19.0371 60.1328L19.8648 59.767V59.7863Z" fill="#E5DBEA"/>
<path d="M29.7777 52.4723C29.7777 52.4723 29.7008 52.5878 29.643 52.6456L30.6247 53.8582V53.1653L29.7777 52.4531V52.4723Z" fill="#E5DBEA"/>
</g>
</svg>
